<?xml version="1.0" standalone="no"?>
<!DOCTYPE svg PUBLIC "-//W3C//DTD SVG 1.1//EN" "http://www.w3.org/Graphics/SVG/1.1/DTD/svg11.dtd" >
<svg>
<metadata>
Created by FontForge 20090914 at Sun Mar 16 14:32:50 2014
 By www-data
Copyright 1990-2001 Bitstream Inc. All rights reserved.
</metadata>
<defs>
<font id="News701BT-ItalicA" horiz-adv-x="1706" >
  <font-face 
    font-family="News701 BT"
    font-weight="400"
    font-style="italic"
    font-stretch="normal"
    units-per-em="2048"
    panose-1="2 4 6 3 4 5 5 9 2 4"
    ascent="1556"
    descent="-492"
    x-height="1133"
    cap-height="1475"
    bbox="-406.002 -483 2609 1978"
    underline-thickness="133"
    underline-position="-122"
    slope="-14.5"
    unicode-range="U+0020-U+F002"
  />
<missing-glyph horiz-adv-x="1229" 
d="M102 -362v1806h1024v-1806h-1024zM217 -248h795v1577h-795v-1577z" />
    <glyph glyph-name=".notdef" horiz-adv-x="1229" 
d="M102 -362v1806h1024v-1806h-1024zM217 -248h795v1577h-795v-1577z" />
    <glyph glyph-name="space" unicode=" " horiz-adv-x="557" 
 />
    <glyph glyph-name="exclam" unicode="!" horiz-adv-x="807" 
d="M242 381c41.333 169.333 77.501 363.667 108.501 583s53.5 352.666 67.5 399.999c14 48 33 83.833 57 107.5s53.333 35.5 88 35.5c36.667 0 67 -13 91 -39s36 -58.667 36 -98c0 -52 -47.333 -190.167 -142 -414.5s-169.334 -424.166 -224.001 -599.499zM76.001 100.001
c0 39.333 13.167 72.5 39.5 99.5s58.833 40.5 97.5 40.5s71.5 -13.5 98.5 -40.5s40.5 -60.167 40.5 -99.5c0 -38.667 -13.5 -71.5 -40.5 -98.5s-59.833 -40.5 -98.5 -40.5s-71.167 13.5 -97.5 40.5s-39.5 59.833 -39.5 98.5z" />
    <glyph glyph-name="quotedbl" unicode="&#x22;" horiz-adv-x="686" 
d="M526 860l-34 0.000976562l-70 459c-0.666992 4.66699 -1.16699 9.5 -1.5 14.5s-0.5 12.5 -0.5 22.5c0 34 7.5 60.167 22.5 78.5s36.833 27.5 65.5 27.5c28 0 50 -9 66 -27s24 -43 24 -75c0 -10.667 -0.166992 -18.834 -0.5 -24.501s-0.833008 -11.167 -1.5 -16.5z
M195 860.001h-34.999l-70 459l-3 26c-0.666992 6 -1 11 -1 15c0 32 8 57 24 75s38 27 66 27c29.333 0 51.666 -9.16699 66.999 -27.5s23 -44.5 23 -78.5c0 -10.667 -0.166992 -18.5 -0.5 -23.5s-0.833008 -9.83301 -1.5 -14.5z" />
    <glyph glyph-name="numbersign" unicode="#" horiz-adv-x="1575" 
d="M702 864l-98 -276h283l96 276h-281zM760 1458h155l-161 -454h276l162 454h156l-162 -454h301l-49 -140h-301l-97 -276h320l-49 -139h-320l-162 -453h-155l162 453h-279l-162 -453h-153l159 453h-313l51 139h312l98 276h-336l51 140h334z" />
    <glyph glyph-name="dollar" unicode="$" horiz-adv-x="1114" 
d="M238 -313l77 300.995c-93.333 30.667 -165 73.334 -215 128.001s-75 117 -75 187c0 57.333 13.333 102.333 40 135s63.667 49 111 49c36 0 65.833 -11.333 89.5 -34s35.5 -51.334 35.5 -86.001c0 -18 -3.33301 -34.667 -10 -50s-16.334 -29.666 -29.001 -42.999
c-10 -9.33301 -25.5 -19.166 -46.5 -29.499s-31.5 -18.833 -31.5 -25.5c0 -14.667 16 -34 48 -58s70 -43 114 -57l131 510c-95.333 64 -166.166 129.667 -212.499 197s-69.5 138.333 -69.5 213c0 108 41.167 195.833 123.5 263.5s190.5 101.5 324.5 101.5h33l53 198h92
l-53 -215c86.667 -23.333 154 -60.5 202 -111.5s72 -110.833 72 -179.5c0 -51.333 -12.333 -90.666 -37 -117.999s-60 -41 -106 -41c-36.667 0 -66.667 10.667 -90 32s-35 49.333 -35 84c0 36.667 16 68.834 48 96.501s48 42.834 48 45.501c0 18.667 -12.5 37 -37.5 55
s-56.833 30.333 -95.5 37l-123 -486c118 -77.333 201.833 -150.333 251.5 -219s74.5 -143.667 74.5 -225c0 -114 -41.333 -205.333 -124 -274s-193 -103 -331 -103c-16 0 -41.333 1.33301 -76 4h-6l-71 -282h-94zM434 83.9951h29.001c83.333 0 150.166 19.667 200.499 59
s75.5 90.666 75.5 153.999c0 40 -15 81.833 -45 125.5s-75.667 89.834 -137 138.501zM537.001 845.995l114 432.001h-10c-79.333 0 -142.833 -19.833 -190.5 -59.5s-71.5 -92.167 -71.5 -157.5c0 -42.667 12.833 -81.334 38.5 -116.001s65.5 -67.667 119.5 -99z" />
    <glyph glyph-name="percent" unicode="%" horiz-adv-x="1878" 
d="M1712 532c0 56.667 -12.667 102.001 -38 136.001s-58.333 51 -99 51c-38 0 -77.833 -19.5 -119.5 -58.5s-81.167 -93.833 -118.5 -164.5c-28.667 -54 -51.167 -109.833 -67.5 -167.5s-24.5 -108.5 -24.5 -152.5c0 -42.667 11.5 -75.834 34.5 -99.501
s54.5 -35.5 94.5 -35.5c37.333 0 74.833 11.833 112.5 35.5s72.5 57.5 104.5 101.5c37.333 50 66.833 107 88.5 171s32.5 125 32.5 183zM1782 524.001c0 -56.667 -7.33301 -110.832 -22 -162.499s-37.334 -103.167 -68.001 -154.5
c-48 -80.667 -102.167 -141.834 -162.5 -183.501s-124.5 -62.5 -192.5 -62.5c-81.333 0 -147.333 27.667 -198 83s-76 128 -76 218c0 66 13 131.5 39 196.5s62.667 123.833 110 176.5c48 52.667 99.333 93.167 154 121.5s109.334 42.5 164.001 42.5
c82 0 144.5 -23.5 187.5 -70.5s64.5 -115.167 64.5 -204.5zM737 1298c-26.667 16 -52.998 32.8359 -78.998 50.5029s-51.333 36.5 -76 56.5c-50 -22.667 -95.333 -58.834 -136 -108.501s-77.334 -113.167 -110.001 -190.5c-18.667 -42.667 -33.334 -86 -44.001 -130
s-16 -83.333 -16 -118c0 -42 11.833 -75 35.5 -99s55.834 -36 96.501 -36c44 0 88 17.167 132 51.5s83.667 82.833 119 145.5c27.333 46 48.166 94.833 62.499 146.5s21.5 103.167 21.5 154.5c0 13.333 -0.5 26.166 -1.5 38.499s-2.5 25.166 -4.5 38.499zM1341 1522.01
l96.999 -0.000976562l-875 -1579h-121l772 1392c-42.667 -28 -85.334 -49.667 -128.001 -65s-83 -23 -121 -23c-25.333 0 -50.5 2.33301 -75.5 7s-51.167 11.667 -78.5 21c0.666992 -5.33301 1.16699 -12.166 1.5 -20.499s0.5 -20.166 0.5 -35.499
c0 -58 -7.66699 -115 -23 -171s-38.333 -109.667 -69 -161c-46.667 -80 -100.334 -141 -161.001 -183s-125 -63 -193 -63c-82.667 0 -149.5 27.5 -200.5 82.5s-76.5 127.167 -76.5 216.5c0 64.667 13.333 129.667 40 195s64 124.666 112 177.999
c48.667 52.667 99.834 93.167 153.501 121.5s106.167 42.5 157.5 42.5c47.333 0 89.333 -8.83301 126 -26.5s77.334 -49.167 122.001 -94.5c30.667 -12 58.834 -20.833 84.501 -26.5s49.167 -8.5 70.5 -8.5c68.667 0 136.5 17.5 203.5 52.5s127.5 84.5 181.5 148.5z" />
    <glyph glyph-name="ampersand" unicode="&#x26;" horiz-adv-x="1872" 
d="M625 791c-91.333 -21.333 -163.333 -64.499 -216 -129.499s-79 -142.833 -79 -233.5c0 -100.667 29.833 -181.834 89.5 -243.501s138.834 -92.5 237.501 -92.5c33.333 0 67.166 4.16699 101.499 12.5s68.833 20.5 103.5 36.5c-62 96.667 -112.5 198 -151.5 304
s-67.5 221.333 -85.5 346zM815 963.001c99.333 27.333 177.166 67.167 233.499 119.5s84.5 109.833 84.5 172.5c0 40 -12.5 72.333 -37.5 97s-57.833 37 -98.5 37c-61.333 0 -108.666 -23.5 -141.999 -70.5s-50 -113.833 -50 -200.5c0 -20.667 0.833008 -44.167 2.5 -70.5
s4.16699 -54.5 7.5 -84.5zM944 53.002c-58.667 -31.333 -118.666 -54.4951 -179.999 -69.4951s-127 -22.5 -197 -22.5c-144.667 0 -260.667 39.5 -348 118.5s-131 184.167 -131 315.5c0 124 43.667 227 131 309s219 143.667 395 185c-2 18.667 -3.5 37.167 -4.5 55.5
s-1.5 35.833 -1.5 52.5c0 153.333 36.833 276.666 110.5 369.999s170.167 140 289.5 140c77.333 0 140.333 -21.833 189 -65.5s73 -100.167 73 -169.5c0 -86.667 -38.333 -166.334 -115 -239.001s-185.334 -132.334 -326.001 -179.001
c13.333 -103.333 37.333 -205.333 72 -306s79.667 -199.334 135 -296.001c84 67.333 148.333 130.166 193 188.499s67 108.833 67 151.5c0 23.333 -13.5 42.166 -40.5 56.499s-69.5 24.833 -127.5 31.5v133h586v-133c-54 -7.33301 -99.667 -20.666 -137 -39.999
s-68.666 -45.666 -93.999 -78.999l-19 -25c-124 -168.667 -242 -296 -354 -382c21.333 -23.333 44 -40.5 68 -51.5s51.333 -16.5 82 -16.5c39.333 0 80.166 11.167 122.499 33.5s87.5 56.166 135.5 101.499l84 -69c-52.667 -65.333 -109.5 -113.5 -170.5 -144.5
s-129.167 -46.5 -204.5 -46.5c-57.333 0 -109.333 7.66699 -156 23s-89 38.333 -127 69z" />
    <glyph glyph-name="quotesingle" unicode="'" horiz-adv-x="352" 
d="M195 860h-35.001l-70 459c0 1.33301 -0.333008 4 -1 8c-2 13.333 -3 23 -3 29c0 33.333 7.83301 59.333 23.5 78s37.834 28 66.501 28c28 0 50 -9 66 -27s24 -43 24 -75c0 -4.66699 -0.166992 -9.66699 -0.5 -15s-1.5 -14.333 -3.5 -27z" />
    <glyph glyph-name="parenleft" unicode="(" horiz-adv-x="948" 
d="M922 1456c-153.333 -132.667 -267.167 -294.332 -341.5 -484.999s-111.5 -415.334 -111.5 -674.001c0 -113.333 11.667 -215.833 35 -307.5s57.333 -169.5 102 -233.5l-43 -49c-82.667 119.333 -145 245.5 -187 378.5s-63 271.167 -63 414.5
c0 203.333 47.167 388 141.5 554s237.833 317 430.5 453z" />
    <glyph glyph-name="parenright" unicode=")" horiz-adv-x="948" 
d="M6 -242c152.667 132.667 266.332 294.334 340.999 485.001s112 415.667 112 675c0 113.333 -11.667 215.833 -35 307.5s-57.333 169.167 -102 232.5l43 49c82.667 -119.333 144.834 -245.5 186.501 -378.5s62.5 -270.833 62.5 -413.5c0 -204 -47 -388.833 -141 -554.5
s-237.333 -316.834 -430 -453.501z" />
    <glyph glyph-name="asterisk" unicode="*" horiz-adv-x="1024" 
d="M621 1059l-0.00195312 -6c0 -55.333 14 -114.166 42 -176.499s42 -101.833 42 -118.5c0 -27.333 -9.33301 -49.5 -28 -66.5s-43 -25.5 -73 -25.5c-30.667 0 -54.667 8.16699 -72 24.5s-26 38.833 -26 67.5c0 18 13.667 57.5 41 118.5s41 118.5 41 172.5v13
c-5.33301 -3.33301 -13.666 -9 -24.999 -17c-46 -33.333 -82.333 -69.333 -109 -108l-7 -10c-48.667 -70.667 -92.667 -106 -132 -106c-22 0 -43.167 11.667 -63.5 35s-30.5 48 -30.5 74c0 25.333 10.5 47.166 31.5 65.499s46.5 28.5 76.5 30.5
c7.33301 0.666992 17 1.33398 29 2.00098c92.667 6.66699 163.667 26.334 213 59.001c-57.333 34.667 -128.666 54.334 -213.999 59.001c-8 0 -14.667 0.333008 -20 1c-34.667 3.33301 -62.667 14 -84 32s-32 40 -32 66c0 27.333 9.83301 52 29.5 74s41.167 33 64.5 33
c39.333 0 80.666 -32 123.999 -96l14 -19c18 -26 37.333 -48.333 58 -67s47 -37.334 79 -56.001v6c0 54.667 -13.667 113.334 -41 176.001s-41 102.334 -41 119.001c0 28 9 50.333 27 67s41.667 25 71 25c30.667 0 54.834 -8.16699 72.501 -24.5s26.5 -38.833 26.5 -67.5
c0 -18 -13.667 -57.333 -41 -118s-41 -117.667 -41 -171v-16c4 3.33301 10.333 8 19 14c47.333 34.667 85.333 71.667 114 111c2.66699 4 6.66699 9.66699 12 17c47.333 66.667 89.666 100 126.999 100c22.667 0 44 -11.5 64 -34.5s30 -47.833 30 -74.5
c0 -24.667 -10.667 -46.334 -32 -65.001s-46.666 -29 -75.999 -31c-6 -0.666992 -14 -1.33398 -24 -2.00098c-96 -6.66699 -168.667 -27.334 -218 -62.001c56 -32.667 124.333 -51.334 205 -56.001c9.33301 0 16.666 -0.333008 21.999 -1
c37.333 -2.66699 66.833 -12.834 88.5 -30.501s32.5 -40.167 32.5 -67.5c0 -26.667 -9.5 -51.167 -28.5 -73.5s-40.167 -33.5 -63.5 -33.5c-39.333 0 -80.666 32 -123.999 96c-6 8 -10.333 14.333 -13 19c-18 26 -37.333 48.333 -58 67s-47 37.334 -79 56.001z" />
    <glyph glyph-name="plus" unicode="+" 
d="M782 1221h142v-541h528v-139h-528v-541h-142v541h-528v139h528v541z" />
    <glyph glyph-name="comma" unicode="," horiz-adv-x="557" 
d="M206 -35c-8.66699 -2 -17.334 -3.50098 -26.001 -4.50098s-16.667 -1.5 -24 -1.5c-38 0 -67.333 11 -88 33s-31 53.333 -31 94c0 43.333 13.5 78.333 40.5 105s61.833 40 104.5 40c46.667 0 83.667 -16.333 111 -49s41 -77 41 -133
c0 -89.333 -34.333 -171.166 -103 -245.499s-164 -132.5 -286 -174.5v82c72 34.667 129.833 73.167 173.5 115.5s72.834 88.5 87.501 138.5z" />
    <glyph glyph-name="hyphen" unicode="-" horiz-adv-x="692" 
d="M8 483l55 172h537l-53 -172h-539z" />
    <glyph glyph-name="period" unicode="." horiz-adv-x="557" 
d="M33 100c0 39.333 13.5 72.5 40.5 99.5s59.833 40.5 98.5 40.5s71.167 -13.5 97.5 -40.5s39.5 -60.167 39.5 -99.5c0 -38.667 -13.333 -71.5 -40 -98.5s-59 -40.5 -97 -40.5s-70.667 13.667 -98 41s-41 60 -41 98z" />
    <glyph glyph-name="slash" unicode="/" horiz-adv-x="588" 
d="M72 -190h-129l536 1697h129z" />
    <glyph glyph-name="zero" unicode="0" horiz-adv-x="1114" 
d="M283 297c0 -70 13 -123.666 39 -160.999s63.333 -56 112 -56c50 0 93.5 24 130.5 72s74.833 132.667 113.5 254c48 148 86 293.5 114 436.5s42 256.833 42 341.5c0 68.667 -11.833 120.667 -35.5 156s-58.5 53 -104.5 53s-88 -24.167 -126 -72.5
s-77 -128.833 -117 -241.5c-52 -144.667 -93 -288.834 -123 -432.501s-45 -260.167 -45 -349.5zM434 -38.999c-110 0 -197.167 45.501 -261.5 136.501s-96.5 215.5 -96.5 373.5c0 143.333 22.167 286.166 66.5 428.499s106.166 269.166 185.499 380.499
c54 76 111.833 133.167 173.5 171.5s125.834 57.5 192.501 57.5c109.333 0 194.333 -41.667 255 -125s91 -200 91 -350c0 -130.667 -13.167 -255.667 -39.5 -375s-65.5 -231.666 -117.5 -336.999c-58 -117.333 -125.333 -206.833 -202 -268.5s-159 -92.5 -247 -92.5z" />
    <glyph glyph-name="one" unicode="1" horiz-adv-x="1114" 
d="M780 0l-739 -0.000976562l29 119l68 4c62 4.66699 108 18.667 138 42s53.333 66 70 128l174 659c8 29.333 14.167 57 18.5 83s6.5 47 6.5 63c0 17.333 -8.5 30.5 -25.5 39.5s-42.167 13.5 -75.5 13.5h-172l32 119c90.667 2.66699 173.5 23.334 248.5 62.001
s146.167 97 213.5 175h102l-313 -1214c-3.33301 -12.667 -5.83301 -25.667 -7.5 -39s-2.5 -27 -2.5 -41c0 -28 11.667 -49.5 35 -64.5s58 -23.5 104 -25.5l125 -4z" />
    <glyph glyph-name="two" unicode="2" horiz-adv-x="1114" 
d="M-16 0c1.33301 114.667 29.6689 219.668 85.002 315.001s164 213.666 326 354.999l68 58c194 165.333 291 305.666 291 420.999c0 72 -19.5 129.5 -58.5 172.5s-90.5 64.5 -154.5 64.5c-34.667 0 -62.5 -6.5 -83.5 -19.5s-31.5 -30.167 -31.5 -51.5
c0 -3.33301 6.83301 -18.666 20.5 -45.999s20.5 -53.666 20.5 -78.999c0 -36.667 -13.667 -67.334 -41 -92.001s-62 -37 -104 -37c-44.667 0 -80.5 14.167 -107.5 42.5s-40.5 65.166 -40.5 110.499c0 80 37.833 148.833 113.5 206.5s168.167 86.5 277.5 86.5
c128 0 233.167 -36.333 315.5 -109s123.5 -166 123.5 -280c0 -83.333 -23.833 -157.333 -71.5 -222s-148.834 -147 -303.501 -247c-160.667 -103.333 -273.334 -187.833 -338.001 -253.5s-106.334 -132.5 -125.001 -200.5h375c50.667 0 85.834 6.83301 105.501 20.5
s43.167 44.834 70.5 93.501l37 66h123l-129 -375h-764z" />
    <glyph glyph-name="three" unicode="3" horiz-adv-x="1114" 
d="M383 872h29c110.667 0 197.667 27.5 261 82.5s95 130.167 95 225.5c0 68 -15.667 121.167 -47 159.5s-75 57.5 -131 57.5c-26.667 0 -49 -5 -67 -15s-27 -21.333 -27 -34c0 -6.66699 4.66699 -19.667 14 -39s14 -35.666 14 -48.999c0 -39.333 -12 -70.333 -36 -93
s-57 -34 -99 -34c-44.667 0 -79.667 12 -105 36s-38 57.667 -38 101c0 68 31.833 124.5 95.5 169.5s145.167 67.5 244.5 67.5c124.667 0 224 -32.167 298 -96.5s111 -150.833 111 -259.5c0 -94 -31.833 -170 -95.5 -228s-160.167 -98.667 -289.5 -122
c91.333 -26 160.333 -68.833 207 -128.5s70 -135.834 70 -228.501c0 -136.667 -47.333 -250.667 -142 -342s-213.334 -137 -356.001 -137c-109.333 0 -198.5 26.167 -267.5 78.5s-103.5 119.166 -103.5 200.499c0 52 14 94.667 42 128s63.333 50 106 50
c44 0 79.5 -12.5 106.5 -37.5s40.5 -56.833 40.5 -95.5c0 -49.333 -25.333 -90.333 -76 -123c-13.333 -8.66699 -20 -15 -20 -19c0 -15.333 15 -30.666 45 -45.999s64.333 -23 103 -23c80 0 147.333 39.667 202 119s82 179 82 299c0 81.333 -21.667 141.833 -65 181.5
s-109.666 59.5 -198.999 59.5h-27z" />
    <glyph glyph-name="four" unicode="4" horiz-adv-x="1114" 
d="M618 551l179 686l-619 -686h440zM967 0h-717l31 119h59c68.667 0 116.5 10.167 143.5 30.5s50.167 68.166 69.5 143.499l22 90h-575v135l889 989h168l-246 -956h242l-43 -168h-242l-25 -91c-4.66699 -17.333 -8.16699 -34.666 -10.5 -51.999s-3.5 -34 -3.5 -50
c0 -26.667 9.33301 -45.167 28 -55.5s53.667 -15.5 105 -15.5h135z" />
    <glyph glyph-name="five" unicode="5" horiz-adv-x="1114" 
d="M303 698l-123.002 64.001l185 713h628l-49 -191h-500l-104 -418c42.667 36.667 83.834 63.334 123.501 80.001s81.167 25 124.5 25c104.667 0 189.5 -38 254.5 -114s97.5 -176 97.5 -300c0 -173.333 -52.167 -316 -156.5 -428s-236.5 -168 -396.5 -168
c-108 0 -194.667 25.833 -260 77.5s-98 119.5 -98 203.5c0 53.333 13.667 96.666 41 129.999s62.666 50 105.999 50c44 0 79.667 -12.5 107 -37.5s41 -56.833 41 -95.5c0 -49.333 -25.333 -90.333 -76 -123c-14 -8.66699 -21 -15 -21 -19
c0 -14.667 15.333 -29.834 46 -45.501s65.334 -23.5 104.001 -23.5c89.333 0 167 50.667 233 152s99 224 99 368c0 72.667 -16.167 131.167 -48.5 175.5s-74.166 66.5 -125.499 66.5c-38 0 -75.5 -11.333 -112.5 -34s-76.833 -58.667 -119.5 -108z" />
    <glyph glyph-name="six" unicode="6" horiz-adv-x="1114" 
d="M395 834c41.333 32 82.001 55.6689 122.001 71.002s80.667 23 122 23c97.333 0 176.666 -37 237.999 -111s92 -171 92 -291c0 -159.333 -47.667 -293.333 -143 -402s-211.666 -163 -348.999 -163c-120 0 -214.167 45.333 -282.5 136s-102.5 216 -102.5 376
c0 144 23.667 285.833 71 425.5s113.666 264.167 198.999 373.5c61.333 77.333 127 135.833 197 175.5s142.333 59.5 217 59.5c87.333 0 158 -22 212 -66s81 -101 81 -171c0 -48.667 -13.833 -87.167 -41.5 -115.5s-65.167 -42.5 -112.5 -42.5
c-37.333 0 -68.166 11.333 -92.499 34s-36.5 51.667 -36.5 87c0 48.667 25.333 85.667 76 111c5.33301 2.66699 8 4.66699 8 6c0 9.33301 -10.667 20.166 -32 32.499s-44 18.5 -68 18.5c-78 0 -151.833 -51.833 -221.5 -155.5s-120.834 -240.834 -153.501 -411.501z
M473.001 74.002c76.667 0 139.501 49.668 188.501 149.001s73.5 228.333 73.5 387c0 64.667 -14 115 -42 151s-66.333 54 -115 54c-37.333 0 -72.5 -12.333 -105.5 -37s-60.833 -59.334 -83.5 -104.001c-28.667 -57.333 -50.834 -118.5 -66.501 -183.5
s-23.5 -128.167 -23.5 -189.5c0 -76 14.5 -132.833 43.5 -170.5s72.5 -56.5 130.5 -56.5z" />
    <glyph glyph-name="seven" unicode="7" horiz-adv-x="1114" 
d="M276 991h-115.997l133 484h833v-162l-54 -79c-310 -447.333 -473.333 -762.333 -490 -945c-2 -18.667 -3.66699 -46 -5 -82c-3.33301 -87.333 -16 -148 -38 -182c-14 -21.333 -31.333 -37.333 -52 -48s-44.334 -16 -71.001 -16c-48.667 0 -85.834 15.167 -111.501 45.5
s-38.5 73.833 -38.5 130.5c0 140 168.333 433.667 505 881l198 264h-408c-81.333 0 -135.833 -11.667 -163.5 -35s-53.834 -68.333 -78.501 -135z" />
    <glyph glyph-name="eight" unicode="8" horiz-adv-x="1114" 
d="M444 776c-50.667 66.667 -88.502 129.331 -113.502 187.998s-37.5 115 -37.5 169c0 106 37.333 194.833 112 266.5s167.667 107.5 279 107.5c114.667 0 206.167 -28.5 274.5 -85.5s102.5 -132.833 102.5 -227.5c0 -83.333 -29.667 -155.166 -89 -215.499
s-154 -114.833 -284 -163.5c74.667 -88 129.834 -168.167 165.501 -240.5s53.5 -139.5 53.5 -201.5c0 -120.667 -41 -219.5 -123 -296.5s-187.667 -115.5 -317 -115.5c-124.667 0 -224.167 32.833 -298.5 98.5s-111.5 153.834 -111.5 264.501
c0 98.667 30.833 184.167 92.5 256.5s159.834 137.5 294.501 195.5zM638.998 882.997c79.333 46.667 138.001 96.668 176.001 150.001s57 111.666 57 174.999c0 55.333 -16.333 100 -49 134s-75.667 51 -129 51c-54.667 0 -99.334 -18.833 -134.001 -56.5
s-52 -86.5 -52 -146.5c0 -48 10.833 -97.333 32.5 -148s54.5 -103.667 98.5 -159zM495.999 706.998c-89.333 -64 -152.332 -123.333 -188.999 -178s-55 -115.667 -55 -183c0 -79.333 20.5 -143.166 61.5 -191.499s94.167 -72.5 159.5 -72.5c62 0 112.333 22.167 151 66.5
s58 102.166 58 173.499c0 53.333 -12.333 107 -37 161s-74.334 128.667 -149.001 224z" />
    <glyph glyph-name="nine" unicode="9" horiz-adv-x="1114" 
d="M629 1395c-76.667 0 -139.5 -49.668 -188.5 -149.001s-73.5 -228.666 -73.5 -387.999c0 -64 13.833 -114.167 41.5 -150.5s66.167 -54.5 115.5 -54.5c38 0 73.833 12.5 107.5 37.5s61.5 59.833 83.5 104.5c28 56 49.667 116.667 65 182s23 129.333 23 192
c0 76 -14.5 132.667 -43.5 170s-72.5 56 -130.5 56zM709 634.999c-41.333 -32 -82.1689 -55.667 -122.502 -71s-81.5 -23 -123.5 -23c-97.333 0 -176.666 37 -237.999 111s-92 170.667 -92 290c0 159.333 47.833 293.333 143.5 402s212.5 163 350.5 163
c119.333 0 213 -45.167 281 -135.5s102 -215.833 102 -376.5c0 -144 -23.667 -285.833 -71 -425.5s-114 -263.834 -200 -372.501c-61.333 -78 -126.5 -136.833 -195.5 -176.5s-140.833 -59.5 -215.5 -59.5c-87.333 0 -158 22 -212 66s-81 101.333 -81 172
c0 48 13.833 86.167 41.5 114.5s64.834 42.5 111.501 42.5c37.333 0 67.833 -11.167 91.5 -33.5s35.5 -51.166 35.5 -86.499c0 -49.333 -24.333 -86.333 -73 -111c-6 -3.33301 -9 -5.33301 -9 -6c0 -10 10.5 -21 31.5 -33s43.5 -18 67.5 -18c78.667 0 153 52 223 156
s121.333 241 154 411z" />
    <glyph glyph-name="colon" unicode=":" horiz-adv-x="606" 
d="M233 989c0 36 12.667 66.5 38 91.5s55.666 37.5 90.999 37.5c36.667 0 67.834 -12.5 93.501 -37.5s38.5 -55.5 38.5 -91.5s-13 -66.833 -39 -92.5s-57 -38.5 -93 -38.5s-66.5 12.667 -91.5 38s-37.5 56.333 -37.5 93zM-10 92c0 36 12.833 66.833 38.5 92.5
s56.5 38.5 92.5 38.5c35.333 0 65.666 -12.833 90.999 -38.5s38 -56.5 38 -92.5s-12.667 -66.833 -38 -92.5s-55.666 -38.5 -90.999 -38.5c-36.667 0 -67.667 12.667 -93 38s-38 56.333 -38 93z" />
    <glyph glyph-name="semicolon" unicode=";" horiz-adv-x="606" 
d="M133 -35c-9.33301 -2 -18.332 -3.50098 -26.999 -4.50098s-16.667 -1.5 -24 -1.5c-38 0 -67.333 11 -88 33s-31 53.333 -31 94c0 43.333 13.5 78.333 40.5 105s62.167 40 105.5 40c46 0 82.667 -16.333 110 -49s41 -77 41 -133c0 -89.333 -34.333 -171.166 -103 -245.499
s-164 -132.5 -286 -174.5v82c72.667 34.667 130.667 73.167 174 115.5s72.666 88.5 87.999 138.5zM233.001 988.999c0 36 12.667 66.5 38 91.5s55.666 37.5 90.999 37.5c36.667 0 67.834 -12.5 93.501 -37.5s38.5 -55.5 38.5 -91.5s-13 -66.833 -39 -92.5
s-57 -38.5 -93 -38.5s-66.5 12.667 -91.5 38s-37.5 56.333 -37.5 93z" />
    <glyph glyph-name="less" unicode="&#x3c;" 
d="M1442 1159v-153l-969 -396l969 -393v-154l-1178 484v129z" />
    <glyph glyph-name="equal" unicode="=" 
d="M254 481h1198v-139h-1198v139zM254 879h1198v-140h-1198v140z" />
    <glyph glyph-name="greater" unicode="&#x3e;" 
d="M264 1159l1178 -483v-129l-1178 -484v154l971 393l-971 396v153z" />
    <glyph glyph-name="question" unicode="?" horiz-adv-x="1067" 
d="M217 100c0 39.333 13.499 72.5 40.499 99.5s59.833 40.5 98.5 40.5s71.334 -13.5 98.001 -40.5s40 -60.167 40 -99.5c0 -38.667 -13.5 -71.5 -40.5 -98.5s-59.5 -40.5 -97.5 -40.5s-70.667 13.667 -98 41s-41 60 -41 98zM456.999 352l-92.0029 21.002
c11.333 106 37.166 198 77.499 276s107.833 160.667 202.5 248l6 6c97.333 90 146 183.667 146 281c0 64 -20.5 115.833 -61.5 155.5s-94.5 59.5 -160.5 59.5c-45.333 0 -85.333 -9.83301 -120 -29.5s-52 -40.5 -52 -62.5c0 -3.33301 13.333 -19.5 40 -48.5
s40 -62.833 40 -101.5c0 -36 -12.167 -64.833 -36.5 -86.5s-57.166 -32.5 -98.499 -32.5c-44 0 -78.167 14 -102.5 42s-36.5 67.333 -36.5 118c0 85.333 36.833 158.166 110.5 218.499s163.834 90.5 270.501 90.5c119.333 0 217.333 -34.333 294 -103
s115 -156.334 115 -263.001c0 -72.667 -17.167 -136.667 -51.5 -192s-92.166 -111 -173.499 -167c-8.66699 -5.33301 -22 -14 -40 -26c-70 -44 -121.333 -85 -154 -123c-28 -32 -52.167 -71 -72.5 -117s-37.166 -100.667 -50.499 -164z" />
    <glyph glyph-name="at" unicode="@" horiz-adv-x="2019" 
d="M1186 332c-41.333 -70 -87.332 -121.998 -137.999 -155.998s-107 -51 -169 -51c-86 0 -154.667 30.667 -206 92s-77 143.333 -77 246c0 72.667 16.5 144.667 49.5 216s79.833 136.333 140.5 195c45.333 43.333 94 76.5 146 99.5s103.667 34.5 155 34.5
c60 0 108.667 -16.167 146 -48.5s62.666 -79.833 75.999 -142.5l51 174h158l-172 -612l-4 -12c-10 -37.333 -15 -66 -15 -86c0 -34 7.83301 -60.333 23.5 -79s37.834 -28 66.501 -28c22 0 48.833 6.66699 80.5 20s61.5 30.666 89.5 51.999
c79.333 60 139.166 136.167 179.499 228.5s60.5 198.5 60.5 318.5c0 88.667 -17.5 170.334 -52.5 245.001s-87.167 141.667 -156.5 201c-60 51.333 -131.333 90.833 -214 118.5s-171.667 41.5 -267 41.5c-120 0 -231.833 -20.5 -335.5 -61.5s-195.5 -101.167 -275.5 -180.5
c-84 -82.667 -147.333 -178.334 -190 -287.001s-64 -228 -64 -358c0 -121.333 19 -225.666 57 -312.999s97.667 -165.333 179 -234c72.667 -61.333 157.334 -108.333 254.001 -141s199 -49 307 -49c113.333 0 222.333 17.167 327 51.5s204.667 86.166 300 155.499l33 -41
c-98 -73.333 -202.167 -128.666 -312.5 -165.999s-225.5 -56 -345.5 -56c-126 0 -241.167 15.167 -345.5 45.5s-195.833 75.5 -274.5 135.5c-100.667 75.333 -177.5 167.5 -230.5 276.5s-79.5 229.167 -79.5 360.5c0 135.333 28.833 262.166 86.5 380.499
s141.5 222.833 251.5 313.5c89.333 74 187.5 129.667 294.5 167s221.167 56 342.5 56c230.667 0 415.667 -62.833 555 -188.5s209 -292.167 209 -499.5c0 -106 -19.5 -205.333 -58.5 -298s-94.5 -171.667 -166.5 -237c-39.333 -34.667 -81.333 -61.334 -126 -80.001
s-89.334 -28 -134.001 -28c-64 0 -113.667 17.667 -149 53s-55.333 87.333 -60 156zM1104 961.002c-36 0 -68.8301 -10.168 -98.4971 -30.501s-59.834 -53.5 -90.501 -99.5c-47.333 -71.333 -85 -149.166 -113 -233.499s-42 -160.5 -42 -228.5
c0 -57.333 13.167 -103.5 39.5 -138.5s60.166 -52.5 101.499 -52.5c43.333 0 84.166 14.5 122.499 43.5s75.5 73.167 111.5 132.5c36.667 62 66.167 130 88.5 204s33.5 140 33.5 198c0 61.333 -14 110.833 -42 148.5s-65 56.5 -111 56.5z" />
    <glyph glyph-name="A" unicode="A" horiz-adv-x="1622" 
d="M563 643h461l-98 635zM1284 332c12.667 -79.333 33.667 -131.165 63 -155.498s82 -38.833 158 -43.5l-35 -133h-626l33 133c80 6 133.333 17.667 160 35s40 46 40 86c0 12.667 -0.833008 27.667 -2.5 45s-4.16699 37 -7.5 59l-23 152h-559l-108 -211
c-8.66699 -16.667 -15.667 -33.667 -21 -51s-8 -31 -8 -41c0 -26 13.667 -44.5 41 -55.5s77 -17.167 149 -18.5l-32 -133h-543l35 133c44 9.33301 81 26.166 111 50.499s62.667 66.166 98 125.499l667 1166h230z" />
    <glyph glyph-name="B" unicode="B" horiz-adv-x="1575" 
d="M555 705l-100.002 -385c-1.33301 -4 -2.66602 -9.33301 -3.99902 -16c-8.66699 -34.667 -13 -60.334 -13 -77.001c0 -37.333 17.333 -63.666 52 -78.999s97.334 -23 188.001 -23c132.667 0 234.834 28.167 306.501 84.5s107.5 136.833 107.5 241.5
c0 79.333 -26.833 141.5 -80.5 186.5s-128.834 67.5 -225.501 67.5h-231zM671.998 1155l-83.999 -317h170c149.333 0 261 25 335 75s111 125.333 111 226c0 70.667 -23.333 124.167 -70 160.5s-115.334 54.5 -206.001 54.5c-78 0 -135.333 -14.5 -172 -43.5
s-64.667 -80.833 -84 -155.5zM-0.000976562 0l32.998 133h18c46 0 80.333 8.83301 103 26.5s39.667 49.167 51 94.5l235 901c4 16 7.16699 32.5 9.5 49.5s3.5 33.833 3.5 50.5c0 31.333 -12.333 53.5 -37 66.5s-67 19.5 -127 19.5h-19l33 134h612
c97.333 0 170.833 -3.33301 220.5 -10s92.5 -17.667 128.5 -33c58.667 -26 105 -65.167 139 -117.5s51 -110.833 51 -175.5c0 -103.333 -37.167 -186.5 -111.5 -249.5s-183.166 -103.5 -326.499 -121.5c109.333 -26.667 192 -69.667 248 -129s84 -133.666 84 -222.999
c0 -66 -15.5 -127.333 -46.5 -184s-73.5 -102 -127.5 -136c-55.333 -34.667 -117.166 -59.334 -185.499 -74.001s-172.5 -22 -312.5 -22h-676z" />
    <glyph glyph-name="C" unicode="C" horiz-adv-x="1554" 
d="M1319 854v14c0 164 -34.667 289.333 -104 376s-169.333 130 -300 130c-66 0 -130 -16.667 -192 -50s-116.667 -80.666 -164 -141.999c-56.667 -74.667 -101.834 -169.834 -135.501 -285.501s-50.5 -235.5 -50.5 -359.5c0 -137.333 34.167 -245.166 102.5 -323.499
s161.833 -117.5 280.5 -117.5c86.667 0 167 26.333 241 79s143 133 207 241l131 -41c-62 -134 -144.5 -236.5 -247.5 -307.5s-220.5 -106.5 -352.5 -106.5c-190 0 -341.5 57.667 -454.5 173s-169.5 269.333 -169.5 462c0 112 20 222.667 60 332s97.667 211 173 305
c72.667 88.667 157.834 157.5 255.501 206.5s198.834 73.5 303.501 73.5c39.333 0 78.166 -3.83301 116.499 -11.5s87.5 -22.834 147.5 -45.501c22 -8 49.833 -21.167 83.5 -39.5s56.5 -27.5 68.5 -27.5c19.333 0 35.833 9.66699 49.5 29s24.5 49 32.5 89h129l-82 -653h-129
z" />
    <glyph glyph-name="D" unicode="D" horiz-adv-x="1688" 
d="M0 0l32.999 133h18c46 0 80.333 8.83301 103 26.5s39.667 49.167 51 94.5l235 901c4 16 7.16699 32.5 9.5 49.5s3.5 33.833 3.5 50.5c0 31.333 -12.333 53.5 -37 66.5s-67 19.5 -127 19.5h-19l33 134h557c110 0 193.333 -5 250 -15s107.334 -26.333 152.001 -49
c94.667 -48.667 169.834 -122.5 225.501 -221.5s83.5 -209.5 83.5 -331.5c0 -138 -27.833 -267.833 -83.5 -389.5s-134.5 -224.5 -236.5 -308.5c-65.333 -55.333 -139.833 -95.833 -223.5 -121.5s-183.834 -38.5 -300.501 -38.5h-727zM669.999 1155l-214.999 -835
c-6.66699 -25.333 -11.167 -44.833 -13.5 -58.5s-3.5 -25.167 -3.5 -34.5c0 -38 18.833 -64.833 56.5 -80.5s104.167 -23.5 199.5 -23.5c80.667 0 154 14 220 42s123.667 69.333 173 124c69.333 75.333 124.666 171.5 165.999 288.5s62 236.5 62 358.5
c0 128.667 -33.5 229.167 -100.5 301.5s-160.5 108.5 -280.5 108.5c-69.333 0 -126.833 -16.5 -172.5 -49.5s-76.167 -80.167 -91.5 -141.5z" />
    <glyph glyph-name="E" unicode="E" horiz-adv-x="1554" 
d="M0 0l33.001 132.999h18c46 0 80.333 8.83301 103 26.5s39.667 49.167 51 94.5l235 901c4 16 7.16699 32.5 9.5 49.5s3.5 33.833 3.5 50.5c0 31.333 -12.333 53.5 -37 66.5s-67 19.5 -127 19.5h-19l33 134h1180l-70 -478h-135c0.666992 16 1.33398 36.667 2.00098 62
c1.33301 38.667 2 63.334 2 74.001c0 78 -14.833 132.167 -44.5 162.5s-81.834 45.5 -156.501 45.5h-174c-83.333 0 -137.833 -8.33301 -163.5 -25s-44.834 -48.334 -57.501 -95.001l-96 -375h92c86 0 145.5 14.5 178.5 43.5s57.5 84.167 73.5 165.5h139l-162 -631h-139
c7.33301 36.667 13 69.5 17 98.5s6 54.167 6 75.5c0 42.667 -10.333 72.5 -31 89.5s-59.667 25.5 -117 25.5h-92l-100 -394c-6.66699 -23.333 -11.5 -42.666 -14.5 -57.999s-4.5 -28 -4.5 -38c0 -34 11.333 -57.5 34 -70.5s73 -19.5 151 -19.5h122
c138 0 239.667 25.667 305 77s119.333 145.333 162 282h152l-168 -492h-1194z" />
    <glyph glyph-name="F" unicode="F" horiz-adv-x="1425" 
d="M0 0l33.001 132.998h18c46 0 80.333 8.83301 103 26.5s39.667 49.167 51 94.5l235 901c4 16 7.16699 32.5 9.5 49.5s3.5 33.833 3.5 50.5c0 31.333 -12.333 53.5 -37 66.5s-67 19.5 -127 19.5h-19l33 134h1180l-70 -478h-135c0.666992 16 1.33398 36.667 2.00098 62
c1.33301 38.667 2 63.334 2 74.001c0 78 -14.833 132.167 -44.5 162.5s-81.834 45.5 -156.501 45.5h-174c-83.333 0 -137.833 -8.33301 -163.5 -25s-44.834 -48.334 -57.501 -95.001l-96 -375h92c86 0 145.5 14.5 178.5 43.5s57.5 84.167 73.5 165.5h139l-162 -631h-139
c7.33301 36.667 13 69.5 17 98.5s6 54.167 6 75.5c0 42.667 -10.333 72.5 -31 89.5s-59.667 25.5 -117 25.5h-92l-100 -394c-6.66699 -23.333 -11.5 -42.666 -14.5 -57.999s-4.5 -28 -4.5 -38c0 -33.333 11.333 -56.666 34 -69.999s64 -20 124 -20h35l-39 -133h-590z" />
    <glyph glyph-name="G" unicode="G" horiz-adv-x="1753" 
d="M1354 940c-16 138 -60.333 244.166 -133 318.499s-167.667 111.5 -285 111.5c-74 0 -142.5 -16.333 -205.5 -49s-119.5 -81 -169.5 -145c-58.667 -75.333 -104.334 -165.833 -137.001 -271.5s-49 -217.5 -49 -335.5c0 -150 33.667 -264.167 101 -342.5
s165.333 -117.5 294 -117.5c124 0 229.833 37.333 317.5 112s131.5 163.334 131.5 266.001c0 40 -12.833 67.667 -38.5 83s-79.834 25.333 -162.501 30l33 131h645l-36 -131c-69.333 -1.33301 -122.166 -20.333 -158.499 -57s-67.166 -105.667 -92.499 -207l-92 -375h-121v2
c-5.33301 62.667 -19 94 -41 94c-2 0 -50.667 -16 -146 -48s-192.666 -48 -291.999 -48c-182.667 0 -329 59.667 -439 179s-165 277.333 -165 474c0 110 18.667 216.667 56 320s91.666 198.333 162.999 285c78.667 96 166.334 168.667 263.001 218s199.334 74 308.001 74
c45.333 0 90 -4 134 -12s87.333 -20.333 130 -37c24 -8 57 -22.167 99 -42.5s72 -30.5 90 -30.5c21.333 0 39.666 9.83301 54.999 29.5s27.666 49.167 36.999 88.5h115l-68 -567h-141z" />
    <glyph glyph-name="H" unicode="H" horiz-adv-x="1792" 
d="M455 319c-6.66699 -23.333 -11.502 -42.667 -14.502 -58s-4.5 -28 -4.5 -38c0 -32.667 11.5 -55.834 34.5 -69.501s62.833 -20.5 119.5 -20.5h31l-33 -133h-588l33 133h18c46 0 80.333 8.83301 103 26.5s39.667 49.167 51 94.5l235 901c4 16 7.16699 32.5 9.5 49.5
s3.5 33.833 3.5 50.5c0 31.333 -12.333 53.5 -37 66.5s-67 19.5 -127 19.5h-19l33 134h637l-33 -134h-33c-60.667 0 -104 -8.66699 -130 -26s-45.333 -48.666 -58 -93.999l-98 -385h676l84 319c4 15.333 7 31.166 9 47.499s3 34.5 3 54.5
c0 29.333 -10.667 50.666 -32 63.999s-55 20 -101 20l35 134h542l-35 -134h-22c-48 0 -82.5 -8.16699 -103.5 -24.5s-37.833 -48.166 -50.5 -95.499l-231 -902c-4.66699 -19.333 -8.16699 -37.166 -10.5 -53.499s-3.5 -30.5 -3.5 -42.5c0 -33.333 10.333 -56.666 31 -69.999
s59.334 -20 116.001 -20h37l-35 -133h-643l35 133c6.66699 -0.666992 13.667 -1.16699 21 -1.5s17.333 -0.5 30 -0.5c54.667 0 94.334 8.66699 119.001 26s43 49.666 55 96.999l115 444h-678z" />
    <glyph glyph-name="I" unicode="I" horiz-adv-x="891" 
d="M455 319c-6.66699 -23.333 -11.5 -42.665 -14.5 -57.998s-4.5 -28 -4.5 -38c0 -32.667 11.5 -55.834 34.5 -69.501s62.833 -20.5 119.5 -20.5h31l-33 -133h-588l33 133h18c46 0 80.333 8.83301 103 26.5s39.667 49.167 51 94.5l235 901c4 16 7.16699 32.5 9.5 49.5
s3.5 33.833 3.5 50.5c0 31.333 -12.333 53.5 -37 66.5s-67 19.5 -127 19.5h-19l33 134h592l-35 -134h-10c-48.667 0 -85.167 -8.83301 -109.5 -26.5s-42.5 -48.834 -54.5 -93.501z" />
    <glyph glyph-name="J" unicode="J" horiz-adv-x="1081" 
d="M655 1155c4.66699 17.333 8.33789 34.835 11.0049 52.502s4 33.5 4 47.5c0 32 -12.333 54.333 -37 67s-68.334 19 -131.001 19l35 134h593l-32 -134h-23c-53.333 0 -92.833 -9 -118.5 -27s-43.5 -49 -53.5 -93l-192 -807c-36 -148.667 -92.833 -261.334 -170.5 -338.001
s-173.834 -115 -288.501 -115c-94.667 0 -172.334 24.5 -233.001 73.5s-91 111.167 -91 186.5c0 54 15.667 97.5 47 130.5s71.666 49.5 120.999 49.5c40.667 0 73.667 -11.833 99 -35.5s38 -54.834 38 -93.501c0 -44 -24.667 -82.667 -74 -116
c-12 -8.66699 -18 -14.334 -18 -17.001c0 -10.667 10.167 -21.5 30.5 -32.5s43.166 -16.5 68.499 -16.5c58 0 106 26.333 144 79s71.667 140.334 101 263.001z" />
    <glyph glyph-name="K" unicode="K" horiz-adv-x="1663" 
d="M0 0l32.9971 133.001h18c46 0 80.333 8.83301 103 26.5s39.667 49.167 51 94.5l235 901c4 16 7.16699 32.5 9.5 49.5s3.5 33.833 3.5 50.5c0 31.333 -12.333 53.5 -37 66.5s-67 19.5 -127 19.5h-19l33 134h637l-33 -134h-33c-60.667 0 -104 -8.66699 -130 -26
s-45.333 -48.666 -58 -93.999l-127 -492l584 412c44 31.333 74.833 57 92.5 77s26.5 38.667 26.5 56c0 21.333 -13.167 37.666 -39.5 48.999s-65.166 17.666 -116.499 18.999l35 133h637l-19 -134c-32 0 -71.167 -10.5 -117.5 -31.5s-101.166 -53.5 -164.499 -97.5
l-455 -313l240 -614c14 -35.333 27.5 -61.666 40.5 -78.999s28.833 -31.333 47.5 -42c13.333 -8 33.5 -14.667 60.5 -20s59.167 -9 96.5 -11l-32 -133h-648l36 133c60.667 3.33301 103.334 11.666 128.001 24.999s37 34.333 37 63c0 17.333 -2.5 36.333 -7.5 57
s-12.833 44.667 -23.5 72l-161 416l-328 -236l-53 -211c-6.66699 -23.333 -11.5 -42.666 -14.5 -57.999s-4.5 -28 -4.5 -38c0 -32.667 11.5 -55.834 34.5 -69.501s62.833 -20.5 119.5 -20.5h31l-33 -133h-588z" />
    <glyph glyph-name="L" unicode="L" horiz-adv-x="1382" 
d="M455 319c-6.66699 -23.333 -11.499 -42.667 -14.499 -58s-4.5 -28 -4.5 -38c0 -34 11.333 -57.5 34 -70.5s73 -19.5 151 -19.5h100c125.333 0 222.166 31.5 290.499 94.5s123.166 172.167 164.499 327.5h157l-153 -555h-1180l33 133h18c46 0 80.333 8.83301 103 26.5
s39.667 49.167 51 94.5l235 901c4 16 7.16699 32.5 9.5 49.5s3.5 33.833 3.5 50.5c0 31.333 -12.333 53.5 -37 66.5s-67 19.5 -127 19.5h-19l33 134h651l-34 -134c-6.66699 0 -15.5 0.333008 -26.5 1s-18.833 1 -23.5 1c-58.667 0 -101.167 -8.83301 -127.5 -26.5
s-45.166 -49.5 -56.499 -95.5z" />
    <glyph glyph-name="M" unicode="M" horiz-adv-x="1948" 
d="M846 1475l28 -1061l609 1061h475l-29 -134h-10c-50 0 -87.5 -8.83301 -112.5 -26.5s-43.5 -48.834 -55.5 -93.501l-233 -902c-6 -19.333 -10.333 -37.166 -13 -53.499s-4 -30.5 -4 -42.5c0 -32.667 11.333 -55.834 34 -69.501s62.667 -20.5 120 -20.5h31l-35 -133h-602
l38 133h33c48.667 0 84.5 8.66699 107.5 26s40.5 49 52.5 95l279 1104l-773 -1358h-102l-49 1366l-268 -1047c-6 -22 -10.333 -40.5 -13 -55.5s-4 -28.5 -4 -40.5c0 -33.333 10.333 -56.666 31 -69.999s57.667 -20 111 -20h28l-33 -133h-487l33 133h18
c46 0 80.333 8.83301 103 26.5s39.667 49.167 51 94.5l235 901c4 16 7.16699 32.5 9.5 49.5s3.5 33.833 3.5 50.5c0 31.333 -12.333 53.5 -37 66.5s-67 19.5 -127 19.5h-19l33 134h543z" />
    <glyph glyph-name="N" unicode="N" horiz-adv-x="1696" 
d="M365 319c-6 -19.333 -10.333 -37.167 -13 -53.5s-4 -30.5 -4 -42.5c0 -32.667 11 -55.834 33 -69.501s59.667 -20.5 113 -20.5h26l-31 -133h-489l33 133h18c46 0 80.333 8.83301 103 26.5s39.667 49.167 51 94.5l235 901c4 16 7.16699 32.5 9.5 49.5s3.5 33.833 3.5 50.5
c0 31.333 -12.333 53.5 -37 66.5s-67 19.5 -127 19.5h-19l33 134h453l389 -1076l196 756c6.66699 24.667 11.5 44.834 14.5 60.501s4.5 27.5 4.5 35.5c0 32.667 -11.167 55.834 -33.5 69.501s-60.5 20.5 -114.5 20.5h-26l31 134h491l-35 -134h-18
c-46 0 -80.333 -8.83301 -103 -26.5s-39.667 -48.834 -51 -93.501l-317 -1221h-135l-451 1227z" />
    <glyph glyph-name="O" unicode="O" 
d="M373 537c0 -138.667 33.998 -246.498 101.998 -323.498s163 -115.5 285 -115.5c80 0 150.5 17.5 211.5 52.5s119.5 91.167 175.5 168.5c62 87.333 109.833 184.666 143.5 291.999s50.5 215.666 50.5 324.999c0 136 -33.667 243 -101 321s-159.666 117 -276.999 117
c-74 0 -143.167 -17 -207.5 -51s-122.833 -84.667 -175.5 -152c-63.333 -78 -113.666 -174.5 -150.999 -289.5s-56 -229.833 -56 -344.5zM1593 858.002c0 -118 -22.0029 -233 -66.0029 -345s-106.667 -212 -188 -300c-76.667 -84 -165.667 -147.333 -267 -190
s-213 -64 -335 -64c-189.333 0 -341 57.833 -455 173.5s-171 269.5 -171 461.5c0 112 20.333 221 61 327s99.334 203 176.001 291c86.667 98 182.834 171.667 288.501 221s219.834 74 342.501 74c186 0 334.833 -59.167 446.5 -177.5s167.5 -275.5 167.5 -471.5z" />
    <glyph glyph-name="P" unicode="P" horiz-adv-x="1415" 
d="M803 1475l90.002 -0.00195312c96 0 168.667 -4 218 -12s92.666 -21.333 129.999 -40c60 -30 105.667 -71 137 -123s47 -112.667 47 -182c0 -74 -17 -142 -51 -204s-83.667 -114.667 -149 -158c-54 -36.667 -117 -63 -189 -79s-172.333 -24 -301 -24h-194l-86 -334
c-6.66699 -23.333 -11.5 -42.666 -14.5 -57.999s-4.5 -28 -4.5 -38c0 -33.333 11.667 -56.666 35 -69.999s65.666 -20 126.999 -20h35l-37 -133h-596l33 133h18c46 0 80.333 8.83301 103 26.5s39.667 49.167 51 94.5l235 901c4 16 7.16699 32.5 9.5 49.5
s3.5 33.833 3.5 50.5c0 31.333 -12.333 53.5 -37 66.5s-67 19.5 -127 19.5h-19l33 134h500zM686.002 1221l-111 -437.001h177c138.667 0 242.5 27.833 311.5 83.5s103.5 139.167 103.5 250.5c0 76.667 -22.5 133.334 -67.5 170.001s-113.833 55 -206.5 55
c-72 0 -121.5 -8.66699 -148.5 -26s-46.5 -49.333 -58.5 -96z" />
    <glyph glyph-name="Q" unicode="Q" 
d="M700 98l111.001 2c19.333 32.667 33.666 61.667 42.999 87s14 47.666 14 66.999c0 38.667 -12 69.834 -36 93.501s-55.667 35.5 -95 35.5c-36 0 -65.5 -12.167 -88.5 -36.5s-34.5 -55.833 -34.5 -94.5c0 -34 7 -63.5 21 -88.5s35.667 -46.833 65 -65.5zM973.001 154
c48 22 92.998 58.333 134.998 109s83 117.334 123 200.001c36 77.333 63.333 156.333 82 237s28 160 28 238c0 136 -33.667 242.667 -101 320s-159.666 116 -276.999 116c-74 0 -143.167 -17 -207.5 -51s-122.833 -84.667 -175.5 -152
c-65.333 -82 -116.833 -183.833 -154.5 -305.5s-56.5 -247.834 -56.5 -378.501c0 -97.333 15.5 -175.333 46.5 -234s78.833 -100.667 143.5 -126c-17.333 30 -30.166 58 -38.499 84s-12.5 52 -12.5 78c0 71.333 22.5 129.333 67.5 174s103.833 67 176.5 67
c78 0 140.167 -20.5 186.5 -61.5s69.5 -96.167 69.5 -165.5c0 -20 -3 -42.667 -9 -68s-14.667 -52.333 -26 -81zM943.999 -19c-4.66699 -15.333 -8.16895 -29.667 -10.502 -43s-3.5 -26 -3.5 -38c0 -36 11.333 -64.5 34 -85.5s53 -31.5 91 -31.5
c35.333 0 73.333 11.667 114 35s87.334 60 140.001 110l100 -104c-73.333 -72.667 -146.5 -126.334 -219.5 -161.001s-148.5 -52 -226.5 -52c-82 0 -146.667 17 -194 51s-71 80.333 -71 139c0 24.667 4.83301 50.334 14.5 77.001s24.167 55 43.5 85h-23
c-189.333 0 -340.333 57.333 -453 172s-169 267.667 -169 459c0 113.333 20.167 222.833 60.5 328.5s99.166 202.167 176.499 289.5c86.667 98 182.834 171.667 288.501 221s219.834 74 342.501 74c186 0 334.833 -59.167 446.5 -177.5s167.5 -275.5 167.5 -471.5
c0 -116.667 -22 -231 -66 -343s-106.667 -212.667 -188 -302c-54 -60.667 -113.667 -110 -179 -148s-137.333 -66 -216 -84z" />
    <glyph glyph-name="R" unicode="R" horiz-adv-x="1587" 
d="M686 1221l-96.001 -379h168c154.667 0 269.834 25.667 345.501 77s113.5 129.333 113.5 234c0 68 -22.333 117.167 -67 147.5s-118 45.5 -220 45.5c-92.667 0 -153.5 -8.83301 -182.5 -26.5s-49.5 -50.5 -61.5 -98.5zM454.999 319
c-6.66699 -23.333 -11.499 -42.6631 -14.499 -57.9961s-4.5 -28 -4.5 -38c0 -32.667 11.5 -55.834 34.5 -69.501s62.833 -20.5 119.5 -20.5h31l-33 -133h-588l33 133h18c46 0 80.333 8.83301 103 26.5s39.667 49.167 51 94.5l235 901c4 16 7.16699 32.5 9.5 49.5
s3.5 33.833 3.5 50.5c0 31.333 -12.333 53.5 -37 66.5s-67 19.5 -127 19.5h-19l33 134h553c125.333 0 216.666 -3.66699 273.999 -11s106.666 -19.666 147.999 -36.999c61.333 -25.333 108.333 -61.333 141 -108s49 -101.334 49 -164.001
c0 -114.667 -50.167 -208 -150.5 -280s-237.833 -112.333 -412.5 -121c92.667 -37.333 158.167 -80.333 196.5 -129s57.5 -112.334 57.5 -191.001c0 -14.667 -0.333008 -35.834 -1 -63.501s-1 -48.167 -1 -61.5c0 -59.333 6.33301 -102.5 19 -129.5s33 -40.5 61 -40.5
c34.667 0 64.5 19.5 89.5 58.5s42.833 94.833 53.5 167.5h123c-16 -128.667 -53 -228.167 -111 -298.5s-131.667 -105.5 -221 -105.5c-85.333 0 -149.666 24.167 -192.999 72.5s-65 119.833 -65 214.5c0 32.667 1.5 76.167 4.5 130.5s4.5 92.166 4.5 113.499
c0 84.667 -20.333 143 -61 175s-116.667 48 -228 48c-8 0 -20.333 -0.333008 -37 -1s-29.667 -1 -39 -1z" />
    <glyph glyph-name="S" unicode="S" horiz-adv-x="1421" 
d="M188 -39l-119.998 0.000976562l118 600h127v-4c0 -136.667 36.167 -247.667 108.5 -333s165.166 -128 278.499 -128c72 0 131.333 22.667 178 68s70 102.666 70 171.999c0 50 -15 97 -45 141s-83.333 94 -160 150c-24 18 -59.333 43 -106 75
c-103.333 71.333 -173 127.333 -209 168c-36 42 -62.667 83.833 -80 125.5s-26 85.167 -26 130.5c0 110 38.667 201.333 116 274s175.666 109 294.999 109c67.333 0 142.166 -16 224.499 -48s131.833 -48 148.5 -48c14.667 0 28.5 7.5 41.5 22.5s25.833 38.833 38.5 71.5
h123l-105 -534h-121c0 4 0.333008 10.5 1 19.5s1 15.5 1 19.5c0 113.333 -28.333 202.666 -85 267.999s-134 98 -232 98c-66.667 0 -122.167 -18.333 -166.5 -55s-66.5 -82.334 -66.5 -137.001c0 -93.333 81.333 -193.333 244 -300l12 -7
c142 -93.333 240.5 -177.333 295.5 -252s82.5 -156.667 82.5 -246c0 -121.333 -43.167 -221.666 -129.5 -300.999s-197.166 -119 -332.499 -119c-45.333 0 -89.333 5.33301 -132 16s-93 30 -151 58c-8.66699 4 -21 10 -37 18c-41.333 20.667 -71.333 31 -90 31
c-23.333 0 -43.333 -9.16699 -60 -27.5s-33 -50.166 -49 -95.499z" />
    <glyph glyph-name="T" unicode="T" horiz-adv-x="1403" 
d="M1493 1475l-138.999 -541.002h-127l22 184c2 16 3.16699 28.5 3.5 37.5s0.5 17.833 0.5 26.5c0 56.667 -12.333 97.667 -37 123s-64.667 38 -120 38c-50 0 -90.167 -15 -120.5 -45s-53.833 -77.667 -70.5 -143l-215 -836c-5.33301 -19.333 -9.33301 -37.166 -12 -53.499
s-4 -30.5 -4 -42.5c0 -33.333 11.667 -56.666 35 -69.999s65.666 -20 126.999 -20h38l-30 -133h-682l41 133h37c62.667 0 109.167 9.16699 139.5 27.5s51.166 49.5 62.499 93.5l234 901c4 14.667 7 30 9 46s3 31.333 3 46c0 32.667 -10.167 57.334 -30.5 74.001
s-51.166 25 -92.499 25c-48 0 -93.167 -20.333 -135.5 -61s-80.5 -100.334 -114.5 -179.001l-71 -164h-131l137 533h1243z" />
    <glyph glyph-name="U" unicode="U" 
d="M1325 506c-50 -187.333 -124.166 -325.001 -222.499 -413.001s-226.833 -132 -385.5 -132c-154 0 -274.5 36 -361.5 108s-130.5 171.333 -130.5 298c0 36 4.5 78.333 13.5 127s23.833 110.667 44.5 186l127 476c4.66699 18.667 8.16699 36.334 10.5 53.001s3.5 32 3.5 46
c0 32 -12.833 54.333 -38.5 67s-71.5 19 -137.5 19h-21l35 134h660l-35 -134h-41c-58.667 0 -100.834 -8.5 -126.501 -25.5s-44.834 -48.5 -57.501 -94.5l-166 -609c-14 -52 -24.333 -97.333 -31 -136s-10 -71.667 -10 -99c0 -84.667 26.667 -149.167 80 -193.5
s130.333 -66.5 231 -66.5c104.667 0 191.334 35.5 260.001 106.5s122.667 181.5 162 331.5l158 600l2 9c10.667 43.333 16 72.333 16 87c0 33.333 -11.5 56.666 -34.5 69.999s-64.833 20 -125.5 20h-35l35 134h518l-32 -134h-19c-46 0 -80.333 -8.66699 -103 -26
s-40 -48.666 -52 -93.999z" />
    <glyph glyph-name="V" unicode="V" horiz-adv-x="1477" 
d="M1133 1151c6.66699 14 11.999 30.335 15.999 49.002s6 35 6 49c0 34.667 -13.333 58.667 -40 72s-76 20 -148 20l34 134h551l-34 -134h-11c-44 0 -82.833 -14.667 -116.5 -44s-66.5 -78 -98.5 -146l-557 -1190h-217l-227 1194c-14 72 -33 121 -57 147s-61 39 -111 39h-27
l35 134h592l-35 -134h-20c-64.667 0 -108.167 -7.16699 -130.5 -21.5s-33.5 -40.5 -33.5 -78.5c0 -16.667 3.33301 -44.334 10 -83.001c0.666992 -4.66699 1.33398 -8.33398 2.00098 -11.001l178 -944z" />
    <glyph glyph-name="W" unicode="W" horiz-adv-x="2030" 
d="M1008 1110l-11 80.001c-6.66699 65.333 -20.667 106.666 -42 123.999s-63 26.666 -125 27.999l34 133h520l-32 -133c-57.333 -1.33301 -95.666 -9.33301 -114.999 -24s-29 -43.667 -29 -87c0 -7.33301 0.666992 -16.333 2 -27s4.33301 -29.667 9 -57l137 -838l338 842
c6.66699 17.333 12 34.833 16 52.5s6 32.834 6 45.501c0 33.333 -12.333 56.833 -37 70.5s-70.334 21.167 -137.001 22.5l35 133h534l-32 -134h-13c-42.667 0 -82.167 -16 -118.5 -48s-67.833 -79.333 -94.5 -142l-493 -1190h-146l-157 924l-387 -924h-152l-227 1194
c-14.667 73.333 -34 122.666 -58 147.999s-61.333 38 -112 38h-25l33 134h543l-35 -133c-52 -2.66699 -86.833 -11.167 -104.5 -25.5s-26.5 -42.166 -26.5 -83.499c0 -10.667 0.833008 -23.5 2.5 -38.5s4.16699 -30.833 7.5 -47.5l152 -852z" />
    <glyph glyph-name="X" unicode="X" horiz-adv-x="1669" 
d="M477 334c-16.667 -16.667 -29.665 -34.9971 -38.998 -54.9971s-14 -39.333 -14 -58c0 -28.667 12 -49.167 36 -61.5s64.667 -18.5 122 -18.5l-33 -133h-621l33 133h4c41.333 0 84.666 13.167 129.999 39.5s102.333 71.833 171 136.5l453 431l-215 438
c-28 56.667 -61.5 96.667 -100.5 120s-91.5 35 -157.5 35h-19l35 134h649l-34 -134h-15c-49.333 0 -84.833 -6 -106.5 -18s-32.5 -31.667 -32.5 -59c0 -18 3.16699 -38 9.5 -60s16.166 -46.667 29.499 -74l112 -237l256 256c16.667 16.667 29.834 35 39.501 55
s14.5 39.333 14.5 58c0 27.333 -11.333 47.166 -34 59.499s-60.334 18.833 -113.001 19.5l38 134h615l-35 -134c-92 -8.66699 -191 -62.667 -297 -162l-21 -20l-401 -379l231 -461c16.667 -33.333 35.5 -62 56.5 -86s43.167 -42.333 66.5 -55
c24 -12.667 50.833 -22.334 80.5 -29.001s61.5 -10.667 95.5 -12l-32 -133h-684l34 133h31c52.667 0 90.5 6.16699 113.5 18.5s34.5 32.166 34.5 59.499c0 17.333 -3.66699 38 -11 62s-17.333 48.333 -30 73l-144 285z" />
    <glyph glyph-name="Y" unicode="Y" horiz-adv-x="1440" 
d="M201 0l30.0029 133.003h39c58.667 0 101.667 8.83301 129 26.5s47.333 49.167 60 94.5l86 330l-209 575c-28 72.667 -57 121.167 -87 145.5s-72.667 36.5 -128 36.5h-23l35 134h594l-35 -134h-20c-45.333 0 -78.5 -6.16699 -99.5 -18.5s-31.5 -31.833 -31.5 -58.5
c0 -13.333 1.16699 -26.833 3.5 -40.5s5.83301 -26.834 10.5 -39.501l168 -463l315 383c23.333 28 41.166 54.5 53.499 79.5s18.5 46.833 18.5 65.5c0 32.667 -13.5 56.167 -40.5 70.5s-70.167 21.5 -129.5 21.5l33 134h581l-32 -134h-6c-38.667 0 -74 -8.83301 -106 -26.5
s-64.333 -46.834 -97 -87.501l-541 -662l-65 -246c-6.66699 -24 -11.5 -43.833 -14.5 -59.5s-4.5 -27.834 -4.5 -36.501c0 -34 11.667 -57.833 35 -71.5s65 -20.5 125 -20.5c5.33301 0 13.666 0.333008 24.999 1s20.666 1 27.999 1l-35 -133h-665z" />
    <glyph glyph-name="Z" unicode="Z" horiz-adv-x="1489" 
d="M16 0l-0.00195312 150.001l1108 1191h-376c-131.333 0 -228.666 -23.5 -291.999 -70.5s-122.333 -137.5 -177 -271.5h-123l135 476h1118v-148l-1108 -1194h381c80.667 0 145.667 4.83301 195 14.5s89.333 25.5 120 47.5c30.667 21.333 61.334 56.666 92.001 105.999
s69 126.333 115 231h127l-153 -532h-1162z" />
    <glyph glyph-name="bracketleft" unicode="[" horiz-adv-x="948" 
d="M920 1399h-66.001c-66 0 -106.5 -6 -121.5 -18s-31.167 -51.667 -48.5 -119l-334 -1287c-6 -24 -10.833 -47 -14.5 -69s-5.5 -38.333 -5.5 -49c0 -25.333 10.333 -43 31 -53s57.334 -15 110.001 -15h80l-19 -76h-395l449 1760h352z" />
    <glyph glyph-name="backslash" unicode="\" horiz-adv-x="588" 
d="M465 -190h-121l-199 1697h123z" />
    <glyph glyph-name="bracketright" unicode="]" horiz-adv-x="948" 
d="M-8 -211l64.999 -0.00292969c68 0 109.167 5.83301 123.5 17.5s29.833 50.834 46.5 117.501l334 1286c6.66699 24.667 11.834 48.334 15.501 71.001s5.5 39.334 5.5 50.001c0 25.333 -10.167 43 -30.5 53s-56.833 15 -109.5 15h-82l19 74h395l-448 -1760h-353z" />
    <glyph glyph-name="asciicircum" unicode="^" horiz-adv-x="2048" 
d="M926 1462h194l512 -565h-98l-512 420l-514 -420h-96z" />
    <glyph glyph-name="underscore" unicode="_" horiz-adv-x="1024" 
d="M0 -340h1024v-143h-1024v143z" />
    <glyph glyph-name="grave" unicode="`" horiz-adv-x="1024" 
d="M782 1264h-79.999l-266 196c-19.333 14.667 -34 29.167 -44 43.5s-15 28.5 -15 42.5c0 22 7.16699 40.167 21.5 54.5s32.5 21.5 54.5 21.5c14 0 28.167 -4.33301 42.5 -13s28.166 -20.667 41.499 -36z" />
    <glyph glyph-name="a" unicode="a" horiz-adv-x="1360" 
d="M723 154c-58.667 -65.333 -118.329 -114.166 -178.996 -146.499s-122.667 -48.5 -186 -48.5c-94.667 0 -171.834 39.167 -231.501 117.5s-89.5 181.166 -89.5 308.499c0 94.667 16 188.334 48 281.001s77.333 176.667 136 252
c59.333 74.667 124.666 132.167 195.999 172.5s144 60.5 218 60.5c70 0 128.833 -18.667 176.5 -56s87.167 -95.666 118.5 -174.999l55 213h195l-234 -844l-1 -3c-11.333 -42.667 -17 -72.334 -17 -89.001c0 -22 5.16699 -39.5 15.5 -52.5s24.166 -19.5 41.499 -19.5
c28.667 0 59.167 17 91.5 51s66.166 84 101.499 150h114c-54 -120 -113.167 -210.167 -177.5 -270.5s-132.833 -90.5 -205.5 -90.5c-52.667 0 -94 15.167 -124 45.5s-50.667 78.166 -62 143.499zM672.005 1012c-52 0 -102.501 -16.666 -151.501 -49.999
s-94.167 -81.666 -135.5 -144.999c-44 -67.333 -78.833 -143.5 -104.5 -228.5s-38.5 -167.167 -38.5 -246.5c0 -76.667 17.333 -136.834 52 -180.501s82 -65.5 142 -65.5c46.667 0 91.834 13.5 135.501 40.5s85.167 66.833 124.5 119.5c50 66.667 90.833 147.667 122.5 243
s47.5 183.666 47.5 264.999c0 76 -17.5 136.333 -52.5 181s-82.167 67 -141.5 67z" />
    <glyph glyph-name="b" unicode="b" horiz-adv-x="1223" 
d="M360 938c50.667 68 103.499 118.5 158.499 151.5s114.167 49.5 177.5 49.5c106.667 0 190.667 -37.167 252 -111.5s92 -176.5 92 -306.5c0 -88.667 -13.167 -175.334 -39.5 -260.001s-64.166 -162 -113.499 -232c-59.333 -84 -132 -148.667 -218 -194
s-179.333 -68 -280 -68c-116.667 0 -206.5 29.833 -269.5 89.5s-94.5 144.5 -94.5 254.5c0 37.333 3.66699 78 11 122s19.333 93.667 36 149l184 655c6 22 10.167 39.833 12.5 53.5s3.5 24.5 3.5 32.5c0 25.333 -12.167 44.333 -36.5 57s-61.166 19 -110.499 19h-76l31 112
c79.333 1.33301 157.166 4.33301 233.499 9s151.5 11.334 225.5 20.001zM419.999 84c57.333 0 109.33 14.333 155.997 43s88.667 71.667 126 129c40 61.333 72.333 134.5 97 219.5s37 167.5 37 247.5c0 88.667 -16.667 155.5 -50 200.5s-83 67.5 -149 67.5
c-43.333 0 -85.666 -12 -126.999 -36s-81.666 -60.333 -120.999 -109c-53.333 -66 -96.666 -147.333 -129.999 -244s-50 -188 -50 -274c0 -76.667 18.667 -136.5 56 -179.5s89 -64.5 155 -64.5z" />
    <glyph glyph-name="c" unicode="c" horiz-adv-x="1155" 
d="M967 319c-55.333 -115.333 -125.334 -203.502 -210.001 -264.502s-180 -91.5 -286 -91.5c-129.333 0 -234.333 44.167 -315 132.5s-121 203.833 -121 346.5c0 108.667 18.833 209.834 56.5 303.501s92.5 174.834 164.5 243.501c54.667 54 116 94.833 184 122.5
s140.333 41.5 217 41.5c106.667 0 193.834 -28.167 261.501 -84.5s101.5 -127.833 101.5 -214.5c0 -54.667 -14.167 -98.667 -42.5 -132s-65.5 -50 -111.5 -50c-39.333 0 -72 11.5 -98 34.5s-39 51.833 -39 86.5c0 18.667 5 37.167 15 55.5s24 34.5 42 48.5
c8.66699 6.66699 22.5 14.5 41.5 23.5s28.5 17.5 28.5 25.5c0 24 -18 46.833 -54 68.5s-78 32.5 -126 32.5c-124.667 0 -225.5 -60.667 -302.5 -182s-115.5 -281.333 -115.5 -480c0 -98.667 21.5 -174.834 64.5 -228.501s104.167 -80.5 183.5 -80.5
c61.333 0 120.5 20.333 177.5 61s111.833 101.334 164.5 182.001h119z" />
    <glyph glyph-name="d" unicode="d" horiz-adv-x="1364" 
d="M723 154c-58.667 -65.333 -118.332 -114.17 -178.999 -146.503s-122.667 -48.5 -186 -48.5c-94.667 0 -171.834 39.167 -231.501 117.5s-89.5 181.166 -89.5 308.499c0 94.667 16 188.334 48 281.001s77.333 176.667 136 252
c59.333 74.667 124.666 132.167 195.999 172.5s144 60.5 218 60.5c70 0 128.833 -18.667 176.5 -56s87.167 -95.666 118.5 -174.999l92 317c4.66699 16.667 8.16699 32.334 10.5 47.001s3.5 27.667 3.5 39c0 25.333 -12.167 44.333 -36.5 57s-61.166 19 -110.499 19h-76
l31 112c88 2.66699 168.833 6.33398 242.5 11.001s142.834 10.667 207.501 18l-356 -1251l-1 -3c-11.333 -42.667 -17 -72.334 -17 -89.001c0 -23.333 5.5 -41.5 16.5 -54.5s25.833 -19.5 44.5 -19.5c29.333 0 60.666 17.167 93.999 51.5s67.666 84.833 102.999 151.5h114
c-54 -120 -113.167 -210.167 -177.5 -270.5s-132.833 -90.5 -205.5 -90.5c-52 0 -93.167 15.333 -123.5 46s-51.166 78.334 -62.499 143.001zM668.002 1012c-52 0 -102.501 -16.666 -151.501 -49.999s-94.167 -81.666 -135.5 -144.999
c-44 -66.667 -78.5 -142.5 -103.5 -227.5s-37.5 -167.5 -37.5 -247.5c0 -76.667 17.333 -136.834 52 -180.501s82 -65.5 142 -65.5c46.667 0 91.834 13.5 135.501 40.5s85.167 66.833 124.5 119.5c50 66.667 90.833 147.667 122.5 243s47.5 183.666 47.5 264.999
c0 76 -17.667 136.333 -53 181s-83 67 -143 67z" />
    <glyph glyph-name="e" unicode="e" horiz-adv-x="1114" 
d="M958 350c-67.333 -127.333 -144.498 -223 -231.498 -287s-183.167 -96 -288.5 -96c-126.667 0 -228.334 40.833 -305.001 122.5s-115 190.5 -115 326.5c0 111.333 21.5 215.5 64.5 312.5s105.5 183.167 187.5 258.5c59.333 54 123.666 95.5 192.999 124.5
s139 43.5 209 43.5c91.333 0 164.333 -22.5 219 -67.5s82 -105.167 82 -180.5c0 -114 -63.167 -206.833 -189.5 -278.5s-304.833 -115.167 -535.5 -130.5c-8 -30 -13.833 -56.5 -17.5 -79.5s-5.5 -43.167 -5.5 -60.5c0 -80.667 21.667 -145.167 65 -193.5
s101 -72.5 173 -72.5c68.667 0 135 22.333 199 67s123.333 109.667 178 195zM266.002 598c157.333 10 280.332 41.334 368.999 94.001s133 119.667 133 201c0 45.333 -12.5 81.166 -37.5 107.499s-58.833 39.5 -101.5 39.5c-74 0 -142.667 -38.5 -206 -115.5
s-115.666 -185.833 -156.999 -326.5z" />
    <glyph glyph-name="f" unicode="f" horiz-adv-x="719" 
d="M299 1010l-213.001 -0.00195312l31 108h211c40.667 144.667 96.334 252.834 167.001 324.501s156.334 107.5 257.001 107.5c66 0 120 -16.667 162 -50s63 -76 63 -128c0 -34.667 -10.167 -62.834 -30.5 -84.501s-46.5 -32.5 -78.5 -32.5
c-35.333 0 -63.166 8.33301 -83.499 25s-30.5 39.334 -30.5 68.001c0 20 6.66699 40.667 20 62c4 6 6 9.66699 6 11c0 4.66699 -4.5 9 -13.5 13s-19.5 6 -31.5 6c-48 0 -89 -25.667 -123 -77s-64 -133 -90 -245h201l-25 -108h-200l-193 -809
c-50 -210 -109.833 -360.833 -179.5 -452.5s-157.834 -137.5 -264.501 -137.5c-63.333 0 -116 16.167 -158 48.5s-63 71.5 -63 117.5c0 39.333 9.66699 70.666 29 93.999s45.666 35 78.999 35c36 0 64.167 -8.5 84.5 -25.5s30.5 -40.5 30.5 -70.5
c0 -23.333 -9 -45.666 -27 -66.999c-4 -5.33301 -6 -8.33301 -6 -9c0 -2.66699 5.5 -5.5 16.5 -8.5s23.833 -4.5 38.5 -4.5c46.667 0 87.5 35.833 122.5 107.5s74.167 203.834 117.5 396.501z" />
    <glyph glyph-name="g" unicode="g" horiz-adv-x="1214" 
d="M700 154c-59.333 -52.667 -118.33 -92.1699 -176.997 -118.503s-117 -39.5 -175 -39.5c-92 0 -166.833 37.833 -224.5 113.5s-86.5 175.167 -86.5 298.5c0 91.333 15.667 181.833 47 271.5s75.666 171.167 132.999 244.5c58 73.333 121.333 129.5 190 168.5
s139 58.5 211 58.5c71.333 0 131.166 -19 179.499 -57s86.833 -96 115.5 -174l54 213h178l-246 -961c-48.667 -190.667 -119.334 -331.834 -212.001 -423.501s-211 -137.5 -355 -137.5c-100.667 0 -182.5 19.333 -245.5 58s-94.5 88.334 -94.5 149.001
c0 34 11.167 62.333 33.5 85s50.833 34 85.5 34c37.333 0 67.5 -9.66699 90.5 -29s34.5 -44.666 34.5 -75.999c0 -15.333 -4.83301 -31.166 -14.5 -47.499s-14.5 -25.166 -14.5 -26.499c0 -10 12.5 -20 37.5 -30s54.167 -15 87.5 -15c91.333 0 168 37 230 111
s108 184 138 330zM664.003 1012c-50.667 0 -99.668 -15.833 -147.001 -47.5s-91.333 -78.167 -132 -139.5c-42.667 -64.667 -76.5 -138 -101.5 -220s-37.5 -160 -37.5 -234c0 -74.667 16.667 -133 50 -175s79.333 -63 138 -63c45.333 0 89.333 13 132 39
s83.334 64.333 122.001 115c48.667 64.667 88.5 142.5 119.5 233.5s46.5 175.5 46.5 253.5c0 72.667 -17.333 130.5 -52 173.5s-80.667 64.5 -138 64.5z" />
    <glyph glyph-name="h" unicode="h" horiz-adv-x="1325" 
d="M-6 0l357.999 1237c6 22 10.333 39.833 13 53.5s4 24.5 4 32.5c0 25.333 -12.5 44.333 -37.5 57s-62.5 19 -112.5 19h-76l31 112c89.333 2.66699 170.833 6.33398 244.5 11.001s142.834 10.667 207.501 18l-192 -666c63.333 88.667 127.333 154 192 196s133 63 205 63
c66 0 118.833 -20.333 158.5 -61s59.5 -94.334 59.5 -161.001c0 -71.333 -32 -194.333 -96 -369l-11 -30c-36.667 -102 -61.5 -175.333 -74.5 -220s-19.5 -76.334 -19.5 -95.001c0 -22 5.33301 -39.5 16 -52.5s25 -19.5 43 -19.5c30 0 61.5 18.167 94.5 54.5
s71.167 95.166 114.5 176.499h115c-62.667 -133.333 -126.667 -231.833 -192 -295.5s-135.333 -95.5 -210 -95.5c-54.667 0 -97.667 16.667 -129 50s-47 79.666 -47 138.999c0 38 7.66699 87 23 147s38.333 132.333 69 217l34 90c55.333 145.333 83 243.666 83 294.999
c0 33.333 -9.33301 59.166 -28 77.499s-44.667 27.5 -78 27.5c-112.667 0 -217 -85.5 -313 -256.5s-180.333 -421.5 -253 -751.5h-196z" />
    <glyph glyph-name="i" unicode="i" horiz-adv-x="811" 
d="M692 326c-54.667 -120.667 -113.832 -210.998 -177.499 -270.998s-132.167 -90 -205.5 -90c-54.667 0 -97.334 16.667 -128.001 50s-46 79.666 -46 138.999c0 38 6.66699 85.5 20 142.5s32.666 119.167 57.999 186.5l66 174c51.333 134.667 77 216 77 244
c0 21.333 -4.16699 37.333 -12.5 48s-21.166 16 -38.499 16c-30.667 0 -62 -15 -94 -45s-69 -79.333 -111 -148h-114c58 114 121.333 202.167 190 264.5s135.667 93.5 201 93.5c52 0 92.667 -16.833 122 -50.5s44 -80.834 44 -141.501c0 -34 -7.16699 -78.167 -21.5 -132.5
s-46.833 -152.166 -97.5 -293.499c-37.333 -102.667 -62.333 -175.834 -75 -219.501s-19 -75.5 -19 -95.5c0 -22.667 5.16699 -40 15.5 -52s24.833 -18 43.5 -18c28.667 0 58.5 16.333 89.5 49s64.833 82.667 101.5 150h112zM352.002 1411c0 38 12.833 70.002 38.5 96.002
s57.167 39 94.5 39c38 0 70.167 -13 96.5 -39s39.5 -58 39.5 -96c0 -36.667 -13.333 -68.334 -40 -95.001s-58.667 -40 -96 -40c-36.667 0 -68 13.167 -94 39.5s-39 58.166 -39 95.499z" />
    <glyph glyph-name="j" unicode="j" horiz-adv-x="729" 
d="M354 201c-57.333 -222 -120.168 -375.834 -188.501 -461.501s-156.833 -128.5 -265.5 -128.5c-66.667 0 -122 16.167 -166 48.5s-66 71.5 -66 117.5c0 40.667 10.333 73 31 97s48 36 82 36c37.333 0 66.166 -8.66699 86.499 -26s30.5 -41.333 30.5 -72
c0 -23.333 -9.33301 -46.666 -28 -69.999c-3.33301 -4.66699 -5 -7.33398 -5 -8.00098c0 -2.66699 5.83301 -5.5 17.5 -8.5s24.834 -4.5 39.501 -4.5c44.667 0 83.834 27.333 117.501 82s65.5 142.334 95.5 263.001l178 712c10 36 16.667 62.667 20 80s5 31.666 5 42.999
c0 22.667 -3.66699 39 -11 49s-19.333 15 -36 15c-31.333 0 -63.333 -15.333 -96 -46s-69.667 -79.667 -111 -147h-113c58 113.333 121.667 201.333 191 264s137 94 203 94c50 0 90 -16 120 -48s45 -75.333 45 -130c0 -21.333 -3.16699 -50.666 -9.5 -87.999
s-15.833 -81 -28.5 -131zM321.998 1411c0 38 12.6689 70.002 38.002 96.002s57 39 95 39c37.333 0 69.166 -13 95.499 -39s39.5 -58 39.5 -96c0 -36.667 -13.333 -68.334 -40 -95.001s-58.334 -40 -95.001 -40c-37.333 0 -68.833 13.167 -94.5 39.5
s-38.5 58.166 -38.5 95.499z" />
    <glyph glyph-name="k" unicode="k" horiz-adv-x="1341" 
d="M1204 356c-47.333 -129.333 -102.998 -225.835 -166.998 -289.502s-138 -95.5 -222 -95.5c-80 0 -141.667 22.333 -185 67s-65 108.334 -65 191.001c0 16.667 1.66699 43.834 5 81.501s5 66.5 5 86.5c0 63.333 -15.5 111.333 -46.5 144s-76.833 49 -137.5 49
c-3.33301 0 -8.5 -0.333008 -15.5 -1s-12.833 -1 -17.5 -1l-172 -588h-196l358 1239c4.66699 14.667 8.16699 29.167 10.5 43.5s3.5 27.833 3.5 40.5c0 25.333 -12.167 44.333 -36.5 57s-61.166 19 -110.499 19h-76l31 112c79.333 1.33301 157.166 4.33301 233.499 9
s151.5 11.334 225.5 20.001l-244 -856h25c60 0 110 14.167 150 42.5s83.333 84.5 130 168.5c51.333 91.333 98.5 153.833 141.5 187.5s94.167 50.5 153.5 50.5c63.333 0 114 -15.667 152 -47s57 -72.333 57 -123c0 -40.667 -11.667 -73.5 -35 -98.5s-53.333 -37.5 -90 -37.5
c-34.667 0 -61 7.83301 -79 23.5s-27 38.167 -27 67.5c0 18 4 36.833 12 56.5s12 30.167 12 31.5c0 4 -2.33301 7 -7 9s-12 3 -22 3c-18 0 -35.833 -9.5 -53.5 -28.5s-42.167 -57.5 -73.5 -115.5c-36.667 -69.333 -75.334 -122.833 -116.001 -160.5
s-88 -63.834 -142 -78.501c73.333 -39.333 125.333 -81 156 -125s49 -105.333 55 -184c1.33301 -15.333 2.66602 -36.333 3.99902 -63c5.33301 -104.667 32 -157 80 -157c37.333 0 75.5 21.333 114.5 64s76.833 104.667 113.5 186h108z" />
    <glyph glyph-name="l" unicode="l" horiz-adv-x="702" 
d="M623 338c-68.667 -131.333 -134.332 -226.33 -196.999 -284.997s-129.667 -88 -201 -88c-54.667 0 -97.667 16.667 -129 50s-47 79.666 -47 138.999c0 51.333 29.667 182.666 89 393.999l9 33l168 597c10.667 37.333 18.5 68.166 23.5 92.499s7.5 41.833 7.5 52.5
c0 25.333 -12.167 44.333 -36.5 57s-61.166 19 -110.499 19h-76l31 112c79.333 1.33301 157.666 4.33301 234.999 9s152.333 11.334 225 20.001l-299 -1053c-25.333 -90.667 -43.166 -158.667 -53.499 -204s-15.5 -76.333 -15.5 -93c0 -20 5.16699 -35.833 15.5 -47.5
s24.166 -17.5 41.499 -17.5c28 0 58.167 17.167 90.5 51.5s69.166 88.166 110.499 161.499h119z" />
    <glyph glyph-name="m" unicode="m" horiz-adv-x="1915" 
d="M63 0l154.001 502c42.667 140 70 235.167 82 285.5s18 87.5 18 111.5c0 21.333 -3.66699 38 -11 50s-17.333 18 -30 18c-34 0 -68 -15.5 -102 -46.5s-71.667 -80.5 -113 -148.5h-112c57.333 112.667 120.5 200.5 189.5 263.5s135.5 94.5 199.5 94.5
c50.667 0 89.334 -16.167 116.001 -48.5s40 -79.5 40 -141.5c0 -13.333 -1 -28.666 -3 -45.999s-4.66699 -36 -8 -56c65.333 102 128.166 176.667 188.499 224s123.166 71 188.499 71c64 0 113.5 -19.333 148.5 -58s52.5 -93.334 52.5 -164.001
c0 -10.667 -0.5 -22.167 -1.5 -34.5s-2.5 -25.166 -4.5 -38.499c74 106.667 140.5 182.5 199.5 227.5s120.167 67.5 183.5 67.5c66.667 0 120.834 -20.167 162.501 -60.5s62.5 -92.833 62.5 -157.5c0 -37.333 -6.33301 -80.833 -19 -130.5s-38.334 -125.5 -77.001 -227.5
c-46.667 -125.333 -77.167 -211.333 -91.5 -258s-21.5 -80.667 -21.5 -102c0 -22 5.5 -39.5 16.5 -52.5s26.167 -19.5 45.5 -19.5c30.667 0 63.667 19.667 99 59s71 96.666 107 171.999h115c-64.667 -136 -129.334 -235.167 -194.001 -297.5s-135 -93.5 -211 -93.5
c-54 0 -95.833 16.5 -125.5 49.5s-44.5 79.5 -44.5 139.5c0 42 7.33301 92.167 22 150.5s43.334 145.166 86.001 260.499c35.333 94 60.5 167.333 75.5 220s22.5 92 22.5 118c0 32 -8.33301 56.333 -25 73s-41 25 -73 25c-101.333 0 -200.166 -88.167 -296.499 -264.5
s-178.5 -421.833 -246.5 -736.5h-202l151 502l51 160c41.333 124.667 62 205.667 62 243c0 32.667 -7.83301 56.834 -23.5 72.501s-39.834 23.5 -72.501 23.5c-95.333 0 -189 -87.333 -281 -262s-173.333 -421 -244 -739h-205z" />
    <glyph glyph-name="n" unicode="n" horiz-adv-x="1360" 
d="M268 0l-205.001 0.000976562l154 502c38 124 64.167 214.833 78.5 272.5s21.5 99.167 21.5 124.5c0 20 -3.83301 36 -11.5 48s-18.167 18 -31.5 18c-34 0 -67.5 -14.833 -100.5 -44.5s-70.5 -79.167 -112.5 -148.5h-112c57.333 112.667 120.5 200.5 189.5 263.5
s135.5 94.5 199.5 94.5c50.667 0 89.334 -16.167 116.001 -48.5s40 -79.5 40 -141.5c0 -13.333 -1 -28.666 -3 -45.999s-4.66699 -36 -8 -56c69.333 102 135.833 176.667 199.5 224s129.834 71 198.501 71c65.333 0 118.166 -20.333 158.499 -61s60.5 -94.334 60.5 -161.001
c0 -71.333 -32 -194.333 -96 -369l-11 -30c-36 -99.333 -60.667 -171.666 -74 -216.999s-20 -78 -20 -98c0 -22 5.16699 -39.167 15.5 -51.5s24.166 -18.5 41.499 -18.5c28 0 60.667 20.167 98 60.5s75 96.5 113 168.5h113c-62.667 -133.333 -126.667 -231.833 -192 -295.5
s-135 -95.5 -209 -95.5c-54.667 0 -97.334 16.667 -128.001 50s-46 79.666 -46 138.999c0 39.333 7.33301 88.666 22 147.999s37.334 131 68.001 215l32 85c56 148.667 84 249 84 301c0 32 -8.66699 56.333 -26 73s-42.666 25 -75.999 25
c-101.333 0 -199.5 -87.333 -294.5 -262s-177.167 -421 -246.5 -739z" />
    <glyph glyph-name="o" unicode="o" horiz-adv-x="1241" 
d="M1092 680c0 -90.667 -14.666 -179.003 -43.999 -265.003s-70 -161.667 -122 -227c-58.667 -71.333 -127.334 -126.333 -206.001 -165s-161.667 -58 -249 -58c-130 0 -235.167 43.833 -315.5 131.5s-120.5 202.834 -120.5 345.501c0 108.667 18.833 209.834 56.5 303.501
s92.5 174.834 164.5 243.501c56 54.667 118.167 95.667 186.5 123s141.5 41 219.5 41c130 0 234.167 -43 312.5 -129s117.5 -200.667 117.5 -344zM492.001 75.9971c52 0 100.502 16.334 145.502 49.001s85.833 81.667 122.5 147c35.333 63.333 62.833 135.666 82.5 216.999
s29.5 163.333 29.5 246c0 102.667 -18.833 179.5 -56.5 230.5s-93.834 76.5 -168.501 76.5c-106.667 0 -197.834 -60.333 -273.501 -181s-113.5 -271 -113.5 -451c0 -107.333 20.167 -189.833 60.5 -247.5s97.5 -86.5 171.5 -86.5z" />
    <glyph glyph-name="p" unicode="p" horiz-adv-x="1382" 
d="M-14 780c44.667 108.667 100.999 194.999 168.999 258.999s136.333 96 205 96c51.333 0 90.5 -16.167 117.5 -48.5s42.5 -81.833 46.5 -148.5c54 69.333 110 120.833 168 154.5s119.667 50.5 185 50.5c103.333 0 187.166 -40.5 251.499 -121.5s96.5 -188.167 96.5 -321.5
c0 -68 -7.66699 -134.333 -23 -199s-38.333 -127.334 -69 -188.001c-58 -111.333 -128 -196.166 -210 -254.499s-172.667 -87.5 -272 -87.5c-79.333 0 -144.166 21.5 -194.499 64.5s-83.833 105.5 -100.5 187.5l-77 -301c-6 -23.333 -10.333 -42.333 -13 -57s-4 -27 -4 -37
c0 -36 13.667 -61.333 41 -76s75 -22 143 -22l-28 -109h-557l31 113c60 2 102.333 11 127 27s42.334 44.333 53.001 85l231 877c14 54.667 24 95.834 30 123.501s9 47.167 9 58.5c0 21.333 -4.66699 38 -14 50s-22.333 18 -39 18c-30.667 0 -62 -15.833 -94 -47.5
s-65.667 -80.167 -101 -145.5h-108zM634.999 108.999c52.667 0 100.501 15.1689 143.501 45.502s82.5 77.166 118.5 140.499c35.333 61.333 62.666 128.166 81.999 200.499s29 144.833 29 217.5c0 93.333 -17 164 -51 212s-84 72 -150 72c-42.667 0 -85 -12.833 -127 -38.5
s-81 -63.167 -117 -112.5c-45.333 -60.667 -80.5 -130.667 -105.5 -210s-37.5 -160.333 -37.5 -243c0 -92 18.5 -162.333 55.5 -211s90.167 -73 159.5 -73z" />
    <glyph glyph-name="q" unicode="q" horiz-adv-x="1282" 
d="M672 1012c-52 0 -102.501 -16.667 -151.501 -50s-94.167 -81.666 -135.5 -144.999c-44 -67.333 -78.833 -143.5 -104.5 -228.5s-38.5 -166.5 -38.5 -244.5c0 -77.333 17.167 -138 51.5 -182s81.833 -66 142.5 -66c46.667 0 91.834 13.5 135.501 40.5
s85.167 66.833 124.5 119.5c50 66.667 90.833 147.667 122.5 243s47.5 183.666 47.5 264.999c0 76 -17.5 136.333 -52.5 181s-82.167 67 -141.5 67zM431.999 -379l31.0039 112.996c56 0 96.5 8.16699 121.5 24.5s43.833 46.833 56.5 91.5l88 318
c-54.667 -69.333 -112.834 -121.166 -174.501 -155.499s-127.167 -51.5 -196.5 -51.5c-94.667 0 -171.834 39 -231.501 117s-89.5 180.333 -89.5 307c0 94.667 16 188.334 48 281.001s77.333 176.667 136 252c59.333 75.333 124.666 133 195.999 173s144.666 60 219.999 60
c70 0 128.5 -18.667 175.5 -56s86.167 -95.666 117.5 -174.999l127 213h123l-332 -1207c-4.66699 -17.333 -8.16699 -34.166 -10.5 -50.499s-3.5 -31.5 -3.5 -45.5c0 -36 13.333 -61.333 40 -76s74 -22 142 -22l-29 -111h-555z" />
    <glyph glyph-name="r" unicode="r" horiz-adv-x="973" 
d="M483 852c56 104.667 109.666 181.002 160.999 229.002s105 72 161 72c46.667 0 83.5 -14.667 110.5 -44s40.5 -69.333 40.5 -120c0 -42 -12.5 -76.333 -37.5 -103s-57.5 -40 -97.5 -40c-34 0 -61.167 8.16699 -81.5 24.5s-30.5 38.166 -30.5 65.499
c0 0.666992 0.333008 2.5 1 5.5s1 5.83301 1 8.5c-0.666992 8.66699 -1.66699 14.167 -3 16.5s-4.66602 3.83301 -9.99902 4.5c-58.667 0 -129.167 -90.667 -211.5 -272s-155.166 -414.333 -218.499 -699h-205l154 502c38 124 64.167 214.833 78.5 272.5
s21.5 99.167 21.5 124.5c0 19.333 -4.16699 35.5 -12.5 48.5s-18.5 19.5 -30.5 19.5c-32.667 0 -65.334 -14.833 -98.001 -44.5s-71 -79.834 -115 -150.501h-112c57.333 112.667 120.5 200.5 189.5 263.5s135.5 94.5 199.5 94.5c50 0 88.5 -15.667 115.5 -47
s40.5 -76.333 40.5 -135c0 -8.66699 -0.833008 -19.667 -2.5 -33s-4.5 -34.333 -8.5 -63z" />
    <glyph glyph-name="s" unicode="s" horiz-adv-x="979" 
d="M350 -35c-106.667 0 -195.001 27.8311 -265.001 83.498s-105 124.834 -105 207.501c0 48.667 11.667 87.5 35 116.5s54.666 43.5 93.999 43.5c34 0 61.5 -9.66699 82.5 -29s31.5 -44.666 31.5 -75.999c0 -30.667 -12.167 -59 -36.5 -85s-36.5 -42 -36.5 -48
c0 -22.667 20 -44.334 60 -65.001s86.667 -31 140 -31c70.667 0 127 16.333 169 49s63 76.334 63 131.001c0 60 -56.333 132.667 -169 218c-15.333 11.333 -26.666 20 -33.999 26c-93.333 71.333 -156.666 131.166 -189.999 179.499s-50 100.5 -50 156.5
c0 88.667 34.167 162.334 102.5 221.001s155.166 88 260.499 88c98 0 180.167 -25.333 246.5 -76s99.5 -112 99.5 -184c0 -44 -12.833 -80 -38.5 -108s-58.5 -42 -98.5 -42c-33.333 0 -60.166 9 -80.499 27s-30.5 41.333 -30.5 70c0 31.333 14 59.666 42 84.999
s42 43.333 42 54c0 15.333 -17.667 31.833 -53 49.5s-74.333 26.5 -117 26.5c-55.333 0 -102 -15.167 -140 -45.5s-57 -67.166 -57 -110.499c0 -30 10.333 -59.333 31 -88s57.667 -62.667 111 -102l22 -17c191.333 -144 287 -270.333 287 -379
c0 -96.667 -40 -178.5 -120 -245.5s-179.333 -100.5 -298 -100.5z" />
    <glyph glyph-name="t" unicode="t" horiz-adv-x="803" 
d="M274 1010l-212.998 -0.000976562l31 108h213l111 400h196l-110 -400h196l-24 -108h-201l-201 -721c-5.33301 -18 -9.33301 -36.167 -12 -54.5s-4 -35.833 -4 -52.5c0 -23.333 5 -40.333 15 -51s26 -16 48 -16c37.333 0 77 20.333 119 61s84.333 100 127 178h123
c-62.667 -129.333 -130.834 -226.5 -204.501 -291.5s-152.167 -97.5 -235.5 -97.5c-58.667 0 -104.834 17.833 -138.501 53.5s-50.5 84.834 -50.5 147.501c0 40.667 14 113 42 217l4 13z" />
    <glyph glyph-name="u" unicode="u" horiz-adv-x="1360" 
d="M-37 772c58.667 122 119.833 212.666 183.5 271.999s131.5 89 203.5 89c54.667 0 97.334 -16.667 128.001 -50s46 -79.666 46 -138.999c0 -40.667 -7.66699 -91.834 -23 -153.501s-38.333 -133.5 -69 -215.5l-31 -84c-58.667 -156.667 -88 -256 -88 -298
c0 -30.667 9.33301 -54.5 28 -71.5s45 -25.5 79 -25.5c102.667 0 201.834 89.167 297.501 267.5s178.834 429.833 249.501 754.5h207l-162 -522c-38.667 -124.667 -65.167 -215.667 -79.5 -273s-21.5 -98.666 -21.5 -123.999c0 -20.667 4.33301 -36.834 13 -48.501
s21 -17.5 37 -17.5c36 0 72.667 19.5 110 58.5s71.666 93.833 102.999 164.5h114c-48.667 -116.667 -109.834 -210.667 -183.501 -282s-144.834 -107 -213.501 -107c-50.667 0 -89.334 16.333 -116.001 49s-40 80 -40 142c0 13.333 0.833008 28.333 2.5 45
s4.16699 35.667 7.5 57c-68 -102 -133.833 -176.667 -197.5 -224s-130.167 -71 -199.5 -71c-65.333 0 -118.166 20.333 -158.499 61s-60.5 94 -60.5 160c0 72 32 195.333 96 370l11 30c36.667 102.667 61.5 175.834 74.5 219.501s19.5 75.5 19.5 95.5
c0 22 -5.5 39.167 -16.5 51.5s-26.167 18.5 -45.5 18.5c-27.333 0 -57 -16.667 -89 -50s-65.667 -83 -101 -149h-115z" />
    <glyph glyph-name="v" unicode="v" horiz-adv-x="1241" 
d="M-25 772c59.333 122.667 120.498 213.502 183.498 272.502s130.167 88.5 201.5 88.5c57.333 0 101.833 -18 133.5 -54s47.5 -86.333 47.5 -151c0 -34 -6.83301 -76.667 -20.5 -128s-34.167 -112.666 -61.5 -183.999l-26 -66c-67.333 -175.333 -101 -286.333 -101 -333
c0 -43.333 12.167 -77.333 36.5 -102s57.833 -37 100.5 -37c46.667 0 96.5 15.5 149.5 46.5s102.167 74.167 147.5 129.5c62 74.667 111.333 158.5 148 251.5s55 180.5 55 262.5c0 41.333 -8 71.666 -24 90.999s-44.333 32.666 -85 39.999
c-44 8.66699 -75.833 22.167 -95.5 40.5s-29.5 43.166 -29.5 74.499c0 36 11.667 65.167 35 87.5s54 33.5 92 33.5c64 0 116.5 -32.167 157.5 -96.5s61.5 -147.833 61.5 -250.5c0 -78.667 -13 -160 -39 -244s-64 -166.333 -114 -247c-70 -112 -149.167 -196.667 -237.5 -254
s-184.166 -86 -287.499 -86c-82.667 0 -147.334 20.333 -194.001 61s-70 96.667 -70 168c0 69.333 30.667 187.333 92 354l17 46c34 95.333 57.833 166.5 71.5 213.5s20.5 80.833 20.5 101.5c0 22 -5.16699 39.5 -15.5 52.5s-24.166 19.5 -41.499 19.5
c-26.667 0 -56.167 -17 -88.5 -51s-67.166 -84 -104.499 -150h-115z" />
    <glyph glyph-name="w" unicode="w" horiz-adv-x="1759" 
d="M989 592c-16.667 -70 -30.002 -136.005 -40.002 -198.005s-15 -107.333 -15 -136c0 -58.667 9.66699 -102 29 -130s49.333 -42 90 -42c38.667 0 81.667 15.5 129 46.5s89.666 72.167 126.999 123.5c56.667 80 101.834 166.833 135.501 260.5s50.5 178.167 50.5 253.5
c0 40.667 -7.66699 70.5 -23 89.5s-44 32.833 -86 41.5c-45.333 10 -78.166 24 -98.499 42s-30.5 42.333 -30.5 73c0 34.667 12.167 63.167 36.5 85.5s56.166 33.5 95.499 33.5c60.667 0 112 -31.667 154 -95s63 -143 63 -239c0 -78.667 -12.167 -161.167 -36.5 -247.5
s-59.5 -170.5 -105.5 -252.5c-62 -109.333 -132.667 -192.666 -212 -249.999s-163.666 -86 -252.999 -86c-72.667 0 -129.334 20.333 -170.001 61s-61 97.667 -61 171c0 14.667 0.666992 28.834 2 42.501s3.33301 27.5 6 41.5c-74 -106.667 -146.167 -186 -216.5 -238
s-140.833 -78 -211.5 -78c-65.333 0 -118.166 20.333 -158.499 61s-60.5 94 -60.5 160c0 67.333 28 179.666 84 336.999c10 27.333 17.333 48 22 62c36 100 60.833 172.667 74.5 218s20.5 78 20.5 98c0 22 -5.5 39.5 -16.5 52.5s-25.5 19.5 -43.5 19.5
c-26.667 0 -56 -16.667 -88 -50s-66.667 -83.666 -104 -150.999h-115c58.667 122 119.834 212.667 183.501 272s131.5 89 203.5 89c54.667 0 97.334 -16.667 128.001 -50s46 -79.666 46 -138.999c0 -39.333 -7.33301 -88.666 -22 -147.999s-37.334 -131 -68.001 -215
l-32 -85c-56.667 -149.333 -85 -249.666 -85 -300.999c0 -32 8.33301 -56.5 25 -73.5s40.667 -25.5 72 -25.5c103.333 0 201 91 293 273s164.333 431.667 217 749h194z" />
    <glyph glyph-name="x" unicode="x" horiz-adv-x="1290" 
d="M494 152c-48.667 -62 -98.501 -108.336 -149.501 -139.003s-103.833 -46 -158.5 -46c-68 0 -124.833 19.333 -170.5 58s-68.5 86.334 -68.5 143.001c0 48.667 12.5 87.5 37.5 116.5s58.167 43.5 99.5 43.5c34.667 0 63.5 -10.5 86.5 -31.5s34.5 -47.5 34.5 -79.5
c0 -32.667 -16.333 -67 -49 -103c-10 -10 -15 -16.667 -15 -20c0 -8 5.66699 -15.5 17 -22.5s25 -10.5 41 -10.5c45.333 0 88.833 22.5 130.5 67.5s77.167 107.833 106.5 188.5c26 72.667 47.167 158 63.5 256s24.5 187 24.5 267c0 52.667 -10.833 94.5 -32.5 125.5
s-50.167 46.5 -85.5 46.5c-44 0 -84 -16.667 -120 -50s-74 -89 -114 -167h-113c40.667 108.667 93.834 192.834 159.501 252.501s137.5 89.5 215.5 89.5c59.333 0 109.666 -16.667 150.999 -50s72.333 -82.333 93 -147c36.667 63.333 80.334 112.333 131.001 147
s104 52 160 52c65.333 0 120.5 -19.833 165.5 -59.5s67.5 -88.167 67.5 -145.5c0 -42 -12 -75.333 -36 -100s-56.333 -37 -97 -37c-33.333 0 -61.166 9 -83.499 27s-33.5 41 -33.5 69c0 23.333 7.83301 46.833 23.5 70.5s23.5 36.167 23.5 37.5c0 8 -5 15.5 -15 22.5
s-21.333 10.5 -34 10.5c-44.667 0 -85.834 -20.833 -123.501 -62.5s-69.5 -101.167 -95.5 -178.5c-29.333 -90 -52.666 -183 -69.999 -279s-26 -175.333 -26 -238c0 -58 11 -102.5 33 -133.5s53.333 -46.5 94 -46.5c42.667 0 86.667 18.833 132 56.5
s92.666 94.834 141.999 171.501l115 -7c-62 -116.667 -128.333 -203.5 -199 -260.5s-147.667 -85.5 -231 -85.5c-65.333 0 -117.5 15.667 -156.5 47s-62.5 76 -70.5 134z" />
    <glyph glyph-name="y" unicode="y" horiz-adv-x="1290" 
d="M987 1118h180.002l-243 -946c-50 -194 -122.667 -336.333 -218 -427s-220.666 -136 -375.999 -136c-96.667 0 -173.834 18.167 -231.501 54.5s-86.5 83.5 -86.5 141.5c0 37.333 12 68.666 36 93.999s53 38 87 38c37.333 0 66.833 -9.5 88.5 -28.5s32.5 -44.5 32.5 -76.5
c0 -15.333 -3 -30.833 -9 -46.5s-9 -24.167 -9 -25.5c0 -10 10.833 -20 32.5 -30s46.834 -15 75.501 -15c97.333 0 179.333 41.333 246 124s115.667 203.334 147 362.001c-50.667 -66 -109 -117.667 -175 -155s-130.333 -56 -193 -56c-66 0 -119 19.5 -159 58.5
s-60 91.167 -60 156.5c0 68.667 31 187 93 355c5.33301 15.333 9.66602 27.333 12.999 36c36 98.667 60.667 170.167 74 214.5s20 75.833 20 94.5c0 22 -5.83301 39.5 -17.5 52.5s-26.834 19.5 -45.501 19.5c-25.333 0 -52.333 -15 -81 -45s-64.667 -81.333 -108 -154h-114
c59.333 120.667 120.5 210 183.5 268s130.167 87 201.5 87c55.333 0 98.5 -16.333 129.5 -49s46.5 -78 46.5 -136c0 -37.333 -7.5 -85.5 -22.5 -144.5s-37.5 -128.833 -67.5 -209.5l-33 -87c-56 -145.333 -84 -243.333 -84 -294c0 -32 8.66699 -56 26 -72
s42.666 -24 75.999 -24c113.333 0 215 82.833 305 248.5s170 416.5 240 752.5z" />
    <glyph glyph-name="z" unicode="z" horiz-adv-x="1028" 
d="M97 267c20.667 8.66699 40.4971 15.165 59.4971 19.498s37.167 6.5 54.5 6.5c42 0 106 -21.5 192 -64.5s150.333 -64.5 193 -64.5c47.333 0 88.166 15.333 122.499 46s63.833 78.667 88.5 144h106c-24 -128 -65.333 -224.167 -124 -288.5s-134 -96.5 -226 -96.5
c-48 0 -91.833 8 -131.5 24s-79.167 41.667 -118.5 77c-14.667 13.333 -34.667 32.666 -60 57.999c-46.667 48.667 -82.667 73 -108 73c-14.667 0 -26.167 -4 -34.5 -12s-12.5 -19 -12.5 -33c0 -13.333 9 -33.333 27 -60s27 -47.667 27 -63
c0 -22 -6.16699 -38.833 -18.5 -50.5s-29.5 -17.5 -51.5 -17.5c-31.333 0 -54.5 15.333 -69.5 46s-22.5 78.334 -22.5 143.001c0 104.667 30.333 197.334 91 278.001s148.334 145 263.001 193c40 16.667 94.167 34.667 162.5 54s115.166 34 140.499 44
c35.333 14.667 65.333 32.334 90 53.001s45 45 61 73c-13.333 -2.66699 -26.666 -4.83398 -39.999 -6.50098s-27.666 -2.5 -42.999 -2.5c-42 0 -103.5 17.667 -184.5 53s-143.167 53 -186.5 53s-80.5 -11.833 -111.5 -35.5s-55.167 -58.834 -72.5 -105.501h-103
c21.333 110 58.666 194.5 111.999 253.5s119.333 88.5 198 88.5c34 0 65.833 -6.16699 95.5 -18.5s59.834 -31.5 90.501 -57.5l52 -46c81.333 -71.333 137 -107 167 -107c12.667 0 22 2.5 28 7.5s9 12.5 9 22.5c0 16 -10.667 39.5 -32 70.5s-32 53.833 -32 68.5
c0 16.667 6.33301 30.5 19 41.5s28.334 16.5 47.001 16.5c33.333 0 58.333 -15.833 75 -47.5s25 -79.5 25 -143.5c0 -87.333 -30.833 -167.666 -92.5 -240.999s-151.5 -135.666 -269.5 -186.999c-31.333 -13.333 -82.166 -31.166 -152.499 -53.499
s-122.5 -41.833 -156.5 -58.5c-40.667 -20.667 -72.5 -42.834 -95.5 -66.501s-38.833 -50.5 -47.5 -80.5z" />
    <glyph glyph-name="braceleft" unicode="{" horiz-adv-x="1024" 
d="M848 1516l-0.000976562 -53.002c-90.667 -1.33301 -152.667 -19.666 -186 -54.999s-50 -105.333 -50 -210v-141c0 -151.333 -19.667 -254.166 -59 -308.499s-111.666 -92.166 -216.999 -113.499c106 -21.333 178.5 -59.166 217.5 -113.499s58.5 -157.166 58.5 -308.499
v-141c0 -104.667 16.5 -174.334 49.5 -209.001s95.167 -52.667 186.5 -54v-53h-10c-146 0 -246.333 24.667 -301 74s-82 140 -82 272v207c0 107.333 -19.667 181.166 -59 221.499s-112 64.833 -218 73.5v64c107.333 8.66699 180.333 33.167 219 73.5s58 114.166 58 221.499
v206c0 132.667 27.333 223.667 82 273s155 74 301 74h10z" />
    <glyph glyph-name="bar" unicode="|" horiz-adv-x="1024" 
d="M438 1565h150v-2048h-150v2048z" />
    <glyph glyph-name="braceright" unicode="}" horiz-adv-x="1024" 
d="M176 1516l9.99902 0.00292969c146.667 0 247.5 -24.667 302.5 -74s82.5 -140.333 82.5 -273v-206c0 -107.333 19.333 -181.166 58 -221.499s111.667 -64.833 219 -73.5v-64c-107.333 -8.66699 -180.333 -33.167 -219 -73.5s-58 -114.166 -58 -221.499v-207
c0 -132 -27.5 -222.667 -82.5 -272s-155.833 -74 -302.5 -74h-10v53c91.333 1.33301 153.5 19.5 186.5 54.5s49.5 104.5 49.5 208.5v141c0 151.333 19.5 254.166 58.5 308.499s111.5 92.166 217.5 113.499c-105.333 21.333 -177.666 59.166 -216.999 113.499
s-59 157.166 -59 308.499v141c0 104.667 -16.667 174.667 -50 210s-95.333 53.666 -186 54.999v53z" />
    <glyph glyph-name="asciitilde" unicode="~" 
d="M1530 770l-0.00292969 -156.001c-69.333 -48 -135.666 -83.5 -198.999 -106.5s-126.666 -34.5 -189.999 -34.5c-62 0 -147.333 19.333 -256 58c-14.667 5.33301 -26 9.33301 -34 12l-15 5c-117.333 40 -208.333 60 -273 60c-56 0 -114.333 -12.333 -175 -37
s-130.667 -64.667 -210 -120v155c70.667 48 138 84 202 108s125.667 36 185 36c41.333 0 83.833 -4.5 127.5 -13.5s98.167 -25.167 163.5 -48.5c10.667 -3.33301 26.334 -9 47.001 -17c106 -38 186 -57 240 -57c58.667 0 118.5 12.333 179.5 37
s130.167 64.334 207.5 119.001z" />
    <glyph glyph-name="Euro" horiz-adv-x="1114" 
d="M45 930l114.998 0.000976562c56 180.667 131.167 323 225.5 427s198.5 156 312.5 156c66 0 126.833 -17 182.5 -51s86.5 -51 92.5 -51c10.667 0 19.334 6 26.001 18s13.667 38 21 78h96l-47 -522h-96c-14 137.333 -42.5 236.5 -85.5 297.5s-101.167 91.5 -174.5 91.5
c-76.667 0 -142.167 -38 -196.5 -114s-95.5 -186 -123.5 -330h432l-22 -92l-426 -1c-6 -44 -10.667 -82.167 -14 -114.5s-5.33301 -60.833 -6 -85.5h399l-25 -94h-379c0 -157.333 18.5 -271.166 55.5 -341.499s92.167 -105.5 165.5 -105.5c62 0 120 27.167 174 81.5
s102.667 133.833 146 238.5l111 -41c-40.667 -126.667 -101.667 -227.334 -183 -302.001s-168.666 -112 -261.999 -112c-136.667 0 -244.334 50.667 -323.001 152s-122 244.666 -130 429.999h-133l23 94h110c2.66699 34.667 6.33398 68.667 11.001 102s10.667 66.333 18 99
h-115z" />
    <glyph glyph-name="Euro" unicode="&#x20ac;" horiz-adv-x="1114" 
d="M45 930l114.998 0.000976562c56 180.667 131.167 323 225.5 427s198.5 156 312.5 156c66 0 126.833 -17 182.5 -51s86.5 -51 92.5 -51c10.667 0 19.334 6 26.001 18s13.667 38 21 78h96l-47 -522h-96c-14 137.333 -42.5 236.5 -85.5 297.5s-101.167 91.5 -174.5 91.5
c-76.667 0 -142.167 -38 -196.5 -114s-95.5 -186 -123.5 -330h432l-22 -92l-426 -1c-6 -44 -10.667 -82.167 -14 -114.5s-5.33301 -60.833 -6 -85.5h399l-25 -94h-379c0 -157.333 18.5 -271.166 55.5 -341.499s92.167 -105.5 165.5 -105.5c62 0 120 27.167 174 81.5
s102.667 133.833 146 238.5l111 -41c-40.667 -126.667 -101.667 -227.334 -183 -302.001s-168.666 -112 -261.999 -112c-136.667 0 -244.334 50.667 -323.001 152s-122 244.666 -130 429.999h-133l23 94h110c2.66699 34.667 6.33398 68.667 11.001 102s10.667 66.333 18 99
h-115z" />
    <glyph glyph-name="nonbreakingspace" unicode="&#xa0;" horiz-adv-x="1114" 
 />
    <glyph glyph-name="exclamdown" unicode="&#xa1;" horiz-adv-x="807" 
d="M524 1087c-41.333 -169.333 -77.499 -363.667 -108.499 -583s-53.5 -352.666 -67.5 -399.999c-14 -48 -33 -83.833 -57 -107.5s-53.333 -35.5 -88 -35.5c-36.667 0 -67.334 13.167 -92.001 39.5s-37 58.833 -37 97.5c0 51.333 47.5 189.166 142.5 413.499
s170.167 424.5 225.5 600.5zM690.001 1368c0 -39.333 -13.167 -72.333 -39.5 -99s-58.833 -40 -97.5 -40s-71.5 13.5 -98.5 40.5s-40.5 59.833 -40.5 98.5s13.5 71.5 40.5 98.5s59.833 40.5 98.5 40.5s71.167 -13.333 97.5 -40s39.5 -59.667 39.5 -99z" />
    <glyph glyph-name="cent" unicode="&#xa2;" horiz-adv-x="1114" 
d="M276 20c-70 32 -124 84.3359 -162 157.003s-57 159.667 -57 261c0 132 26.833 252.333 80.5 361s128.5 194 224.5 256c52 32 103.333 56 154 72s102.667 24 156 24c12.667 0 25.667 -0.5 39 -1.5s26.666 -2.5 39.999 -4.5l109 254h92l-114 -271
c62.667 -31.333 112 -71.833 148 -121.5s54 -101.834 54 -156.501c0 -50.667 -14.5 -92.334 -43.5 -125.001s-66.167 -49 -111.5 -49c-40 0 -71.5 10.833 -94.5 32.5s-34.5 51.167 -34.5 88.5c0 18 4.33301 35.833 13 53.5s21.334 33.167 38.001 46.5
c8 6.66699 21.667 14.334 41 23.001s29 17.334 29 26.001c0 13.333 -7.33301 27.166 -22 41.499s-34.667 27.166 -60 38.499l-389 -924c16 -8.66699 33.5 -15.167 52.5 -19.5s38.833 -6.5 59.5 -6.5c64.667 0 126 20.167 184 60.5s113.333 101.166 166 182.499h119
c-56 -116.667 -126 -204.834 -210 -264.501s-180.667 -89.5 -290 -89.5c-17.333 0 -37.333 1.83301 -60 5.5s-47 8.83398 -73 15.501l-125 -299h-92zM338 166.003l372.999 878h-21c-117.333 0 -215.166 -59.333 -293.499 -178s-117.5 -268.667 -117.5 -450
c0 -50 4.83301 -95.333 14.5 -136s24.5 -78.667 44.5 -114z" />
    <glyph glyph-name="sterling" unicode="&#xa3;" horiz-adv-x="1114" 
d="M1006 328l-0.000976562 -34.998c0 -102 -23.333 -182.833 -70 -242.5s-109.334 -89.5 -188.001 -89.5c-69.333 0 -153.666 31.667 -252.999 95l-1 1c-60.667 38.667 -102 63 -124 73s-40.333 15 -55 15c-40 0 -72 -32.333 -96 -97l-2 -5
c-10 -28.667 -22 -48.834 -36 -60.501s-32.667 -17.5 -56 -17.5c-26 0 -46.833 7.5 -62.5 22.5s-23.5 34.833 -23.5 59.5c0 34.667 27.333 69.334 82 104.001c32 20 55 37.333 69 52c36 34.667 62.167 86.334 78.5 155.001s24.5 163.667 24.5 285v113h-248l25 102h222
c2 204.667 44.333 364 127 478s197 171 343 171c90.667 0 163.834 -21.5 219.501 -64.5s83.5 -99.167 83.5 -168.5c0 -50 -12 -88.833 -36 -116.5s-57 -41.5 -99 -41.5c-40 0 -70.833 9.66699 -92.5 29s-32.5 46.666 -32.5 81.999c0 30 11.5 59.167 34.5 87.5
s34.5 42.833 34.5 43.5c0 10 -9.16699 19.667 -27.5 29s-40.5 14 -66.5 14c-84.667 0 -149.5 -34.333 -194.5 -103s-67.5 -168.334 -67.5 -299.001v-92v-49h291l-25 -102h-266c-8.66699 -96.667 -33.167 -191.167 -73.5 -283.5s-97.833 -184.833 -172.5 -277.5
c40 17.333 76 30.166 108 38.499s62.333 12.5 91 12.5c50 0 111 -11 183 -33s119 -33 141 -33c36 0 63.5 11.833 82.5 35.5s30.833 61.167 35.5 112.5h93z" />
    <glyph glyph-name="currency" unicode="&#xa4;" horiz-adv-x="1114" 
d="M45 930l114.998 0.000976562c56 180.667 131.167 323 225.5 427s198.5 156 312.5 156c66 0 126.833 -17 182.5 -51s86.5 -51 92.5 -51c10.667 0 19.334 6 26.001 18s13.667 38 21 78h96l-47 -522h-96c-14 137.333 -42.5 236.5 -85.5 297.5s-101.167 91.5 -174.5 91.5
c-76.667 0 -142.167 -38 -196.5 -114s-95.5 -186 -123.5 -330h432l-22 -92l-426 -1c-6 -44 -10.667 -82.167 -14 -114.5s-5.33301 -60.833 -6 -85.5h399l-25 -94h-379c0 -157.333 18.5 -271.166 55.5 -341.499s92.167 -105.5 165.5 -105.5c62 0 120 27.167 174 81.5
s102.667 133.833 146 238.5l111 -41c-40.667 -126.667 -101.667 -227.334 -183 -302.001s-168.666 -112 -261.999 -112c-136.667 0 -244.334 50.667 -323.001 152s-122 244.666 -130 429.999h-133l23 94h110c2.66699 34.667 6.33398 68.667 11.001 102s10.667 66.333 18 99
h-115z" />
    <glyph glyph-name="yen" unicode="&#xa5;" horiz-adv-x="1399" 
d="M1538 1475l-32.999 -133.998h-6c-38.667 0 -73.834 -8.83301 -105.501 -26.5s-64.167 -46.834 -97.5 -87.501l-206 -250h319l-25 -94h-376l-172 -205h497l-26 -94h-549l-68 -265c-6 -22.667 -10.5 -41.667 -13.5 -57s-4.5 -28.333 -4.5 -39c0 -33.333 11.5 -57 34.5 -71
s63.833 -21 122.5 -21c5.33301 0 13.833 0.333008 25.5 1s21.167 1 28.5 1l-33 -133h-629l31 133h39c58.667 0 101.5 8.83301 128.5 26.5s46.833 49.167 59.5 94.5l88 330h-547l23 94h489l-73 205h-365l27 94h303l-68 182c-28.667 75.333 -57.5 124.5 -86.5 147.5
s-71.167 34.5 -126.5 34.5h-22l33 134h555l-35 -134h-21c-45.333 0 -78.833 -6.33301 -100.5 -19s-32.5 -32 -32.5 -58c0 -11.333 1.5 -23.833 4.5 -37.5s7.16699 -27.834 12.5 -42.501l180 -496l342 416c22.667 28 40.167 54.5 52.5 79.5s18.5 46.833 18.5 65.5
c0 32.667 -13.333 56.167 -40 70.5s-69.667 21.5 -129 21.5l32 134h545z" />
    <glyph glyph-name="brokenbar" unicode="&#xa6;" horiz-adv-x="1024" 
d="M438 408h150v-758h-150v758zM438 1432h150v-758h-150v758z" />
    <glyph glyph-name="section" unicode="&#xa7;" horiz-adv-x="1024" 
d="M287 797c0 -29.333 8.83203 -63 26.499 -101s44.834 -81.667 81.501 -131c52 -69.333 92.167 -114.333 120.5 -135s58.5 -31 90.5 -31c34 0 62 11 84 33s33 49.333 33 82c0 26 -6.83301 55.333 -20.5 88s-35.5 71 -65.5 115c-45.333 66 -85.833 114.833 -121.5 146.5
s-67.5 47.5 -95.5 47.5c-36 0 -67.167 -11.5 -93.5 -34.5s-39.5 -49.5 -39.5 -79.5zM591.999 328c40 -45.333 70.835 -91.999 92.502 -139.999s32.5 -93.667 32.5 -137c0 -76.667 -32.5 -138.834 -97.5 -186.501s-149.833 -71.5 -254.5 -71.5
c-92.667 0 -166.834 20.5 -222.501 61.5s-83.5 94.167 -83.5 159.5c0 38 13.667 70.5 41 97.5s59.666 40.5 96.999 40.5c30.667 0 56.667 -9.66699 78 -29s32 -42.666 32 -69.999c0 -24 -11.833 -50.5 -35.5 -79.5s-35.5 -48.167 -35.5 -57.5
c0 -19.333 10.333 -35.5 31 -48.5s47.667 -19.5 81 -19.5c50.667 0 90.667 14.5 120 43.5s44 68.5 44 118.5c0 55.333 -35.667 128.666 -107 219.999l-8 10l-151 190c-52.667 66.667 -88.667 121.334 -108 164.001s-29 85 -29 127c0 78.667 28.333 141.334 85 188.001
s133.334 70 230.001 70h6c-42.667 50.667 -74.834 98.334 -96.501 143.001s-32.5 85 -32.5 121c0 81.333 30.5 146 91.5 194s143.167 72 246.5 72c92 0 165.833 -19 221.5 -57s83.5 -87 83.5 -147c0 -38 -13.833 -70.5 -41.5 -97.5s-60.167 -40.5 -97.5 -40.5
c-32 0 -59.5 10 -82.5 30s-34.5 43.667 -34.5 71c0 22 10.333 45.667 31 71s31 42 31 50c0 16 -10.167 30.167 -30.5 42.5s-45.166 18.5 -74.499 18.5c-47.333 0 -85.833 -13.167 -115.5 -39.5s-44.5 -60.166 -44.5 -101.499c0 -30.667 9.5 -64.334 28.5 -101.001
s51.833 -83.667 98.5 -141l148 -184c53.333 -67.333 90.166 -123.333 110.499 -168s30.5 -88.334 30.5 -131.001c0 -78.667 -27.5 -140.834 -82.5 -186.501s-130.5 -68.834 -226.5 -69.501z" />
    <glyph glyph-name="dieresis" unicode="&#xa8;" horiz-adv-x="1024" 
d="M707 1425c0 28 10.833 52.8311 32.5 74.498s46.167 32.5 73.5 32.5c29.333 0 54.833 -10.5 76.5 -31.5s32.5 -46.167 32.5 -75.5c0 -31.333 -10.333 -57.166 -31 -77.499s-46.667 -30.5 -78 -30.5c-30 0 -55.167 10.333 -75.5 31s-30.5 46.334 -30.5 77.001zM354 1425
c0 28 10.833 52.8311 32.5 74.498s46.5 32.5 74.5 32.5c29.333 0 54.666 -10.5 75.999 -31.5s32 -46.167 32 -75.5c0 -31.333 -10.167 -57.166 -30.5 -77.499s-46.166 -30.5 -77.499 -30.5c-30.667 0 -56.167 10.333 -76.5 31s-30.5 46.334 -30.5 77.001z" />
    <glyph glyph-name="copyright" unicode="&#xa9;" horiz-adv-x="1683" 
d="M1122 1098l36.9971 0.000976562l2 -316h-43c-21.333 90 -55.666 158 -102.999 204s-106.333 69 -177 69c-79.333 0 -139.166 -31.167 -179.499 -93.5s-60.5 -154.833 -60.5 -277.5c0 -124.667 22.167 -219.334 66.5 -284.001s108.833 -97 193.5 -97
c56 0 107.167 14.667 153.5 44s88.833 73.333 127.5 132l39 -26c-40.667 -70 -90 -122.667 -148 -158s-124.333 -53 -199 -53c-115.333 0 -212.666 41.333 -291.999 124s-119 184 -119 304c0 122 39.5 224.5 118.5 307.5s175.833 124.5 290.5 124.5
c50 0 99.833 -11 149.5 -33s76.5 -33 80.5 -33c18 0 32 4.83301 42 14.5s17 25.5 21 47.5zM843.997 1305c-82 0 -161.333 -16.332 -238 -48.999s-144.334 -78.667 -203.001 -138c-58.667 -60 -103.334 -127.5 -134.001 -202.5s-46 -154.167 -46 -237.5
c0 -84.667 15.5 -164.334 46.5 -239.001s76.5 -141.667 136.5 -201c60.667 -60 127.834 -105.5 201.501 -136.5s151.834 -46.5 234.501 -46.5c84 0 163 15.5 237 46.5s140.333 76.5 199 136.5c59.333 60 104.833 128 136.5 204s47.5 154.667 47.5 236
c0 82 -16 162.333 -48 241s-76.667 146.334 -134 203.001c-57.333 57.333 -124.333 102.166 -201 134.499s-155 48.5 -235 48.5zM843.997 1391c92 0 181.666 -18.1689 268.999 -54.502s164 -87.166 230 -152.499c66.667 -66 118.167 -143.333 154.5 -232
s54.5 -180 54.5 -274c0 -93.333 -17.833 -183.166 -53.5 -269.499s-87.5 -163.833 -155.5 -232.5c-66 -67.333 -142 -119 -228 -155s-177 -54 -273 -54c-94.667 0 -184.667 17.833 -270 53.5s-162.666 87.5 -231.999 155.5c-68.667 68 -120.667 144.333 -156 229
s-53 175.667 -53 273c0 94 17.833 184 53.5 270s87.5 163.333 155.5 232c66.667 67.333 143.5 119.333 230.5 156s178.167 55 273.5 55z" />
    <glyph glyph-name="ordfeminine" unicode="&#xaa;" horiz-adv-x="1020" 
d="M543 786c-44 -46 -88.8311 -80.333 -134.498 -103s-92.5 -34 -140.5 -34c-70.667 0 -128.167 27.5 -172.5 82.5s-66.5 127.167 -66.5 216.5c0 67.333 11.833 133.333 35.5 198s57.5 123 101.5 175s92.833 92 146.5 120s108.5 42 164.5 42c52 0 96 -13.167 132 -39.5
s65.667 -67.166 89 -122.499l41 149h146l-174 -589c-6 -19.333 -10 -33.5 -12 -42.5s-3 -16.833 -3 -23.5c0 -14.667 4 -26.5 12 -35.5s18.333 -13.5 31 -13.5c21.333 0 44.166 11.833 68.499 35.5s49.5 58.167 75.5 103.5h86
c-39.333 -82.667 -83.333 -145.334 -132 -188.001s-100.334 -64 -155.001 -64c-40 0 -71.167 10.667 -93.5 32s-37.5 55 -45.5 101zM504.002 1386c-38.667 0 -76.3311 -11.668 -112.998 -35.001s-70.667 -57.333 -102 -102c-33.333 -46.667 -59.5 -99.667 -78.5 -159
s-28.5 -116.666 -28.5 -171.999c0 -54 13 -96.333 39 -127s61.667 -46 107 -46c35.333 0 69.166 9.5 101.499 28.5s63.166 47.167 92.499 84.5c37.333 45.333 67.833 101.333 91.5 168s35.5 128.667 35.5 186c0 54 -13 96.5 -39 127.5s-61.333 46.5 -106 46.5z" />
    <glyph glyph-name="guillemotleft" unicode="&#xab;" horiz-adv-x="944" 
d="M369 582c99.333 70.667 192.833 144.667 280.5 222s133.167 116 136.5 116c7.33301 -0.666992 12.666 -2.83398 15.999 -6.50098s5 -9.16699 5 -16.5c0 -26 -21.5 -69.667 -64.5 -131s-100.833 -129.666 -173.5 -204.999c39.333 -77.333 71 -149.5 95 -216.5
s36 -112.833 36 -137.5c0 -10 -2.16699 -17.667 -6.5 -23s-10.166 -8 -17.499 -8c-8.66699 0 -44 46.5 -106 139.5s-129 181.833 -201 266.5zM45 582c99.333 70.667 192.668 144.667 280.001 222s132.666 116 135.999 116c7.33301 0 12.833 -2 16.5 -6s5.5 -9.66699 5.5 -17
c0 -25.333 -21.667 -68.666 -65 -129.999s-101.333 -130 -174 -206c39.333 -78.667 71.333 -151.334 96 -218.001s37 -112 37 -136c0 -10 -2.16699 -17.667 -6.5 -23s-10.5 -8 -18.5 -8s-43.167 46.5 -105.5 139.5s-129.5 181.833 -201.5 266.5z" />
    <glyph glyph-name="logicalnot" unicode="&#xac;" 
d="M254 860h1198v-502h-137v363h-1061v139z" />
    <glyph glyph-name="sfthyphen" unicode="&#xad;" horiz-adv-x="692" 
d="M8 483l55 172h537l-53 -172h-539z" />
    <glyph glyph-name="registered" unicode="&#xae;" horiz-adv-x="1683" 
d="M738 721c8.66699 -0.666992 18 -1.16699 28 -1.5s21.667 -0.5 35 -0.5c70 0 124.333 15 163 45s58 72.333 58 127c0 48 -16.667 86.667 -50 116s-78 44 -134 44c-34 0 -59.333 -5.83301 -76 -17.5s-25 -29.167 -25 -52.5zM467 1094h397.001c96 0 173 -18 231 -54
s87 -83 87 -141c0 -55.333 -22 -99.166 -66 -131.499s-117 -57.5 -219 -75.5c63.333 -18.667 111.666 -44.167 144.999 -76.5s56 -75.833 68 -130.5l3 -28c7.33301 -83.333 29.666 -125 66.999 -125c20.667 0 36.334 11.167 47.001 33.5s16 54.833 16 97.5h45v-19
c0 -56 -13.667 -99 -41 -129s-67 -45 -119 -45c-32.667 0 -60.667 5.33301 -84 16s-40.333 26 -51 46c-13.333 24.667 -20.666 61.334 -21.999 110.001s-4 81 -8 97c-12.667 47.333 -34.834 82.333 -66.501 105s-75.167 34 -130.5 34h-29v-246c0 -34 8.5 -58 25.5 -72
s48.167 -23 93.5 -27v-44h-389v44c46 2.66699 77.667 11.167 95 25.5s26 38.833 26 73.5v516c0 35.333 -8.66699 60.166 -26 74.499s-49 23.166 -95 26.499v45zM844.001 1305c-82 0 -161.33 -16.3301 -237.997 -48.9971s-144.334 -78.667 -203.001 -138
c-58.667 -60 -103.334 -127.5 -134.001 -202.5s-46 -154.167 -46 -237.5c0 -84.667 15.5 -164.334 46.5 -239.001s76.5 -141.667 136.5 -201c59.333 -60 125.833 -105.5 199.5 -136.5s152.5 -46.5 236.5 -46.5c83.333 0 162.333 15.667 237 47s141 76.666 199 135.999
c58.667 60 103.667 127.667 135 203s47 154.333 47 237c0 83.333 -15.833 164 -47.5 242s-75.834 145.333 -132.501 202c-57.333 57.333 -124.333 102.166 -201 134.499s-155 48.5 -235 48.5zM844.004 1391c93.333 0 184.332 -18.6689 272.999 -56.002
s166.334 -89.666 233.001 -156.999c64.667 -66 114.5 -142.833 149.5 -230.5s52.5 -179.5 52.5 -275.5c0 -92.667 -18.667 -182.667 -56 -270s-91 -165.333 -161 -234c-66.667 -66 -142.667 -116 -228 -150s-177.333 -51 -276 -51c-89.333 0 -176.5 18.167 -261.5 54.5
s-161.5 87.833 -229.5 154.5c-68 67.333 -119.833 143.666 -155.5 228.999s-53.5 176.333 -53.5 273c0 94.667 17.667 184.834 53 270.501s86.666 162.834 153.999 231.501c66.667 67.333 143.834 119.333 231.501 156s179.167 55 274.5 55z" />
    <glyph glyph-name="macron" unicode="&#xaf;" horiz-adv-x="1024" 
d="M354 1354l29 141h541l-31 -141h-539z" />
    <glyph glyph-name="degree" unicode="&#xb0;" horiz-adv-x="674" 
d="M338 1362c-54 0 -100 -18.667 -138 -56s-57 -83 -57 -137s19 -100.167 57 -138.5s84 -57.5 138 -57.5s99.5 19.167 136.5 57.5s55.5 84.5 55.5 138.5s-18.5 99.667 -55.5 137s-82.5 56 -136.5 56zM338 1456c78.667 0 146.167 -28.167 202.5 -84.5
s84.5 -124.5 84.5 -204.5c0 -79.333 -28 -146.833 -84 -202.5s-124.333 -83.5 -205 -83.5s-148.667 27.667 -204 83s-83 123 -83 203s28.333 148.167 85 204.5s124.667 84.5 204 84.5z" />
    <glyph glyph-name="plusminus" unicode="&#xb1;" 
d="M254 170h1198v-141h-1198v141zM782 1192h142v-340h528v-139h-528v-340h-142v340h-528v139h528v340z" />
    <glyph glyph-name="twosuperior" unicode="&#xb2;" horiz-adv-x="735" 
d="M-10 588c0.666992 68.667 19.168 131.671 55.501 189.004s108.166 128.333 215.499 213l41 32c130.667 101.333 196 186.666 196 255.999c0 43.333 -12.833 77.666 -38.5 102.999s-60.167 38 -103.5 38c-22.667 0 -40.834 -4 -54.501 -12s-20.5 -18.333 -20.5 -31
c0 -2 4.33301 -11 13 -27s13 -31.333 13 -46c0 -22.667 -8.83301 -41.334 -26.5 -56.001s-40.167 -22 -67.5 -22c-29.333 0 -53 8.33301 -71 25s-27 39 -27 67c0 47.333 25 88.5 75 123.5s111 52.5 183 52.5c84 0 153.167 -21.833 207.5 -65.5s81.5 -99.5 81.5 -167.5
c0 -51.333 -15.667 -96.333 -47 -135s-97.666 -88 -198.999 -148c-108 -63.333 -183.167 -114.333 -225.5 -153s-69.5 -78.334 -81.5 -119.001h247c35.333 0 59.333 4 72 12s27.667 27 45 57l25 39h80l-84 -225h-504z" />
    <glyph glyph-name="threesuperior" unicode="&#xb3;" horiz-adv-x="735" 
d="M252 1112l19.999 -0.00195312c73.333 0 131 16.5 173 49.5s63 77.833 63 134.5c0 40.667 -10.5 72.334 -31.5 95.001s-50.167 34 -87.5 34c-17.333 0 -31.833 -2.83301 -43.5 -8.5s-17.5 -12.167 -17.5 -19.5c0 -4 3 -11.833 9 -23.5s9 -21.834 9 -30.501
c0 -23.333 -8 -41.666 -24 -54.999s-38 -20 -66 -20c-29.333 0 -52.333 7.16699 -69 21.5s-25 34.5 -25 60.5c0 40.667 21 74.667 63 102s96 41 162 41c82 0 147.5 -19.5 196.5 -58.5s73.5 -91.167 73.5 -156.5c0 -56.667 -21 -102.334 -63 -137.001
s-105.667 -58.667 -191 -72c60 -15.333 105.5 -41.166 136.5 -77.499s46.5 -82.166 46.5 -137.499c0 -82 -31.5 -150.333 -94.5 -205s-141.5 -82 -235.5 -82c-72 0 -130.667 15.667 -176 47s-68 71 -68 119c0 32 9 58.167 27 78.5s41.333 30.5 70 30.5
c29.333 0 53 -7.5 71 -22.5s27 -34.167 27 -57.5c0 -29.333 -16.333 -54 -49 -74c-10 -5.33301 -15 -9.33301 -15 -12c0 -9.33301 9.83301 -18.5 29.5 -27.5s42.167 -13.5 67.5 -13.5c53.333 0 98 23.833 134 71.5s54 107.167 54 178.5c0 49.333 -14.167 85.833 -42.5 109.5
s-72.166 35.5 -131.499 35.5h-16z" />
    <glyph glyph-name="acute" unicode="&#xb4;" horiz-adv-x="1024" 
d="M522 1264l-88 -0.000976562l293 295c20.667 20.667 40.667 36.334 60 47.001s37 16 53 16c23.333 0 42.5 -7.66699 57.5 -23s22.5 -35 22.5 -59c0 -15.333 -5.5 -29.5 -16.5 -42.5s-30.833 -28.167 -59.5 -45.5z" />
    <glyph glyph-name="mu" unicode="&#xb5;" horiz-adv-x="1169" 
d="M166 195c-22 -95.333 -43.335 -213.663 -64.002 -354.996c-24.667 -173.333 -63.334 -260 -116.001 -260c-28.667 0 -50.5 8.16699 -65.5 24.5s-22.5 39.5 -22.5 69.5c0 29.333 23.333 121.666 70 276.999s83.334 296 110.001 422l108 512h168l-100 -475
c-6 -26.667 -10.5 -51.5 -13.5 -74.5s-4.5 -42.833 -4.5 -59.5c0 -46.667 13.833 -82.834 41.5 -108.501s67.5 -38.5 119.5 -38.5c64.667 0 116 18.167 154 54.5s65.333 93.833 82 172.5l112 529h173l-115 -532c-6 -28.667 -10.667 -53.834 -14 -75.501s-5 -39.167 -5 -52.5
c0 -32 8.83301 -56.667 26.5 -74s43.167 -26 76.5 -26c29.333 0 56.333 8.33301 81 25s44 39.667 58 69c8.66699 18 17.667 42.333 27 73c11.333 37.333 24.333 56 39 56c6 0 11.167 -2.66699 15.5 -8s6.5 -12.333 6.5 -21c0 -22.667 -4.5 -52 -13.5 -88
s-20.833 -69.333 -35.5 -100c-26 -52 -56.833 -91 -92.5 -117s-76.5 -39 -122.5 -39c-54 0 -95.833 18.333 -125.5 55s-44.5 88 -44.5 154v13c-34.667 -76.667 -75.667 -132.834 -123 -168.501s-104.666 -53.5 -171.999 -53.5c-63.333 0 -113.666 18.667 -150.999 56
s-60 92 -68 164z" />
    <glyph glyph-name="paragraph" unicode="&#xb6;" horiz-adv-x="1024" 
d="M958 1479l-0.00195312 -86h-120v-1393h-111v1393h-176v-1393h-113v782c-113.333 5.33301 -203.666 39.5 -270.999 102.5s-101 144.833 -101 245.5c0 104.667 35.833 189 107.5 253s166.834 96 285.501 96h499z" />
    <glyph glyph-name="periodcentered" unicode="&#xb7;" horiz-adv-x="557" 
d="M145 735c0 39.333 13.168 72 39.501 98s59.166 39 98.499 39c38.667 0 71.5 -13.167 98.5 -39.5s40.5 -58.833 40.5 -97.5s-13.667 -71.5 -41 -98.5s-60 -40.5 -98 -40.5s-70.5 13.5 -97.5 40.5s-40.5 59.833 -40.5 98.5z" />
    <glyph glyph-name="cedilla" unicode="&#xb8;" horiz-adv-x="1024" 
d="M68 -379l36.001 89.999c40 -25.333 80 -44.666 120 -57.999s77.333 -20 112 -20c37.333 0 65.5 7.66699 84.5 23s28.5 38 28.5 68c0 27.333 -9 48.5 -27 63.5s-44 22.5 -78 22.5c-9.33301 0 -21.333 -0.833008 -36 -2.5s-35.334 -4.5 -62.001 -8.5l65 201h66l-37 -115
c7.33301 1.33301 15.333 2.33301 24 3s21 1 37 1c60 0 106.5 -14.5 139.5 -43.5s49.5 -69.5 49.5 -121.5c0 -56.667 -19.667 -100.667 -59 -132s-94.666 -47 -165.999 -47c-38 0 -81.333 6.33301 -130 19s-104.334 31.667 -167.001 57z" />
    <glyph glyph-name="onesuperior" unicode="&#xb9;" horiz-adv-x="735" 
d="M514 588h-486.999l18 71l45 3c41.333 2.66699 72 11 92 25s35 39.667 45 77l115 395c5.33301 17.333 9.33301 33.833 12 49.5s4 28.5 4 38.5c0 10.667 -5.33301 18.5 -16 23.5s-27 7.5 -49 7.5h-115l21 72c61.333 2 116.666 14.5 165.999 37.5
s95.666 58.167 138.999 105.5h67l-207 -730c-1.33301 -8 -2.66602 -16.5 -3.99902 -25.5s-2 -16.5 -2 -22.5c0 -16.667 7.83301 -29.5 23.5 -38.5s38.5 -13.833 68.5 -14.5l82 -3z" />
    <glyph glyph-name="ordmasculine" unicode="&#xba;" horiz-adv-x="932" 
d="M819 1153c0 -63.333 -10.835 -125.001 -32.502 -185.001s-52.5 -113 -92.5 -159c-43.333 -50 -94.5 -88.5 -153.5 -115.5s-121.167 -40.5 -186.5 -40.5c-97.333 0 -176.166 30.667 -236.499 92s-90.5 142 -90.5 242c0 76.667 14.167 147.834 42.5 213.501
s69.5 122.167 123.5 169.5c42 38 88.333 66.667 139 86s105.334 29 164.001 29c98 0 176.333 -30.167 235 -90.5s88 -140.833 88 -241.5zM368.998 730.999c39.333 0 75.6689 11.502 109.002 34.502s63.666 57.167 90.999 102.5c26.667 44 47.667 94.667 63 152
s23 114.666 23 171.999c0 71.333 -14.167 125 -42.5 161s-70.833 54 -127.5 54c-79.333 0 -147.5 -42.333 -204.5 -127s-85.5 -189.667 -85.5 -315c0 -74.667 15.167 -132.334 45.5 -173.001s73.166 -61 128.499 -61z" />
    <glyph glyph-name="guillemotright" unicode="&#xbb;" horiz-adv-x="944" 
d="M750 512c-99.333 -70.667 -192.997 -144.332 -280.997 -220.999s-133.667 -115 -137 -115c-6.66699 0 -11.834 2 -15.501 6s-5.5 9.66699 -5.5 17c0 25.333 21.667 68.666 65 129.999s101.666 130 174.999 206c-40 78.667 -72.167 151.334 -96.5 218.001
s-36.5 112 -36.5 136c0 9.33301 2.16699 16.833 6.5 22.5s10.166 8.5 17.499 8.5c8.66699 0 44 -46.833 106 -140.5s129.333 -182.834 202 -267.501zM424.003 512.002c-99.333 -70.667 -192.668 -144.334 -280.001 -221.001s-132.666 -115 -135.999 -115
c-7.33301 0 -12.833 2 -16.5 6s-5.5 9.66699 -5.5 17c0 25.333 21.667 68.666 65 129.999s101.333 130 174 206c-39.333 78.667 -71.333 151.334 -96 218.001s-37 112 -37 136c0 9.33301 2.5 16.833 7.5 22.5s11.5 8.5 19.5 8.5s42.667 -46.667 104 -140
s128.333 -182.666 201 -267.999z" />
    <glyph glyph-name="onequarter" unicode="&#xbc;" horiz-adv-x="1745" 
d="M1434 309l112 383l-389 -383h277zM1653 0l-451 0.000976562l19 66h39c41.333 0 70.666 5.66699 87.999 17s32.333 38.333 45 81l14 51h-363v76l560 553h106l-156 -535h154l-27 -94h-153l-15 -52c-3.33301 -10 -5.83301 -19.833 -7.5 -29.5s-2.5 -18.834 -2.5 -27.501
c0 -15.333 5.83301 -25.833 17.5 -31.5s33.834 -8.5 66.501 -8.5h86zM360 -46.999l904 1554h120l-901 -1554h-123zM492 647.001l-467.002 -0.00292969l18 66l44 4c38.667 2 67.334 9.33301 86.001 22s33.334 36.667 44.001 72l111 369c4 16.667 7.33301 32.334 10 47.001
s4 26.334 4 35.001c0 10 -5.16699 17.5 -15.5 22.5s-25.5 7.5 -45.5 7.5h-109l19 66c56.667 2 108.5 13.667 155.5 35s91.833 54 134.5 98h66l-197 -680c-2.66699 -7.33301 -4.66699 -14.833 -6 -22.5s-2 -15.167 -2 -22.5c0 -15.333 7.5 -27.166 22.5 -35.499
s36.833 -12.833 65.5 -13.5l80 -4z" />
    <glyph glyph-name="onehalf" unicode="&#xbd;" horiz-adv-x="1745" 
d="M1035 0c0.666992 64.667 18.499 123.672 53.499 177.005s103.833 119.333 206.5 198l42 33c122 92.667 183 171 183 235c0 40 -12.5 72.167 -37.5 96.5s-57.833 36.5 -98.5 36.5c-21.333 0 -38.5 -3.5 -51.5 -10.5s-19.5 -16.5 -19.5 -28.5
c0 -2 4.33301 -10.833 13 -26.5s13 -30.5 13 -44.5c0 -20.667 -8.66699 -37.834 -26 -51.501s-39.333 -20.5 -66 -20.5c-28 0 -50.333 7.83301 -67 23.5s-25 36.5 -25 62.5c0 44.667 23.667 83.167 71 115.5s105.666 48.5 174.999 48.5
c80.667 0 146.834 -20.333 198.501 -61s77.5 -92.667 77.5 -156c0 -46.667 -14.833 -87.834 -44.5 -123.501s-93.834 -81.834 -192.501 -138.501c-101.333 -58.667 -172.166 -106.334 -212.499 -143.001s-66.5 -74.334 -78.5 -113.001h235
c32.667 0 55.334 3.83301 68.001 11.5s27.667 25.5 45 53.5l23 35h77l-81 -209h-481zM359.999 -46.9951l904 1554h120l-901 -1554h-123zM491.999 647.005l-467.002 -0.00292969l18 66l44 4c38.667 2 67.334 9.33301 86.001 22s33.334 36.667 44.001 72l111 369
c4 16.667 7.33301 32.334 10 47.001s4 26.334 4 35.001c0 10 -5.16699 17.5 -15.5 22.5s-25.5 7.5 -45.5 7.5h-109l19 66c56.667 2 108.5 13.667 155.5 35s91.833 54 134.5 98h66l-197 -680c-2.66699 -7.33301 -4.66699 -14.833 -6 -22.5s-2 -15.167 -2 -22.5
c0 -15.333 7.5 -27.166 22.5 -35.499s36.833 -12.833 65.5 -13.5l80 -4z" />
    <glyph glyph-name="threequarters" unicode="&#xbe;" horiz-adv-x="1745" 
d="M1434 309l112 383l-389 -383h277zM1653 0l-451 0.000976562l19 66h39c41.333 0 70.666 5.66699 87.999 17s32.333 38.333 45 81l14 51h-363v76l560 553h106l-156 -535h154l-27 -94h-153l-15 -52c-3.33301 -10 -5.83301 -19.833 -7.5 -29.5s-2.5 -18.834 -2.5 -27.501
c0 -15.333 5.83301 -25.833 17.5 -31.5s33.834 -8.5 66.501 -8.5h86zM360 -46.999l904 1554h120l-901 -1554h-123zM242 1137l17.998 -0.000976562c69.333 0 123.833 15.333 163.5 46s59.5 72.667 59.5 126c0 38 -9.83301 67.667 -29.5 89s-47.167 32 -82.5 32
c-17.333 0 -31.666 -2.83301 -42.999 -8.5s-17 -12.5 -17 -20.5c0 -3.33301 3.16699 -10.5 9.5 -21.5s9.5 -20.167 9.5 -27.5c0 -22 -7.5 -39.167 -22.5 -51.5s-35.5 -18.5 -61.5 -18.5c-28.667 0 -50.834 6.66699 -66.501 20s-23.5 32 -23.5 56c0 38 19.833 69.667 59.5 95
s90.834 38 153.501 38c78.667 0 141.334 -18 188.001 -54s70 -84.333 70 -145c0 -52.667 -20 -95.167 -60 -127.5s-100.667 -55.166 -182 -68.499c57.333 -14.667 100.666 -38.667 129.999 -72s44 -75.666 44 -126.999c0 -77.333 -29.833 -141.666 -89.5 -192.999
s-134.167 -77 -223.5 -77c-69.333 0 -125.666 14.833 -168.999 44.5s-65 67.167 -65 112.5c0 29.333 8.66699 53.166 26 71.499s39.333 27.5 66 27.5c28 0 50.5 -6.83301 67.5 -20.5s25.5 -31.5 25.5 -53.5c0 -28 -16 -51.333 -48 -70c-8 -4.66699 -12 -8 -12 -10
c0 -8 9.5 -16.5 28.5 -25.5s40.167 -13.5 63.5 -13.5c51.333 0 94.333 22.5 129 67.5s52 101.167 52 168.5c0 45.333 -14 79.166 -42 101.499s-70 33.5 -126 33.5h-17z" />
    <glyph glyph-name="questiondown" unicode="&#xbf;" horiz-adv-x="1067" 
d="M637 1118l92.001 -21.999c-11.333 -106.667 -36.833 -198.667 -76.5 -276s-106.834 -159.666 -201.501 -246.999l-7 -5c-96.667 -90 -145 -183.667 -145 -281c0 -64 20.333 -115.833 61 -155.5s94 -59.5 160 -59.5c46 0 85.833 9.66699 119.5 29s50.5 40.333 50.5 63
c0 2.66699 -13.333 18.5 -40 47.5s-40 62.833 -40 101.5c0 36 12.333 64.5 37 85.5s57.334 31.5 98.001 31.5c44.667 0 79.167 -13.833 103.5 -41.5s36.5 -67.167 36.5 -118.5c0 -84.667 -36.833 -157.334 -110.5 -218.001s-163.834 -91 -270.501 -91
c-119.333 0 -217.5 34.667 -294.5 104s-115.5 157.666 -115.5 264.999c0 71.333 17.5 134.833 52.5 190.5s93.5 111.5 175.5 167.5c8.66699 6 23 15.333 43 28c68.667 42.667 119 82.667 151 120c27.333 30.667 50.833 69 70.5 115s36.5 101.667 50.5 167zM877.001 1368
c0 -38.667 -13.168 -71.167 -39.501 -97.5s-59.166 -39.5 -98.499 -39.5c-38.667 0 -71.167 13.167 -97.5 39.5s-39.5 58.833 -39.5 97.5s13.333 71.5 40 98.5s59 40.5 97 40.5s70.5 -13.5 97.5 -40.5s40.5 -59.833 40.5 -98.5z" />
    <glyph glyph-name="Agrave" unicode="&#xc0;" horiz-adv-x="1622" 
d="M563 643h461l-98 635zM1284 332c12.667 -79.333 33.667 -131.165 63 -155.498s82 -38.833 158 -43.5l-35 -133h-626l33 133c80 6 133.333 17.667 160 35s40 46 40 86c0 12.667 -0.833008 27.667 -2.5 45s-4.16699 37 -7.5 59l-23 152h-559l-108 -211
c-8.66699 -16.667 -15.667 -33.667 -21 -51s-8 -31 -8 -41c0 -26 13.667 -44.5 41 -55.5s77 -17.167 149 -18.5l-32 -133h-543l35 133c44 9.33301 81 26.166 111 50.499s62.667 66.166 98 125.499l667 1166h230zM1190 1620h-79.999l-266 196
c-19.333 14.667 -34 29.167 -44 43.5s-15 28.5 -15 42.5c0 22 7.16699 40.167 21.5 54.5s32.5 21.5 54.5 21.5c14 0 28.167 -4.33301 42.5 -13s28.166 -20.667 41.499 -36z" />
    <glyph glyph-name="Aacute" unicode="&#xc1;" horiz-adv-x="1622" 
d="M563 643h461l-98 635zM1284 332c12.667 -79.333 33.667 -131.165 63 -155.498s82 -38.833 158 -43.5l-35 -133h-626l33 133c80 6 133.333 17.667 160 35s40 46 40 86c0 12.667 -0.833008 27.667 -2.5 45s-4.16699 37 -7.5 59l-23 152h-559l-108 -211
c-8.66699 -16.667 -15.667 -33.667 -21 -51s-8 -31 -8 -41c0 -26 13.667 -44.5 41 -55.5s77 -17.167 149 -18.5l-32 -133h-543l35 133c44 9.33301 81 26.166 111 50.499s62.667 66.166 98 125.499l667 1166h230zM930 1620l-88 -0.000976562l293 295
c20.667 20.667 40.667 36.334 60 47.001s37 16 53 16c23.333 0 42.5 -7.66699 57.5 -23s22.5 -35 22.5 -59c0 -15.333 -5.5 -29.5 -16.5 -42.5s-30.833 -28.167 -59.5 -45.5z" />
    <glyph glyph-name="Acircumflex" unicode="&#xc2;" horiz-adv-x="1622" 
d="M563 643h461l-98 635zM1284 332c12.667 -79.333 33.667 -131.165 63 -155.498s82 -38.833 158 -43.5l-35 -133h-626l33 133c80 6 133.333 17.667 160 35s40 46 40 86c0 12.667 -0.833008 27.667 -2.5 45s-4.16699 37 -7.5 59l-23 152h-559l-108 -211
c-8.66699 -16.667 -15.667 -33.667 -21 -51s-8 -31 -8 -41c0 -26 13.667 -44.5 41 -55.5s77 -17.167 149 -18.5l-32 -133h-543l35 133c44 9.33301 81 26.166 111 50.499s62.667 66.166 98 125.499l667 1166h230zM1295 1620h-74l-166 194l-252 -194h-96l309 348h113z" />
    <glyph glyph-name="Atilde" unicode="&#xc3;" horiz-adv-x="1622" 
d="M563 643h461l-98 635zM1284 332c12.667 -79.333 33.667 -131.165 63 -155.498s82 -38.833 158 -43.5l-35 -133h-626l33 133c80 6 133.333 17.667 160 35s40 46 40 86c0 12.667 -0.833008 27.667 -2.5 45s-4.16699 37 -7.5 59l-23 152h-559l-108 -211
c-8.66699 -16.667 -15.667 -33.667 -21 -51s-8 -31 -8 -41c0 -26 13.667 -44.5 41 -55.5s77 -17.167 149 -18.5l-32 -133h-543l35 133c44 9.33301 81 26.166 111 50.499s62.667 66.166 98 125.499l667 1166h230zM1346 1896c-13.333 -66 -36.168 -116.333 -68.501 -151
s-72.833 -52 -121.5 -52c-11.333 0 -23.166 1 -35.499 3s-26.5 5.33301 -42.5 10l-131 32c-16 4 -28.667 6.83301 -38 8.5s-16.666 2.5 -21.999 2.5c-22 0 -39.5 -6.5 -52.5 -19.5s-22.167 -32.5 -27.5 -58.5h-61c9.33301 66 29.166 116 59.499 150s70.5 51 120.5 51
c10 -0.666992 20.333 -1.66699 31 -3s24.334 -4 41.001 -8l128 -34c14.667 -4 26.667 -6.83301 36 -8.5s16.666 -2.5 21.999 -2.5c28 0 49.833 6.16699 65.5 18.5s27.5 32.833 35.5 61.5h61z" />
    <glyph glyph-name="Adieresis" unicode="&#xc4;" horiz-adv-x="1622" 
d="M563 643h461l-98 635zM1284 332c12.667 -79.333 33.667 -131.165 63 -155.498s82 -38.833 158 -43.5l-35 -133h-626l33 133c80 6 133.333 17.667 160 35s40 46 40 86c0 12.667 -0.833008 27.667 -2.5 45s-4.16699 37 -7.5 59l-23 152h-559l-108 -211
c-8.66699 -16.667 -15.667 -33.667 -21 -51s-8 -31 -8 -41c0 -26 13.667 -44.5 41 -55.5s77 -17.167 149 -18.5l-32 -133h-543l35 133c44 9.33301 81 26.166 111 50.499s62.667 66.166 98 125.499l667 1166h230zM1115 1781c0 28 10.833 52.8311 32.5 74.498
s46.167 32.5 73.5 32.5c29.333 0 54.833 -10.5 76.5 -31.5s32.5 -46.167 32.5 -75.5c0 -31.333 -10.333 -57.166 -31 -77.499s-46.667 -30.5 -78 -30.5c-30 0 -55.167 10.333 -75.5 31s-30.5 46.334 -30.5 77.001zM762 1781c0 28 10.833 52.8311 32.5 74.498
s46.5 32.5 74.5 32.5c29.333 0 54.666 -10.5 75.999 -31.5s32 -46.167 32 -75.5c0 -31.333 -10.167 -57.166 -30.5 -77.499s-46.166 -30.5 -77.499 -30.5c-30.667 0 -56.167 10.333 -76.5 31s-30.5 46.334 -30.5 77.001z" />
    <glyph glyph-name="Aring" unicode="&#xc5;" horiz-adv-x="1622" 
d="M881 1722c0 -41.333 14.333 -76.166 43 -104.499s64 -42.5 106 -42.5c41.333 0 76.333 14.167 105 42.5s43 63.166 43 104.499c0 42 -14.333 77.833 -43 107.5s-63.667 44.5 -105 44.5c-42 0 -77.333 -14.667 -106 -44s-43 -65.333 -43 -108zM780 1724
c0 69.333 24.167 128 72.5 176s107.5 72 177.5 72s128.833 -23.833 176.5 -71.5s71.5 -106.5 71.5 -176.5c0 -69.333 -23.833 -127.833 -71.5 -175.5s-106.5 -71.5 -176.5 -71.5s-129.167 23.833 -177.5 71.5s-72.5 106.167 -72.5 175.5zM1284 332
c12.667 -79.333 33.667 -131.165 63 -155.498s82 -38.833 158 -43.5l-35 -133h-626l33 133c80 6 133.333 17.667 160 35s40 46 40 86c0 12.667 -0.833008 27.667 -2.5 45s-4.16699 37 -7.5 59l-23 152h-559l-108 -211c-8.66699 -16.667 -15.667 -33.667 -21 -51
s-8 -31 -8 -41c0 -26 13.667 -44.5 41 -55.5s77 -17.167 149 -18.5l-32 -133h-543l35 133c44 9.33301 81 26.166 111 50.499s62.667 66.166 98 125.499l641 1118h262zM563 643.001h461l-98 635z" />
    <glyph glyph-name="AE" unicode="&#xc6;" horiz-adv-x="2181" 
d="M727 0l33 133.004h18c46.667 0 81.5 9 104.5 27s40.167 49.333 51.5 94l67 272h-489l-147 -198c-14.667 -19.333 -26.334 -39.5 -35.001 -60.5s-13 -37.833 -13 -50.5c0 -18.667 7.66699 -34.167 23 -46.5s43.333 -24.833 84 -37.5l-35 -133h-461l35 133
c30.667 6 59.334 17.667 86.001 35s50.667 40 72 68l665 894c14.667 20 25.834 40.667 33.501 62s11.5 41.666 11.5 60.999c0 29.333 -11.833 50.166 -35.5 62.499s-72.5 21.166 -146.5 26.499l35 133h1432l-64 -478h-123l2.5 82.5c1 32.333 1.5 52.166 1.5 59.499
c0 74.667 -13.5 127 -40.5 157s-74.167 45 -141.5 45h-137c-76.667 0 -126.334 -8.16699 -149.001 -24.5s-40 -48.166 -52 -95.499l-96 -375h69c78.667 0 133 14.333 163 43s52.333 84 67 166h127l-148 -631h-127l6 35c11.333 68 17 111.667 17 131c0 46 -9.33301 78 -28 96
s-54.334 27 -107.001 27h-74l-102 -394c-5.33301 -20 -9.5 -38.333 -12.5 -55s-4.5 -30.334 -4.5 -41.001c0 -34 10.5 -57.5 31.5 -70.5s66.5 -19.5 136.5 -19.5h111c124.667 0 216.834 25.333 276.501 76s109.5 145 149.5 283h137l-154 -492h-1124zM608 645.004h423.998
l164 647c0.666992 2 1.16699 4 1.5 6s0.5 5 0.5 9c0 10.667 -3.5 20.167 -10.5 28.5s-15.167 12.5 -24.5 12.5s-20.666 -4.66699 -33.999 -14s-25.666 -22 -36.999 -38z" />
    <glyph glyph-name="Ccedilla" unicode="&#xc7;" horiz-adv-x="1554" 
d="M1319 854v14c0 164 -34.667 289.333 -104 376s-169.333 130 -300 130c-66 0 -130 -16.667 -192 -50s-116.667 -80.666 -164 -141.999c-56.667 -74.667 -101.834 -169.834 -135.501 -285.501s-50.5 -235.5 -50.5 -359.5c0 -137.333 34.167 -245.166 102.5 -323.499
s161.833 -117.5 280.5 -117.5c86.667 0 167 26.333 241 79s143 133 207 241l131 -41c-62 -134 -144.5 -236.5 -247.5 -307.5s-220.5 -106.5 -352.5 -106.5c-190 0 -341.5 57.667 -454.5 173s-169.5 269.333 -169.5 462c0 112 20 222.667 60 332s97.667 211 173 305
c72.667 88.667 157.834 157.5 255.501 206.5s198.834 73.5 303.501 73.5c39.333 0 78.166 -3.83301 116.499 -11.5s87.5 -22.834 147.5 -45.501c22 -8 49.833 -21.167 83.5 -39.5s56.5 -27.5 68.5 -27.5c19.333 0 35.833 9.66699 49.5 29s24.5 49 32.5 89h129l-82 -653h-129
zM334 -379l36.001 89.999c40 -25.333 80 -44.666 120 -57.999s77.333 -20 112 -20c37.333 0 65.5 7.66699 84.5 23s28.5 38 28.5 68c0 27.333 -9 48.5 -27 63.5s-44 22.5 -78 22.5c-9.33301 0 -21.333 -0.833008 -36 -2.5s-35.334 -4.5 -62.001 -8.5l65 201h66l-37 -115
c7.33301 1.33301 15.333 2.33301 24 3s21 1 37 1c60 0 106.5 -14.5 139.5 -43.5s49.5 -69.5 49.5 -121.5c0 -56.667 -19.667 -100.667 -59 -132s-94.666 -47 -165.999 -47c-38 0 -81.333 6.33301 -130 19s-104.334 31.667 -167.001 57z" />
    <glyph glyph-name="Egrave" unicode="&#xc8;" horiz-adv-x="1554" 
d="M0 0l33.001 132.999h18c46 0 80.333 8.83301 103 26.5s39.667 49.167 51 94.5l235 901c4 16 7.16699 32.5 9.5 49.5s3.5 33.833 3.5 50.5c0 31.333 -12.333 53.5 -37 66.5s-67 19.5 -127 19.5h-19l33 134h1180l-70 -478h-135c0.666992 16 1.33398 36.667 2.00098 62
c1.33301 38.667 2 63.334 2 74.001c0 78 -14.833 132.167 -44.5 162.5s-81.834 45.5 -156.501 45.5h-174c-83.333 0 -137.833 -8.33301 -163.5 -25s-44.834 -48.334 -57.501 -95.001l-96 -375h92c86 0 145.5 14.5 178.5 43.5s57.5 84.167 73.5 165.5h139l-162 -631h-139
c7.33301 36.667 13 69.5 17 98.5s6 54.167 6 75.5c0 42.667 -10.333 72.5 -31 89.5s-59.667 25.5 -117 25.5h-92l-100 -394c-6.66699 -23.333 -11.5 -42.666 -14.5 -57.999s-4.5 -28 -4.5 -38c0 -34 11.333 -57.5 34 -70.5s73 -19.5 151 -19.5h122
c138 0 239.667 25.667 305 77s119.333 145.333 162 282h152l-168 -492h-1194zM1155 1620h-79.999l-266 196c-19.333 14.667 -34 29.167 -44 43.5s-15 28.5 -15 42.5c0 22 7.16699 40.167 21.5 54.5s32.5 21.5 54.5 21.5c14 0 28.167 -4.33301 42.5 -13
s28.166 -20.667 41.499 -36z" />
    <glyph glyph-name="Eacute" unicode="&#xc9;" horiz-adv-x="1554" 
d="M0 0l33.001 132.999h18c46 0 80.333 8.83301 103 26.5s39.667 49.167 51 94.5l235 901c4 16 7.16699 32.5 9.5 49.5s3.5 33.833 3.5 50.5c0 31.333 -12.333 53.5 -37 66.5s-67 19.5 -127 19.5h-19l33 134h1180l-70 -478h-135c0.666992 16 1.33398 36.667 2.00098 62
c1.33301 38.667 2 63.334 2 74.001c0 78 -14.833 132.167 -44.5 162.5s-81.834 45.5 -156.501 45.5h-174c-83.333 0 -137.833 -8.33301 -163.5 -25s-44.834 -48.334 -57.501 -95.001l-96 -375h92c86 0 145.5 14.5 178.5 43.5s57.5 84.167 73.5 165.5h139l-162 -631h-139
c7.33301 36.667 13 69.5 17 98.5s6 54.167 6 75.5c0 42.667 -10.333 72.5 -31 89.5s-59.667 25.5 -117 25.5h-92l-100 -394c-6.66699 -23.333 -11.5 -42.666 -14.5 -57.999s-4.5 -28 -4.5 -38c0 -34 11.333 -57.5 34 -70.5s73 -19.5 151 -19.5h122
c138 0 239.667 25.667 305 77s119.333 145.333 162 282h152l-168 -492h-1194zM895.001 1620l-88 -0.000976562l293 295c20.667 20.667 40.667 36.334 60 47.001s37 16 53 16c23.333 0 42.5 -7.66699 57.5 -23s22.5 -35 22.5 -59c0 -15.333 -5.5 -29.5 -16.5 -42.5
s-30.833 -28.167 -59.5 -45.5z" />
    <glyph glyph-name="Ecircumflex" unicode="&#xca;" horiz-adv-x="1554" 
d="M0 0l33.001 132.999h18c46 0 80.333 8.83301 103 26.5s39.667 49.167 51 94.5l235 901c4 16 7.16699 32.5 9.5 49.5s3.5 33.833 3.5 50.5c0 31.333 -12.333 53.5 -37 66.5s-67 19.5 -127 19.5h-19l33 134h1180l-70 -478h-135c0.666992 16 1.33398 36.667 2.00098 62
c1.33301 38.667 2 63.334 2 74.001c0 78 -14.833 132.167 -44.5 162.5s-81.834 45.5 -156.501 45.5h-174c-83.333 0 -137.833 -8.33301 -163.5 -25s-44.834 -48.334 -57.501 -95.001l-96 -375h92c86 0 145.5 14.5 178.5 43.5s57.5 84.167 73.5 165.5h139l-162 -631h-139
c7.33301 36.667 13 69.5 17 98.5s6 54.167 6 75.5c0 42.667 -10.333 72.5 -31 89.5s-59.667 25.5 -117 25.5h-92l-100 -394c-6.66699 -23.333 -11.5 -42.666 -14.5 -57.999s-4.5 -28 -4.5 -38c0 -34 11.333 -57.5 34 -70.5s73 -19.5 151 -19.5h122
c138 0 239.667 25.667 305 77s119.333 145.333 162 282h152l-168 -492h-1194zM1260 1620h-74l-166 194l-252 -194h-96l309 348h113z" />
    <glyph glyph-name="Edieresis" unicode="&#xcb;" horiz-adv-x="1554" 
d="M0 0l33.001 132.999h18c46 0 80.333 8.83301 103 26.5s39.667 49.167 51 94.5l235 901c4 16 7.16699 32.5 9.5 49.5s3.5 33.833 3.5 50.5c0 31.333 -12.333 53.5 -37 66.5s-67 19.5 -127 19.5h-19l33 134h1180l-70 -478h-135c0.666992 16 1.33398 36.667 2.00098 62
c1.33301 38.667 2 63.334 2 74.001c0 78 -14.833 132.167 -44.5 162.5s-81.834 45.5 -156.501 45.5h-174c-83.333 0 -137.833 -8.33301 -163.5 -25s-44.834 -48.334 -57.501 -95.001l-96 -375h92c86 0 145.5 14.5 178.5 43.5s57.5 84.167 73.5 165.5h139l-162 -631h-139
c7.33301 36.667 13 69.5 17 98.5s6 54.167 6 75.5c0 42.667 -10.333 72.5 -31 89.5s-59.667 25.5 -117 25.5h-92l-100 -394c-6.66699 -23.333 -11.5 -42.666 -14.5 -57.999s-4.5 -28 -4.5 -38c0 -34 11.333 -57.5 34 -70.5s73 -19.5 151 -19.5h122
c138 0 239.667 25.667 305 77s119.333 145.333 162 282h152l-168 -492h-1194zM1080 1781c0 28 10.833 52.8311 32.5 74.498s46.167 32.5 73.5 32.5c29.333 0 54.833 -10.5 76.5 -31.5s32.5 -46.167 32.5 -75.5c0 -31.333 -10.333 -57.166 -31 -77.499
s-46.667 -30.5 -78 -30.5c-30 0 -55.167 10.333 -75.5 31s-30.5 46.334 -30.5 77.001zM727.001 1781c0 28 10.833 52.8311 32.5 74.498s46.5 32.5 74.5 32.5c29.333 0 54.666 -10.5 75.999 -31.5s32 -46.167 32 -75.5c0 -31.333 -10.167 -57.166 -30.5 -77.499
s-46.166 -30.5 -77.499 -30.5c-30.667 0 -56.167 10.333 -76.5 31s-30.5 46.334 -30.5 77.001z" />
    <glyph glyph-name="Igrave" unicode="&#xcc;" horiz-adv-x="891" 
d="M455 319c-6.66699 -23.333 -11.5 -42.665 -14.5 -57.998s-4.5 -28 -4.5 -38c0 -32.667 11.5 -55.834 34.5 -69.501s62.833 -20.5 119.5 -20.5h31l-33 -133h-588l33 133h18c46 0 80.333 8.83301 103 26.5s39.667 49.167 51 94.5l235 901c4 16 7.16699 32.5 9.5 49.5
s3.5 33.833 3.5 50.5c0 31.333 -12.333 53.5 -37 66.5s-67 19.5 -127 19.5h-19l33 134h592l-35 -134h-10c-48.667 0 -85.167 -8.83301 -109.5 -26.5s-42.5 -48.834 -54.5 -93.501zM823 1620h-79.999l-266 196c-19.333 14.667 -34 29.167 -44 43.5s-15 28.5 -15 42.5
c0 22 7.16699 40.167 21.5 54.5s32.5 21.5 54.5 21.5c14 0 28.167 -4.33301 42.5 -13s28.166 -20.667 41.499 -36z" />
    <glyph glyph-name="Iacute" unicode="&#xcd;" horiz-adv-x="891" 
d="M455 319c-6.66699 -23.333 -11.5 -42.665 -14.5 -57.998s-4.5 -28 -4.5 -38c0 -32.667 11.5 -55.834 34.5 -69.501s62.833 -20.5 119.5 -20.5h31l-33 -133h-588l33 133h18c46 0 80.333 8.83301 103 26.5s39.667 49.167 51 94.5l235 901c4 16 7.16699 32.5 9.5 49.5
s3.5 33.833 3.5 50.5c0 31.333 -12.333 53.5 -37 66.5s-67 19.5 -127 19.5h-19l33 134h592l-35 -134h-10c-48.667 0 -85.167 -8.83301 -109.5 -26.5s-42.5 -48.834 -54.5 -93.501zM563 1620l-88 -0.000976562l293 295c20.667 20.667 40.667 36.334 60 47.001s37 16 53 16
c23.333 0 42.5 -7.66699 57.5 -23s22.5 -35 22.5 -59c0 -15.333 -5.5 -29.5 -16.5 -42.5s-30.833 -28.167 -59.5 -45.5z" />
    <glyph glyph-name="Icircumflex" unicode="&#xce;" horiz-adv-x="891" 
d="M455 319c-6.66699 -23.333 -11.5 -42.665 -14.5 -57.998s-4.5 -28 -4.5 -38c0 -32.667 11.5 -55.834 34.5 -69.501s62.833 -20.5 119.5 -20.5h31l-33 -133h-588l33 133h18c46 0 80.333 8.83301 103 26.5s39.667 49.167 51 94.5l235 901c4 16 7.16699 32.5 9.5 49.5
s3.5 33.833 3.5 50.5c0 31.333 -12.333 53.5 -37 66.5s-67 19.5 -127 19.5h-19l33 134h592l-35 -134h-10c-48.667 0 -85.167 -8.83301 -109.5 -26.5s-42.5 -48.834 -54.5 -93.501zM928 1620h-74l-166 194l-252 -194h-96l309 348h113z" />
    <glyph glyph-name="Idieresis" unicode="&#xcf;" horiz-adv-x="891" 
d="M455 319c-6.66699 -23.333 -11.5 -42.665 -14.5 -57.998s-4.5 -28 -4.5 -38c0 -32.667 11.5 -55.834 34.5 -69.501s62.833 -20.5 119.5 -20.5h31l-33 -133h-588l33 133h18c46 0 80.333 8.83301 103 26.5s39.667 49.167 51 94.5l235 901c4 16 7.16699 32.5 9.5 49.5
s3.5 33.833 3.5 50.5c0 31.333 -12.333 53.5 -37 66.5s-67 19.5 -127 19.5h-19l33 134h592l-35 -134h-10c-48.667 0 -85.167 -8.83301 -109.5 -26.5s-42.5 -48.834 -54.5 -93.501zM748 1781c0 28 10.833 52.8311 32.5 74.498s46.167 32.5 73.5 32.5
c29.333 0 54.833 -10.5 76.5 -31.5s32.5 -46.167 32.5 -75.5c0 -31.333 -10.333 -57.166 -31 -77.499s-46.667 -30.5 -78 -30.5c-30 0 -55.167 10.333 -75.5 31s-30.5 46.334 -30.5 77.001zM395 1781c0 28 10.833 52.8311 32.5 74.498s46.5 32.5 74.5 32.5
c29.333 0 54.666 -10.5 75.999 -31.5s32 -46.167 32 -75.5c0 -31.333 -10.167 -57.166 -30.5 -77.499s-46.166 -30.5 -77.499 -30.5c-30.667 0 -56.167 10.333 -76.5 31s-30.5 46.334 -30.5 77.001z" />
    <glyph glyph-name="Eth" unicode="&#xd0;" horiz-adv-x="1698" 
d="M8 0l34.999 133h18c46.667 0 81.167 8.83301 103.5 26.5s39.166 49.167 50.499 94.5l117 451h-285l35 124h280l87 326c4 16 7 32.5 9 49.5s3 33.833 3 50.5c0 31.333 -12.333 53.5 -37 66.5s-67 19.5 -127 19.5h-18l34 134h555c111.333 0 195.333 -5 252 -15
s107.334 -26.333 152.001 -49c94.667 -48.667 169.834 -122.5 225.501 -221.5s83.5 -209.5 83.5 -331.5c0 -138 -27.833 -267.833 -83.5 -389.5s-134.167 -224.5 -235.5 -308.5c-66 -55.333 -141.167 -95.833 -225.5 -121.5s-184.833 -38.5 -301.5 -38.5h-727zM677.999 1155
l-83.999 -326h352l-35 -124h-350l-98 -385c-6 -24.667 -10.333 -44 -13 -58s-4 -25.667 -4 -35c0 -38 18.833 -64.833 56.5 -80.5s104.167 -23.5 199.5 -23.5c80.667 0 154.5 14 221.5 42s125.167 69.333 174.5 124c68 74.667 122.5 170.5 163.5 287.5
s61.5 236.833 61.5 359.5c0 128.667 -33.5 229.167 -100.5 301.5s-160.5 108.5 -280.5 108.5c-70 0 -127.333 -16.333 -172 -49s-75.334 -80 -92.001 -142z" />
    <glyph glyph-name="Ntilde" unicode="&#xd1;" horiz-adv-x="1696" 
d="M365 319c-6 -19.333 -10.333 -37.167 -13 -53.5s-4 -30.5 -4 -42.5c0 -32.667 11 -55.834 33 -69.501s59.667 -20.5 113 -20.5h26l-31 -133h-489l33 133h18c46 0 80.333 8.83301 103 26.5s39.667 49.167 51 94.5l235 901c4 16 7.16699 32.5 9.5 49.5s3.5 33.833 3.5 50.5
c0 31.333 -12.333 53.5 -37 66.5s-67 19.5 -127 19.5h-19l33 134h453l389 -1076l196 756c6.66699 24.667 11.5 44.834 14.5 60.501s4.5 27.5 4.5 35.5c0 32.667 -11.167 55.834 -33.5 69.501s-60.5 20.5 -114.5 20.5h-26l31 134h491l-35 -134h-18
c-46 0 -80.333 -8.83301 -103 -26.5s-39.667 -48.834 -51 -93.501l-317 -1221h-135l-451 1227zM1382 1896c-13.333 -66 -36.168 -116.333 -68.501 -151s-72.833 -52 -121.5 -52c-11.333 0 -23.166 1 -35.499 3s-26.5 5.33301 -42.5 10l-131 32
c-16 4 -28.667 6.83301 -38 8.5s-16.666 2.5 -21.999 2.5c-22 0 -39.5 -6.5 -52.5 -19.5s-22.167 -32.5 -27.5 -58.5h-61c9.33301 66 29.166 116 59.499 150s70.5 51 120.5 51c10 -0.666992 20.333 -1.66699 31 -3s24.334 -4 41.001 -8l128 -34
c14.667 -4 26.667 -6.83301 36 -8.5s16.666 -2.5 21.999 -2.5c28 0 49.833 6.16699 65.5 18.5s27.5 32.833 35.5 61.5h61z" />
    <glyph glyph-name="Ograve" unicode="&#xd2;" 
d="M373 537c0 -138.667 33.998 -246.498 101.998 -323.498s163 -115.5 285 -115.5c80 0 150.5 17.5 211.5 52.5s119.5 91.167 175.5 168.5c62 87.333 109.833 184.666 143.5 291.999s50.5 215.666 50.5 324.999c0 136 -33.667 243 -101 321s-159.666 117 -276.999 117
c-74 0 -143.167 -17 -207.5 -51s-122.833 -84.667 -175.5 -152c-63.333 -78 -113.666 -174.5 -150.999 -289.5s-56 -229.833 -56 -344.5zM1593 858.002c0 -118 -22.0029 -233 -66.0029 -345s-106.667 -212 -188 -300c-76.667 -84 -165.667 -147.333 -267 -190
s-213 -64 -335 -64c-189.333 0 -341 57.833 -455 173.5s-171 269.5 -171 461.5c0 112 20.333 221 61 327s99.334 203 176.001 291c86.667 98 182.834 171.667 288.501 221s219.834 74 342.501 74c186 0 334.833 -59.167 446.5 -177.5s167.5 -275.5 167.5 -471.5zM1231 1620
h-79.999l-266 196c-19.333 14.667 -34 29.167 -44 43.5s-15 28.5 -15 42.5c0 22 7.16699 40.167 21.5 54.5s32.5 21.5 54.5 21.5c14 0 28.167 -4.33301 42.5 -13s28.166 -20.667 41.499 -36z" />
    <glyph glyph-name="Oacute" unicode="&#xd3;" 
d="M373 537c0 -138.667 33.998 -246.498 101.998 -323.498s163 -115.5 285 -115.5c80 0 150.5 17.5 211.5 52.5s119.5 91.167 175.5 168.5c62 87.333 109.833 184.666 143.5 291.999s50.5 215.666 50.5 324.999c0 136 -33.667 243 -101 321s-159.666 117 -276.999 117
c-74 0 -143.167 -17 -207.5 -51s-122.833 -84.667 -175.5 -152c-63.333 -78 -113.666 -174.5 -150.999 -289.5s-56 -229.833 -56 -344.5zM1593 858.002c0 -118 -22.0029 -233 -66.0029 -345s-106.667 -212 -188 -300c-76.667 -84 -165.667 -147.333 -267 -190
s-213 -64 -335 -64c-189.333 0 -341 57.833 -455 173.5s-171 269.5 -171 461.5c0 112 20.333 221 61 327s99.334 203 176.001 291c86.667 98 182.834 171.667 288.501 221s219.834 74 342.501 74c186 0 334.833 -59.167 446.5 -177.5s167.5 -275.5 167.5 -471.5z
M970.995 1620l-88 -0.000976562l293 295c20.667 20.667 40.667 36.334 60 47.001s37 16 53 16c23.333 0 42.5 -7.66699 57.5 -23s22.5 -35 22.5 -59c0 -15.333 -5.5 -29.5 -16.5 -42.5s-30.833 -28.167 -59.5 -45.5z" />
    <glyph glyph-name="Ocircumflex" unicode="&#xd4;" 
d="M373 537c0 -138.667 33.998 -246.498 101.998 -323.498s163 -115.5 285 -115.5c80 0 150.5 17.5 211.5 52.5s119.5 91.167 175.5 168.5c62 87.333 109.833 184.666 143.5 291.999s50.5 215.666 50.5 324.999c0 136 -33.667 243 -101 321s-159.666 117 -276.999 117
c-74 0 -143.167 -17 -207.5 -51s-122.833 -84.667 -175.5 -152c-63.333 -78 -113.666 -174.5 -150.999 -289.5s-56 -229.833 -56 -344.5zM1593 858.002c0 -118 -22.0029 -233 -66.0029 -345s-106.667 -212 -188 -300c-76.667 -84 -165.667 -147.333 -267 -190
s-213 -64 -335 -64c-189.333 0 -341 57.833 -455 173.5s-171 269.5 -171 461.5c0 112 20.333 221 61 327s99.334 203 176.001 291c86.667 98 182.834 171.667 288.501 221s219.834 74 342.501 74c186 0 334.833 -59.167 446.5 -177.5s167.5 -275.5 167.5 -471.5zM1336 1620
h-74l-166 194l-252 -194h-96l309 348h113z" />
    <glyph glyph-name="Otilde" unicode="&#xd5;" 
d="M373 537c0 -138.667 33.998 -246.498 101.998 -323.498s163 -115.5 285 -115.5c80 0 150.5 17.5 211.5 52.5s119.5 91.167 175.5 168.5c62 87.333 109.833 184.666 143.5 291.999s50.5 215.666 50.5 324.999c0 136 -33.667 243 -101 321s-159.666 117 -276.999 117
c-74 0 -143.167 -17 -207.5 -51s-122.833 -84.667 -175.5 -152c-63.333 -78 -113.666 -174.5 -150.999 -289.5s-56 -229.833 -56 -344.5zM1593 858.002c0 -118 -22.0029 -233 -66.0029 -345s-106.667 -212 -188 -300c-76.667 -84 -165.667 -147.333 -267 -190
s-213 -64 -335 -64c-189.333 0 -341 57.833 -455 173.5s-171 269.5 -171 461.5c0 112 20.333 221 61 327s99.334 203 176.001 291c86.667 98 182.834 171.667 288.501 221s219.834 74 342.501 74c186 0 334.833 -59.167 446.5 -177.5s167.5 -275.5 167.5 -471.5zM1387 1896
c-13.333 -66 -36.168 -116.333 -68.501 -151s-72.833 -52 -121.5 -52c-11.333 0 -23.166 1 -35.499 3s-26.5 5.33301 -42.5 10l-131 32c-16 4 -28.667 6.83301 -38 8.5s-16.666 2.5 -21.999 2.5c-22 0 -39.5 -6.5 -52.5 -19.5s-22.167 -32.5 -27.5 -58.5h-61
c9.33301 66 29.166 116 59.499 150s70.5 51 120.5 51c10 -0.666992 20.333 -1.66699 31 -3s24.334 -4 41.001 -8l128 -34c14.667 -4 26.667 -6.83301 36 -8.5s16.666 -2.5 21.999 -2.5c28 0 49.833 6.16699 65.5 18.5s27.5 32.833 35.5 61.5h61z" />
    <glyph glyph-name="Odieresis" unicode="&#xd6;" 
d="M373 537c0 -138.667 33.998 -246.498 101.998 -323.498s163 -115.5 285 -115.5c80 0 150.5 17.5 211.5 52.5s119.5 91.167 175.5 168.5c62 87.333 109.833 184.666 143.5 291.999s50.5 215.666 50.5 324.999c0 136 -33.667 243 -101 321s-159.666 117 -276.999 117
c-74 0 -143.167 -17 -207.5 -51s-122.833 -84.667 -175.5 -152c-63.333 -78 -113.666 -174.5 -150.999 -289.5s-56 -229.833 -56 -344.5zM1593 858.002c0 -118 -22.0029 -233 -66.0029 -345s-106.667 -212 -188 -300c-76.667 -84 -165.667 -147.333 -267 -190
s-213 -64 -335 -64c-189.333 0 -341 57.833 -455 173.5s-171 269.5 -171 461.5c0 112 20.333 221 61 327s99.334 203 176.001 291c86.667 98 182.834 171.667 288.501 221s219.834 74 342.501 74c186 0 334.833 -59.167 446.5 -177.5s167.5 -275.5 167.5 -471.5zM1156 1781
c0 28 10.833 52.8311 32.5 74.498s46.167 32.5 73.5 32.5c29.333 0 54.833 -10.5 76.5 -31.5s32.5 -46.167 32.5 -75.5c0 -31.333 -10.333 -57.166 -31 -77.499s-46.667 -30.5 -78 -30.5c-30 0 -55.167 10.333 -75.5 31s-30.5 46.334 -30.5 77.001zM802.995 1781
c0 28 10.833 52.8311 32.5 74.498s46.5 32.5 74.5 32.5c29.333 0 54.666 -10.5 75.999 -31.5s32 -46.167 32 -75.5c0 -31.333 -10.167 -57.166 -30.5 -77.499s-46.166 -30.5 -77.499 -30.5c-30.667 0 -56.167 10.333 -76.5 31s-30.5 46.334 -30.5 77.001z" />
    <glyph glyph-name="multiply" unicode="&#xd7;" 
d="M391 1178l469 -469l469 469l98 -99l-469 -469l469 -469l-98 -96l-469 467l-469 -467l-98 96l469 469l-469 469z" />
    <glyph glyph-name="Oslash" unicode="&#xd8;" 
d="M195 -256l186.003 309c-86.667 52.667 -153.334 125.167 -200.001 217.5s-70 198.166 -70 317.499c0 114 20.333 224.5 61 331.5s99.334 204.5 176.001 292.5c85.333 96.667 181 170 287 220s218 75 336 75c40 0 81.167 -3.33301 123.5 -10s87.166 -17 134.499 -31
l102 174h127l-137 -223c90.667 -61.333 158.667 -138.666 204 -231.999s68 -202.333 68 -327c0 -122 -24 -241.5 -72 -358.5s-115.333 -219.167 -202 -306.5c-76.667 -78 -163.834 -136.833 -261.501 -176.5s-203.834 -59.5 -318.501 -59.5c-48 0 -94 4 -138 12
s-86.667 20.333 -128 37l-158 -262h-120zM1229 1266l-670.001 -1116c32 -18.667 63.667 -32.334 95 -41.001s64 -13 98 -13c80.667 0 152.334 17.833 215.001 53.5s122 92.167 178 169.5c62.667 88 111 185.333 145 292s51 214.334 51 323.001
c0 80 -9.16699 147.333 -27.5 202s-46.5 98 -84.5 130zM477.002 215l670.002 1116c-28 14.667 -56.333 25.5 -85 32.5s-58.334 10.5 -89.001 10.5c-77.333 0 -148.5 -16.667 -213.5 -50s-124.833 -84.333 -179.5 -153c-62.667 -79.333 -112.834 -175.5 -150.501 -288.5
s-56.5 -224.833 -56.5 -335.5c0 -78.667 8.66699 -145.834 26 -201.501s43.333 -99.167 78 -130.5z" />
    <glyph glyph-name="Ugrave" unicode="&#xd9;" 
d="M1325 506c-50 -187.333 -124.166 -325.001 -222.499 -413.001s-226.833 -132 -385.5 -132c-154 0 -274.5 36 -361.5 108s-130.5 171.333 -130.5 298c0 36 4.5 78.333 13.5 127s23.833 110.667 44.5 186l127 476c4.66699 18.667 8.16699 36.334 10.5 53.001s3.5 32 3.5 46
c0 32 -12.833 54.333 -38.5 67s-71.5 19 -137.5 19h-21l35 134h660l-35 -134h-41c-58.667 0 -100.834 -8.5 -126.501 -25.5s-44.834 -48.5 -57.501 -94.5l-166 -609c-14 -52 -24.333 -97.333 -31 -136s-10 -71.667 -10 -99c0 -84.667 26.667 -149.167 80 -193.5
s130.333 -66.5 231 -66.5c104.667 0 191.334 35.5 260.001 106.5s122.667 181.5 162 331.5l158 600l2 9c10.667 43.333 16 72.333 16 87c0 33.333 -11.5 56.666 -34.5 69.999s-64.833 20 -125.5 20h-35l35 134h518l-32 -134h-19c-46 0 -80.333 -8.66699 -103 -26
s-40 -48.666 -52 -93.999zM1231 1620h-79.999l-266 196c-19.333 14.667 -34 29.167 -44 43.5s-15 28.5 -15 42.5c0 22 7.16699 40.167 21.5 54.5s32.5 21.5 54.5 21.5c14 0 28.167 -4.33301 42.5 -13s28.166 -20.667 41.499 -36z" />
    <glyph glyph-name="Uacute" unicode="&#xda;" 
d="M1325 506c-50 -187.333 -124.166 -325.001 -222.499 -413.001s-226.833 -132 -385.5 -132c-154 0 -274.5 36 -361.5 108s-130.5 171.333 -130.5 298c0 36 4.5 78.333 13.5 127s23.833 110.667 44.5 186l127 476c4.66699 18.667 8.16699 36.334 10.5 53.001s3.5 32 3.5 46
c0 32 -12.833 54.333 -38.5 67s-71.5 19 -137.5 19h-21l35 134h660l-35 -134h-41c-58.667 0 -100.834 -8.5 -126.501 -25.5s-44.834 -48.5 -57.501 -94.5l-166 -609c-14 -52 -24.333 -97.333 -31 -136s-10 -71.667 -10 -99c0 -84.667 26.667 -149.167 80 -193.5
s130.333 -66.5 231 -66.5c104.667 0 191.334 35.5 260.001 106.5s122.667 181.5 162 331.5l158 600l2 9c10.667 43.333 16 72.333 16 87c0 33.333 -11.5 56.666 -34.5 69.999s-64.833 20 -125.5 20h-35l35 134h518l-32 -134h-19c-46 0 -80.333 -8.66699 -103 -26
s-40 -48.666 -52 -93.999zM971.001 1620l-88 -0.000976562l293 295c20.667 20.667 40.667 36.334 60 47.001s37 16 53 16c23.333 0 42.5 -7.66699 57.5 -23s22.5 -35 22.5 -59c0 -15.333 -5.5 -29.5 -16.5 -42.5s-30.833 -28.167 -59.5 -45.5z" />
    <glyph glyph-name="Ucircumflex" unicode="&#xdb;" 
d="M1325 506c-50 -187.333 -124.166 -325.001 -222.499 -413.001s-226.833 -132 -385.5 -132c-154 0 -274.5 36 -361.5 108s-130.5 171.333 -130.5 298c0 36 4.5 78.333 13.5 127s23.833 110.667 44.5 186l127 476c4.66699 18.667 8.16699 36.334 10.5 53.001s3.5 32 3.5 46
c0 32 -12.833 54.333 -38.5 67s-71.5 19 -137.5 19h-21l35 134h660l-35 -134h-41c-58.667 0 -100.834 -8.5 -126.501 -25.5s-44.834 -48.5 -57.501 -94.5l-166 -609c-14 -52 -24.333 -97.333 -31 -136s-10 -71.667 -10 -99c0 -84.667 26.667 -149.167 80 -193.5
s130.333 -66.5 231 -66.5c104.667 0 191.334 35.5 260.001 106.5s122.667 181.5 162 331.5l158 600l2 9c10.667 43.333 16 72.333 16 87c0 33.333 -11.5 56.666 -34.5 69.999s-64.833 20 -125.5 20h-35l35 134h518l-32 -134h-19c-46 0 -80.333 -8.66699 -103 -26
s-40 -48.666 -52 -93.999zM1336 1620h-74l-166 194l-252 -194h-96l309 348h113z" />
    <glyph glyph-name="Udieresis" unicode="&#xdc;" 
d="M1325 506c-50 -187.333 -124.166 -325.001 -222.499 -413.001s-226.833 -132 -385.5 -132c-154 0 -274.5 36 -361.5 108s-130.5 171.333 -130.5 298c0 36 4.5 78.333 13.5 127s23.833 110.667 44.5 186l127 476c4.66699 18.667 8.16699 36.334 10.5 53.001s3.5 32 3.5 46
c0 32 -12.833 54.333 -38.5 67s-71.5 19 -137.5 19h-21l35 134h660l-35 -134h-41c-58.667 0 -100.834 -8.5 -126.501 -25.5s-44.834 -48.5 -57.501 -94.5l-166 -609c-14 -52 -24.333 -97.333 -31 -136s-10 -71.667 -10 -99c0 -84.667 26.667 -149.167 80 -193.5
s130.333 -66.5 231 -66.5c104.667 0 191.334 35.5 260.001 106.5s122.667 181.5 162 331.5l158 600l2 9c10.667 43.333 16 72.333 16 87c0 33.333 -11.5 56.666 -34.5 69.999s-64.833 20 -125.5 20h-35l35 134h518l-32 -134h-19c-46 0 -80.333 -8.66699 -103 -26
s-40 -48.666 -52 -93.999zM1156 1781c0 28 10.833 52.8311 32.5 74.498s46.167 32.5 73.5 32.5c29.333 0 54.833 -10.5 76.5 -31.5s32.5 -46.167 32.5 -75.5c0 -31.333 -10.333 -57.166 -31 -77.499s-46.667 -30.5 -78 -30.5c-30 0 -55.167 10.333 -75.5 31
s-30.5 46.334 -30.5 77.001zM803.001 1781c0 28 10.833 52.8311 32.5 74.498s46.5 32.5 74.5 32.5c29.333 0 54.666 -10.5 75.999 -31.5s32 -46.167 32 -75.5c0 -31.333 -10.167 -57.166 -30.5 -77.499s-46.166 -30.5 -77.499 -30.5c-30.667 0 -56.167 10.333 -76.5 31
s-30.5 46.334 -30.5 77.001z" />
    <glyph glyph-name="Yacute" unicode="&#xdd;" horiz-adv-x="1440" 
d="M201 0l30.0029 133.003h39c58.667 0 101.667 8.83301 129 26.5s47.333 49.167 60 94.5l86 330l-209 575c-28 72.667 -57 121.167 -87 145.5s-72.667 36.5 -128 36.5h-23l35 134h594l-35 -134h-20c-45.333 0 -78.5 -6.16699 -99.5 -18.5s-31.5 -31.833 -31.5 -58.5
c0 -13.333 1.16699 -26.833 3.5 -40.5s5.83301 -26.834 10.5 -39.501l168 -463l315 383c23.333 28 41.166 54.5 53.499 79.5s18.5 46.833 18.5 65.5c0 32.667 -13.5 56.167 -40.5 70.5s-70.167 21.5 -129.5 21.5l33 134h581l-32 -134h-6c-38.667 0 -74 -8.83301 -106 -26.5
s-64.333 -46.834 -97 -87.501l-541 -662l-65 -246c-6.66699 -24 -11.5 -43.833 -14.5 -59.5s-4.5 -27.834 -4.5 -36.501c0 -34 11.667 -57.833 35 -71.5s65 -20.5 125 -20.5c5.33301 0 13.666 0.333008 24.999 1s20.666 1 27.999 1l-35 -133h-665zM837.003 1620
l-88 -0.000976562l293 295c20.667 20.667 40.667 36.334 60 47.001s37 16 53 16c23.333 0 42.5 -7.66699 57.5 -23s22.5 -35 22.5 -59c0 -15.333 -5.5 -29.5 -16.5 -42.5s-30.833 -28.167 -59.5 -45.5z" />
    <glyph glyph-name="Thorn" unicode="&#xde;" horiz-adv-x="1415" 
d="M489 475h177.001c138.667 0 242.5 27.667 311.5 83s103.5 139 103.5 251c0 74 -21.833 130 -65.5 168s-107.834 57 -192.501 57c-82 0 -136.667 -8.5 -164 -25.5s-47 -49.5 -59 -97.5zM668.001 1165l138.995 0.000976562c94.667 0 166.834 -4 216.501 -12
s93.5 -21 131.5 -39c60 -30 105.667 -71 137 -123s47 -112.667 47 -182c0 -74 -17 -142 -51 -204s-83.667 -115 -149 -159c-53.333 -36 -116.166 -62 -188.499 -78s-172.833 -24 -301.5 -24h-190c-8 -32.667 -13.833 -58.667 -17.5 -78s-5.5 -34.333 -5.5 -45
c0 -32.667 11.333 -55.834 34 -69.501s61.334 -20.5 116.001 -20.5c4.66699 0 12.167 0.333008 22.5 1s18.5 1 24.5 1l-37 -133h-596l33 133h18c46 0 80.333 8.83301 103 26.5s39.667 49.167 51 94.5l235 901c4 16 7.16699 32.5 9.5 49.5s3.5 33.833 3.5 50.5
c0 32 -13 54.333 -39 67s-74 19 -144 19l33 134h637l-33 -134h-33c-59.333 0 -101.166 -7.5 -125.499 -22.5s-45.166 -47.5 -62.499 -97.5z" />
    <glyph glyph-name="germandbls" unicode="&#xdf;" horiz-adv-x="1323" 
d="M678 985c4 -0.666992 8.66602 -1.16602 13.999 -1.49902s13 -0.5 23 -0.5c80 0 144.667 22.667 194 68s74 104.666 74 177.999c0 63.333 -20.333 114 -61 152s-94.667 57 -162 57c-74 0 -132.167 -23.667 -174.5 -71s-77.833 -130.333 -106.5 -249l-217 -917
c-50 -210.667 -110.333 -361.667 -181 -453s-160.334 -137 -269.001 -137c-65.333 0 -118 15.333 -158 46s-60 70.667 -60 120c0 38.667 10.5 69.834 31.5 93.501s48.833 35.5 83.5 35.5c32 0 57.833 -9.66699 77.5 -29s29.5 -44.666 29.5 -75.999
c0 -13.333 -3.16699 -26.666 -9.5 -39.999s-9.5 -20.333 -9.5 -21c0 -4.66699 4.66699 -9 14 -13s20.333 -6 33 -6c46 0 86.167 35 120.5 105s73.5 203 117.5 399l203 893c32.667 146.667 87.834 254.667 165.501 324s182.167 104 313.5 104
c128.667 0 231.834 -28.333 309.501 -85s116.5 -131.334 116.5 -224.001c0 -91.333 -30.333 -164.5 -91 -219.5s-152.667 -92.5 -276 -112.5c106.667 -25.333 187 -70.5 241 -135.5s81 -148.833 81 -251.5c0 -60.667 -8.5 -119.334 -25.5 -176.001s-42.167 -110 -75.5 -160
c-46.667 -70 -106 -125 -178 -165s-147.667 -60 -227 -60c-87.333 0 -157 17.667 -209 53s-78 82 -78 140c0 41.333 11.167 74.833 33.5 100.5s51.5 38.5 87.5 38.5c37.333 0 66.833 -10 88.5 -30s32.5 -47 32.5 -81c0 -14.667 -3.16699 -29.667 -9.5 -45
s-9.5 -23.333 -9.5 -24c0 -8.66699 6.33301 -17 19 -25s27 -12 43 -12c75.333 0 141.333 48.5 198 145.5s85 214.833 85 353.5c0 92.667 -21.333 162.167 -64 208.5s-109.667 73.166 -201 80.499z" />
    <glyph glyph-name="agrave" unicode="&#xe0;" horiz-adv-x="1360" 
d="M723 154c-58.667 -65.333 -118.329 -114.166 -178.996 -146.499s-122.667 -48.5 -186 -48.5c-94.667 0 -171.834 39.167 -231.501 117.5s-89.5 181.166 -89.5 308.499c0 94.667 16 188.334 48 281.001s77.333 176.667 136 252
c59.333 74.667 124.666 132.167 195.999 172.5s144 60.5 218 60.5c70 0 128.833 -18.667 176.5 -56s87.167 -95.666 118.5 -174.999l55 213h195l-234 -844l-1 -3c-11.333 -42.667 -17 -72.334 -17 -89.001c0 -22 5.16699 -39.5 15.5 -52.5s24.166 -19.5 41.499 -19.5
c28.667 0 59.167 17 91.5 51s66.166 84 101.499 150h114c-54 -120 -113.167 -210.167 -177.5 -270.5s-132.833 -90.5 -205.5 -90.5c-52.667 0 -94 15.167 -124 45.5s-50.667 78.166 -62 143.499zM672.005 1012c-52 0 -102.501 -16.666 -151.501 -49.999
s-94.167 -81.666 -135.5 -144.999c-44 -67.333 -78.833 -143.5 -104.5 -228.5s-38.5 -167.167 -38.5 -246.5c0 -76.667 17.333 -136.834 52 -180.501s82 -65.5 142 -65.5c46.667 0 91.834 13.5 135.501 40.5s85.167 66.833 124.5 119.5c50 66.667 90.833 147.667 122.5 243
s47.5 183.666 47.5 264.999c0 76 -17.5 136.333 -52.5 181s-82.167 67 -141.5 67zM950.004 1264h-79.999l-266 196c-19.333 14.667 -34 29.167 -44 43.5s-15 28.5 -15 42.5c0 22 7.16699 40.167 21.5 54.5s32.5 21.5 54.5 21.5c14 0 28.167 -4.33301 42.5 -13
s28.166 -20.667 41.499 -36z" />
    <glyph glyph-name="aacute" unicode="&#xe1;" horiz-adv-x="1360" 
d="M723 154c-58.667 -65.333 -118.329 -114.166 -178.996 -146.499s-122.667 -48.5 -186 -48.5c-94.667 0 -171.834 39.167 -231.501 117.5s-89.5 181.166 -89.5 308.499c0 94.667 16 188.334 48 281.001s77.333 176.667 136 252
c59.333 74.667 124.666 132.167 195.999 172.5s144 60.5 218 60.5c70 0 128.833 -18.667 176.5 -56s87.167 -95.666 118.5 -174.999l55 213h195l-234 -844l-1 -3c-11.333 -42.667 -17 -72.334 -17 -89.001c0 -22 5.16699 -39.5 15.5 -52.5s24.166 -19.5 41.499 -19.5
c28.667 0 59.167 17 91.5 51s66.166 84 101.499 150h114c-54 -120 -113.167 -210.167 -177.5 -270.5s-132.833 -90.5 -205.5 -90.5c-52.667 0 -94 15.167 -124 45.5s-50.667 78.166 -62 143.499zM672.005 1012c-52 0 -102.501 -16.666 -151.501 -49.999
s-94.167 -81.666 -135.5 -144.999c-44 -67.333 -78.833 -143.5 -104.5 -228.5s-38.5 -167.167 -38.5 -246.5c0 -76.667 17.333 -136.834 52 -180.501s82 -65.5 142 -65.5c46.667 0 91.834 13.5 135.501 40.5s85.167 66.833 124.5 119.5c50 66.667 90.833 147.667 122.5 243
s47.5 183.666 47.5 264.999c0 76 -17.5 136.333 -52.5 181s-82.167 67 -141.5 67zM690.004 1264l-88 -0.000976562l293 295c20.667 20.667 40.667 36.334 60 47.001s37 16 53 16c23.333 0 42.5 -7.66699 57.5 -23s22.5 -35 22.5 -59c0 -15.333 -5.5 -29.5 -16.5 -42.5
s-30.833 -28.167 -59.5 -45.5z" />
    <glyph glyph-name="acircumflex" unicode="&#xe2;" horiz-adv-x="1360" 
d="M723 154c-58.667 -65.333 -118.329 -114.166 -178.996 -146.499s-122.667 -48.5 -186 -48.5c-94.667 0 -171.834 39.167 -231.501 117.5s-89.5 181.166 -89.5 308.499c0 94.667 16 188.334 48 281.001s77.333 176.667 136 252
c59.333 74.667 124.666 132.167 195.999 172.5s144 60.5 218 60.5c70 0 128.833 -18.667 176.5 -56s87.167 -95.666 118.5 -174.999l55 213h195l-234 -844l-1 -3c-11.333 -42.667 -17 -72.334 -17 -89.001c0 -22 5.16699 -39.5 15.5 -52.5s24.166 -19.5 41.499 -19.5
c28.667 0 59.167 17 91.5 51s66.166 84 101.499 150h114c-54 -120 -113.167 -210.167 -177.5 -270.5s-132.833 -90.5 -205.5 -90.5c-52.667 0 -94 15.167 -124 45.5s-50.667 78.166 -62 143.499zM672.005 1012c-52 0 -102.501 -16.666 -151.501 -49.999
s-94.167 -81.666 -135.5 -144.999c-44 -67.333 -78.833 -143.5 -104.5 -228.5s-38.5 -167.167 -38.5 -246.5c0 -76.667 17.333 -136.834 52 -180.501s82 -65.5 142 -65.5c46.667 0 91.834 13.5 135.501 40.5s85.167 66.833 124.5 119.5c50 66.667 90.833 147.667 122.5 243
s47.5 183.666 47.5 264.999c0 76 -17.5 136.333 -52.5 181s-82.167 67 -141.5 67zM1055 1264h-74l-166 194l-252 -194h-96l309 348h113z" />
    <glyph glyph-name="atilde" unicode="&#xe3;" horiz-adv-x="1360" 
d="M723 154c-58.667 -65.333 -118.329 -114.166 -178.996 -146.499s-122.667 -48.5 -186 -48.5c-94.667 0 -171.834 39.167 -231.501 117.5s-89.5 181.166 -89.5 308.499c0 94.667 16 188.334 48 281.001s77.333 176.667 136 252
c59.333 74.667 124.666 132.167 195.999 172.5s144 60.5 218 60.5c70 0 128.833 -18.667 176.5 -56s87.167 -95.666 118.5 -174.999l55 213h195l-234 -844l-1 -3c-11.333 -42.667 -17 -72.334 -17 -89.001c0 -22 5.16699 -39.5 15.5 -52.5s24.166 -19.5 41.499 -19.5
c28.667 0 59.167 17 91.5 51s66.166 84 101.499 150h114c-54 -120 -113.167 -210.167 -177.5 -270.5s-132.833 -90.5 -205.5 -90.5c-52.667 0 -94 15.167 -124 45.5s-50.667 78.166 -62 143.499zM672.005 1012c-52 0 -102.501 -16.666 -151.501 -49.999
s-94.167 -81.666 -135.5 -144.999c-44 -67.333 -78.833 -143.5 -104.5 -228.5s-38.5 -167.167 -38.5 -246.5c0 -76.667 17.333 -136.834 52 -180.501s82 -65.5 142 -65.5c46.667 0 91.834 13.5 135.501 40.5s85.167 66.833 124.5 119.5c50 66.667 90.833 147.667 122.5 243
s47.5 183.666 47.5 264.999c0 76 -17.5 136.333 -52.5 181s-82.167 67 -141.5 67zM1106 1540c-13.333 -66 -36.168 -116.333 -68.501 -151s-72.833 -52 -121.5 -52c-11.333 0 -23.166 1 -35.499 3s-26.5 5.33301 -42.5 10l-131 32c-16 4 -28.667 6.83301 -38 8.5
s-16.666 2.5 -21.999 2.5c-22 0 -39.5 -6.5 -52.5 -19.5s-22.167 -32.5 -27.5 -58.5h-61c9.33301 66 29.166 116 59.499 150s70.5 51 120.5 51c10 -0.666992 20.333 -1.66699 31 -3s24.334 -4 41.001 -8l128 -34c14.667 -4 26.667 -6.83301 36 -8.5s16.666 -2.5 21.999 -2.5
c28 0 49.833 6.16699 65.5 18.5s27.5 32.833 35.5 61.5h61z" />
    <glyph glyph-name="adieresis" unicode="&#xe4;" horiz-adv-x="1360" 
d="M723 154c-58.667 -65.333 -118.329 -114.166 -178.996 -146.499s-122.667 -48.5 -186 -48.5c-94.667 0 -171.834 39.167 -231.501 117.5s-89.5 181.166 -89.5 308.499c0 94.667 16 188.334 48 281.001s77.333 176.667 136 252
c59.333 74.667 124.666 132.167 195.999 172.5s144 60.5 218 60.5c70 0 128.833 -18.667 176.5 -56s87.167 -95.666 118.5 -174.999l55 213h195l-234 -844l-1 -3c-11.333 -42.667 -17 -72.334 -17 -89.001c0 -22 5.16699 -39.5 15.5 -52.5s24.166 -19.5 41.499 -19.5
c28.667 0 59.167 17 91.5 51s66.166 84 101.499 150h114c-54 -120 -113.167 -210.167 -177.5 -270.5s-132.833 -90.5 -205.5 -90.5c-52.667 0 -94 15.167 -124 45.5s-50.667 78.166 -62 143.499zM672.005 1012c-52 0 -102.501 -16.666 -151.501 -49.999
s-94.167 -81.666 -135.5 -144.999c-44 -67.333 -78.833 -143.5 -104.5 -228.5s-38.5 -167.167 -38.5 -246.5c0 -76.667 17.333 -136.834 52 -180.501s82 -65.5 142 -65.5c46.667 0 91.834 13.5 135.501 40.5s85.167 66.833 124.5 119.5c50 66.667 90.833 147.667 122.5 243
s47.5 183.666 47.5 264.999c0 76 -17.5 136.333 -52.5 181s-82.167 67 -141.5 67zM875.004 1425c0 28 10.833 52.8311 32.5 74.498s46.167 32.5 73.5 32.5c29.333 0 54.833 -10.5 76.5 -31.5s32.5 -46.167 32.5 -75.5c0 -31.333 -10.333 -57.166 -31 -77.499
s-46.667 -30.5 -78 -30.5c-30 0 -55.167 10.333 -75.5 31s-30.5 46.334 -30.5 77.001zM522.004 1425c0 28 10.833 52.8311 32.5 74.498s46.5 32.5 74.5 32.5c29.333 0 54.666 -10.5 75.999 -31.5s32 -46.167 32 -75.5c0 -31.333 -10.167 -57.166 -30.5 -77.499
s-46.166 -30.5 -77.499 -30.5c-30.667 0 -56.167 10.333 -76.5 31s-30.5 46.334 -30.5 77.001z" />
    <glyph glyph-name="aring" unicode="&#xe5;" horiz-adv-x="1360" 
d="M631 1464c0 -42 14.333 -77.333 43 -106s64 -43 106 -43c41.333 0 76.666 14.5 105.999 43.5s44 64.167 44 105.5c0 42 -14.667 77.5 -44 106.5s-64.666 43.5 -105.999 43.5c-42 0 -77.333 -14.5 -106 -43.5s-43 -64.5 -43 -106.5zM532 1464c0 70 24 128.833 72 176.5
s106.667 71.5 176 71.5c70 0 128.833 -23.833 176.5 -71.5s71.5 -106.5 71.5 -176.5c0 -69.333 -23.833 -127.833 -71.5 -175.5s-106.5 -71.5 -176.5 -71.5c-69.333 0 -128 23.833 -176 71.5s-72 106.167 -72 175.5zM672 1012c-52 0 -102.501 -16.666 -151.501 -49.999
s-94.167 -81.666 -135.5 -144.999c-44 -67.333 -78.833 -143.5 -104.5 -228.5s-38.5 -167.167 -38.5 -246.5c0 -76.667 17.333 -136.834 52 -180.501s82 -65.5 142 -65.5c46.667 0 91.834 13.5 135.501 40.5s85.167 66.833 124.5 119.5c50 66.667 90.833 147.667 122.5 243
s47.5 183.666 47.5 264.999c0 76 -17.5 136.333 -52.5 181s-82.167 67 -141.5 67zM722.999 154.001c-58.667 -65.333 -118.329 -114.166 -178.996 -146.499s-122.667 -48.5 -186 -48.5c-94.667 0 -171.834 39.167 -231.501 117.5s-89.5 181.166 -89.5 308.499
c0 94.667 16 188.334 48 281.001s77.333 176.667 136 252c59.333 74.667 124.666 132.167 195.999 172.5s144 60.5 218 60.5c70 0 128.833 -18.667 176.5 -56s87.167 -95.666 118.5 -174.999l55 213h195l-234 -844l-1 -3c-11.333 -42.667 -17 -72.334 -17 -89.001
c0 -22 5.16699 -39.5 15.5 -52.5s24.166 -19.5 41.499 -19.5c28.667 0 59.167 17 91.5 51s66.166 84 101.499 150h114c-54 -120 -113.167 -210.167 -177.5 -270.5s-132.833 -90.5 -205.5 -90.5c-52.667 0 -94 15.167 -124 45.5s-50.667 78.166 -62 143.499z" />
    <glyph glyph-name="ae" unicode="&#xe6;" horiz-adv-x="1872" 
d="M786 244c-69.333 -94.667 -139.67 -165.835 -211.003 -213.502s-142.333 -71.5 -213 -71.5c-96.667 0 -175 39.167 -235 117.5s-90 181.166 -90 308.499c0 94.667 16 188.334 48 281.001s77.333 176.667 136 252c58 73.333 122.333 130.833 193 172.5
s139.667 62.5 207 62.5c68 0 125 -19.5 171 -58.5s81 -97.167 105 -174.5l49 198h193l-43 -155c60.667 66 119.834 114.167 177.501 144.5s118.5 45.5 182.5 45.5c80 0 145.833 -23 197.5 -69s77.5 -105 77.5 -177c0 -114 -63.167 -206.833 -189.5 -278.5
s-304.833 -115.167 -535.5 -130.5c-7.33301 -25.333 -12.666 -49.666 -15.999 -72.999s-5 -45.666 -5 -66.999c0 -80.667 21.333 -145.167 64 -193.5s100 -72.5 172 -72.5c68.667 0 134.834 22.167 198.501 66.5s122.834 109.5 177.501 195.5l121 -4
c-66.667 -126.667 -143.834 -222.167 -231.501 -286.5s-184.5 -96.5 -290.5 -96.5c-90 0 -170 23.667 -240 71s-126.667 116 -170 206zM1024 597.999c156.667 10 279.498 41.334 368.498 94.001s133.5 119.667 133.5 201c0 45.333 -12.5 81.166 -37.5 107.499
s-59.167 39.5 -102.5 39.5c-73.333 0 -141.666 -38.5 -204.999 -115.5s-115.666 -185.833 -156.999 -326.5zM638.994 1012c-48.667 0 -95.668 -16.499 -141.001 -49.499s-87 -81.5 -125 -145.5c-41.333 -69.333 -73.833 -146.333 -97.5 -231s-35.5 -166 -35.5 -244
c0 -76.667 16.167 -136.834 48.5 -180.501s76.833 -65.5 133.5 -65.5c42.667 0 84 13.333 124 40s78.667 66.667 116 120c46.667 68 84.834 149.667 114.501 245s44.5 183.666 44.5 264.999c0 74.667 -16.667 134.334 -50 179.001s-77.333 67 -132 67z" />
    <glyph glyph-name="ccedilla" unicode="&#xe7;" horiz-adv-x="1155" 
d="M967 319c-55.333 -115.333 -125.334 -203.502 -210.001 -264.502s-180 -91.5 -286 -91.5c-129.333 0 -234.333 44.167 -315 132.5s-121 203.833 -121 346.5c0 108.667 18.833 209.834 56.5 303.501s92.5 174.834 164.5 243.501c54.667 54 116 94.833 184 122.5
s140.333 41.5 217 41.5c106.667 0 193.834 -28.167 261.501 -84.5s101.5 -127.833 101.5 -214.5c0 -54.667 -14.167 -98.667 -42.5 -132s-65.5 -50 -111.5 -50c-39.333 0 -72 11.5 -98 34.5s-39 51.833 -39 86.5c0 18.667 5 37.167 15 55.5s24 34.5 42 48.5
c8.66699 6.66699 22.5 14.5 41.5 23.5s28.5 17.5 28.5 25.5c0 24 -18 46.833 -54 68.5s-78 32.5 -126 32.5c-124.667 0 -225.5 -60.667 -302.5 -182s-115.5 -281.333 -115.5 -480c0 -98.667 21.5 -174.834 64.5 -228.501s104.167 -80.5 183.5 -80.5
c61.333 0 120.5 20.333 177.5 61s111.833 101.334 164.5 182.001h119zM133.999 -379.002l36.001 89.999c40 -25.333 80 -44.666 120 -57.999s77.333 -20 112 -20c37.333 0 65.5 7.66699 84.5 23s28.5 38 28.5 68c0 27.333 -9 48.5 -27 63.5s-44 22.5 -78 22.5
c-9.33301 0 -21.333 -0.833008 -36 -2.5s-35.334 -4.5 -62.001 -8.5l65 201h66l-37 -115c7.33301 1.33301 15.333 2.33301 24 3s21 1 37 1c60 0 106.5 -14.5 139.5 -43.5s49.5 -69.5 49.5 -121.5c0 -56.667 -19.667 -100.667 -59 -132s-94.666 -47 -165.999 -47
c-38 0 -81.333 6.33301 -130 19s-104.334 31.667 -167.001 57z" />
    <glyph glyph-name="egrave" unicode="&#xe8;" horiz-adv-x="1114" 
d="M958 350c-67.333 -127.333 -144.498 -223 -231.498 -287s-183.167 -96 -288.5 -96c-126.667 0 -228.334 40.833 -305.001 122.5s-115 190.5 -115 326.5c0 111.333 21.5 215.5 64.5 312.5s105.5 183.167 187.5 258.5c59.333 54 123.666 95.5 192.999 124.5
s139 43.5 209 43.5c91.333 0 164.333 -22.5 219 -67.5s82 -105.167 82 -180.5c0 -114 -63.167 -206.833 -189.5 -278.5s-304.833 -115.167 -535.5 -130.5c-8 -30 -13.833 -56.5 -17.5 -79.5s-5.5 -43.167 -5.5 -60.5c0 -80.667 21.667 -145.167 65 -193.5
s101 -72.5 173 -72.5c68.667 0 135 22.333 199 67s123.333 109.667 178 195zM266.002 598c157.333 10 280.332 41.334 368.999 94.001s133 119.667 133 201c0 45.333 -12.5 81.166 -37.5 107.499s-58.833 39.5 -101.5 39.5c-74 0 -142.667 -38.5 -206 -115.5
s-115.666 -185.833 -156.999 -326.5zM860.001 1264h-79.999l-266 196c-19.333 14.667 -34 29.167 -44 43.5s-15 28.5 -15 42.5c0 22 7.16699 40.167 21.5 54.5s32.5 21.5 54.5 21.5c14 0 28.167 -4.33301 42.5 -13s28.166 -20.667 41.499 -36z" />
    <glyph glyph-name="eacute" unicode="&#xe9;" horiz-adv-x="1114" 
d="M958 350c-67.333 -127.333 -144.498 -223 -231.498 -287s-183.167 -96 -288.5 -96c-126.667 0 -228.334 40.833 -305.001 122.5s-115 190.5 -115 326.5c0 111.333 21.5 215.5 64.5 312.5s105.5 183.167 187.5 258.5c59.333 54 123.666 95.5 192.999 124.5
s139 43.5 209 43.5c91.333 0 164.333 -22.5 219 -67.5s82 -105.167 82 -180.5c0 -114 -63.167 -206.833 -189.5 -278.5s-304.833 -115.167 -535.5 -130.5c-8 -30 -13.833 -56.5 -17.5 -79.5s-5.5 -43.167 -5.5 -60.5c0 -80.667 21.667 -145.167 65 -193.5
s101 -72.5 173 -72.5c68.667 0 135 22.333 199 67s123.333 109.667 178 195zM266.002 598c157.333 10 280.332 41.334 368.999 94.001s133 119.667 133 201c0 45.333 -12.5 81.166 -37.5 107.499s-58.833 39.5 -101.5 39.5c-74 0 -142.667 -38.5 -206 -115.5
s-115.666 -185.833 -156.999 -326.5zM600.001 1264l-88 -0.000976562l293 295c20.667 20.667 40.667 36.334 60 47.001s37 16 53 16c23.333 0 42.5 -7.66699 57.5 -23s22.5 -35 22.5 -59c0 -15.333 -5.5 -29.5 -16.5 -42.5s-30.833 -28.167 -59.5 -45.5z" />
    <glyph glyph-name="ecircumflex" unicode="&#xea;" horiz-adv-x="1114" 
d="M958 350c-67.333 -127.333 -144.498 -223 -231.498 -287s-183.167 -96 -288.5 -96c-126.667 0 -228.334 40.833 -305.001 122.5s-115 190.5 -115 326.5c0 111.333 21.5 215.5 64.5 312.5s105.5 183.167 187.5 258.5c59.333 54 123.666 95.5 192.999 124.5
s139 43.5 209 43.5c91.333 0 164.333 -22.5 219 -67.5s82 -105.167 82 -180.5c0 -114 -63.167 -206.833 -189.5 -278.5s-304.833 -115.167 -535.5 -130.5c-8 -30 -13.833 -56.5 -17.5 -79.5s-5.5 -43.167 -5.5 -60.5c0 -80.667 21.667 -145.167 65 -193.5
s101 -72.5 173 -72.5c68.667 0 135 22.333 199 67s123.333 109.667 178 195zM266.002 598c157.333 10 280.332 41.334 368.999 94.001s133 119.667 133 201c0 45.333 -12.5 81.166 -37.5 107.499s-58.833 39.5 -101.5 39.5c-74 0 -142.667 -38.5 -206 -115.5
s-115.666 -185.833 -156.999 -326.5zM965.001 1264h-74l-166 194l-252 -194h-96l309 348h113z" />
    <glyph glyph-name="edieresis" unicode="&#xeb;" horiz-adv-x="1114" 
d="M958 350c-67.333 -127.333 -144.498 -223 -231.498 -287s-183.167 -96 -288.5 -96c-126.667 0 -228.334 40.833 -305.001 122.5s-115 190.5 -115 326.5c0 111.333 21.5 215.5 64.5 312.5s105.5 183.167 187.5 258.5c59.333 54 123.666 95.5 192.999 124.5
s139 43.5 209 43.5c91.333 0 164.333 -22.5 219 -67.5s82 -105.167 82 -180.5c0 -114 -63.167 -206.833 -189.5 -278.5s-304.833 -115.167 -535.5 -130.5c-8 -30 -13.833 -56.5 -17.5 -79.5s-5.5 -43.167 -5.5 -60.5c0 -80.667 21.667 -145.167 65 -193.5
s101 -72.5 173 -72.5c68.667 0 135 22.333 199 67s123.333 109.667 178 195zM266.002 598c157.333 10 280.332 41.334 368.999 94.001s133 119.667 133 201c0 45.333 -12.5 81.166 -37.5 107.499s-58.833 39.5 -101.5 39.5c-74 0 -142.667 -38.5 -206 -115.5
s-115.666 -185.833 -156.999 -326.5zM785.001 1425c0 28 10.833 52.8311 32.5 74.498s46.167 32.5 73.5 32.5c29.333 0 54.833 -10.5 76.5 -31.5s32.5 -46.167 32.5 -75.5c0 -31.333 -10.333 -57.166 -31 -77.499s-46.667 -30.5 -78 -30.5c-30 0 -55.167 10.333 -75.5 31
s-30.5 46.334 -30.5 77.001zM432.001 1425c0 28 10.833 52.8311 32.5 74.498s46.5 32.5 74.5 32.5c29.333 0 54.666 -10.5 75.999 -31.5s32 -46.167 32 -75.5c0 -31.333 -10.167 -57.166 -30.5 -77.499s-46.166 -30.5 -77.499 -30.5c-30.667 0 -56.167 10.333 -76.5 31
s-30.5 46.334 -30.5 77.001z" />
    <glyph glyph-name="igrave" unicode="&#xec;" horiz-adv-x="811" 
d="M692 326c-54.667 -120.667 -113.831 -210.998 -177.498 -270.998s-132.167 -90 -205.5 -90c-54.667 0 -97.334 16.667 -128.001 50s-46 79.666 -46 138.999c0 38 6.66699 85.5 20 142.5s32.666 119.167 57.999 186.5l52 139c58 155.333 87 248.333 87 279
c0 22.667 -3.66699 39 -11 49s-19.333 15 -36 15c-30.667 0 -62 -15 -94 -45s-69 -79.333 -111 -148h-114c58 114 121.333 202.167 190 264.5s135.667 93.5 201 93.5c52 0 92.667 -16.833 122 -50.5s44 -80.834 44 -141.501c0 -34 -7.16699 -78.167 -21.5 -132.5
s-46.833 -152.166 -97.5 -293.499c-37.333 -102.667 -62.333 -175.834 -75 -219.501s-19 -75.5 -19 -95.5c0 -22.667 5.16699 -40 15.5 -52s24.833 -18 43.5 -18c28.667 0 58.5 16.333 89.5 49s64.833 82.667 101.5 150h112zM626.003 1264h-79.999l-266 196
c-19.333 14.667 -34 29.167 -44 43.5s-15 28.5 -15 42.5c0 22 7.16699 40.167 21.5 54.5s32.5 21.5 54.5 21.5c14 0 28.167 -4.33301 42.5 -13s28.166 -20.667 41.499 -36z" />
    <glyph glyph-name="iacute" unicode="&#xed;" horiz-adv-x="811" 
d="M692 326c-54.667 -120.667 -113.831 -210.998 -177.498 -270.998s-132.167 -90 -205.5 -90c-54.667 0 -97.334 16.667 -128.001 50s-46 79.666 -46 138.999c0 38 6.66699 85.5 20 142.5s32.666 119.167 57.999 186.5l52 139c58 155.333 87 248.333 87 279
c0 22.667 -3.66699 39 -11 49s-19.333 15 -36 15c-30.667 0 -62 -15 -94 -45s-69 -79.333 -111 -148h-114c58 114 121.333 202.167 190 264.5s135.667 93.5 201 93.5c52 0 92.667 -16.833 122 -50.5s44 -80.834 44 -141.501c0 -34 -7.16699 -78.167 -21.5 -132.5
s-46.833 -152.166 -97.5 -293.499c-37.333 -102.667 -62.333 -175.834 -75 -219.501s-19 -75.5 -19 -95.5c0 -22.667 5.16699 -40 15.5 -52s24.833 -18 43.5 -18c28.667 0 58.5 16.333 89.5 49s64.833 82.667 101.5 150h112zM366.003 1264l-88 -0.000976562l293 295
c20.667 20.667 40.667 36.334 60 47.001s37 16 53 16c23.333 0 42.5 -7.66699 57.5 -23s22.5 -35 22.5 -59c0 -15.333 -5.5 -29.5 -16.5 -42.5s-30.833 -28.167 -59.5 -45.5z" />
    <glyph glyph-name="icircumflex" unicode="&#xee;" horiz-adv-x="811" 
d="M692 326c-54.667 -120.667 -113.831 -210.998 -177.498 -270.998s-132.167 -90 -205.5 -90c-54.667 0 -97.334 16.667 -128.001 50s-46 79.666 -46 138.999c0 38 6.66699 85.5 20 142.5s32.666 119.167 57.999 186.5l52 139c58 155.333 87 248.333 87 279
c0 22.667 -3.66699 39 -11 49s-19.333 15 -36 15c-30.667 0 -62 -15 -94 -45s-69 -79.333 -111 -148h-114c58 114 121.333 202.167 190 264.5s135.667 93.5 201 93.5c52 0 92.667 -16.833 122 -50.5s44 -80.834 44 -141.501c0 -34 -7.16699 -78.167 -21.5 -132.5
s-46.833 -152.166 -97.5 -293.499c-37.333 -102.667 -62.333 -175.834 -75 -219.501s-19 -75.5 -19 -95.5c0 -22.667 5.16699 -40 15.5 -52s24.833 -18 43.5 -18c28.667 0 58.5 16.333 89.5 49s64.833 82.667 101.5 150h112zM731.003 1264h-74l-166 194l-252 -194h-96
l309 348h113z" />
    <glyph glyph-name="idieresis" unicode="&#xef;" horiz-adv-x="811" 
d="M692 326c-54.667 -120.667 -113.831 -210.998 -177.498 -270.998s-132.167 -90 -205.5 -90c-54.667 0 -97.334 16.667 -128.001 50s-46 79.666 -46 138.999c0 38 6.66699 85.5 20 142.5s32.666 119.167 57.999 186.5l52 139c58 155.333 87 248.333 87 279
c0 22.667 -3.66699 39 -11 49s-19.333 15 -36 15c-30.667 0 -62 -15 -94 -45s-69 -79.333 -111 -148h-114c58 114 121.333 202.167 190 264.5s135.667 93.5 201 93.5c52 0 92.667 -16.833 122 -50.5s44 -80.834 44 -141.501c0 -34 -7.16699 -78.167 -21.5 -132.5
s-46.833 -152.166 -97.5 -293.499c-37.333 -102.667 -62.333 -175.834 -75 -219.501s-19 -75.5 -19 -95.5c0 -22.667 5.16699 -40 15.5 -52s24.833 -18 43.5 -18c28.667 0 58.5 16.333 89.5 49s64.833 82.667 101.5 150h112zM551.003 1425c0 28 10.833 52.8311 32.5 74.498
s46.167 32.5 73.5 32.5c29.333 0 54.833 -10.5 76.5 -31.5s32.5 -46.167 32.5 -75.5c0 -31.333 -10.333 -57.166 -31 -77.499s-46.667 -30.5 -78 -30.5c-30 0 -55.167 10.333 -75.5 31s-30.5 46.334 -30.5 77.001zM198.003 1425c0 28 10.833 52.8311 32.5 74.498
s46.5 32.5 74.5 32.5c29.333 0 54.666 -10.5 75.999 -31.5s32 -46.167 32 -75.5c0 -31.333 -10.167 -57.166 -30.5 -77.499s-46.166 -30.5 -77.499 -30.5c-30.667 0 -56.167 10.333 -76.5 31s-30.5 46.334 -30.5 77.001z" />
    <glyph glyph-name="eth" unicode="&#xf0;" horiz-adv-x="1241" 
d="M834 1307c92 -130 158.001 -246.332 198.001 -348.999s60 -205.667 60 -309c0 -93.333 -14.167 -180.5 -42.5 -261.5s-69.5 -152.833 -123.5 -215.5c-58 -66 -126.667 -117.333 -206 -154s-161.666 -55 -246.999 -55c-130 0 -235.5 40.833 -316.5 122.5
s-121.5 189.167 -121.5 322.5c0 100 18.833 193.5 56.5 280.5s92.5 162.5 164.5 226.5c56 50 116.5 87.833 181.5 113.5s132.833 38.5 203.5 38.5c30 0 58.5 -3.16699 85.5 -9.5s53.167 -16.166 78.5 -29.499c-16.667 39.333 -34.334 77.666 -53.001 114.999
s-39.334 74.666 -62.001 111.999l-297 -114l-37 86l293 106l-21 37l-75 129l92 55l86.5 -105.5l48.5 -62.5l289 111l33 -86zM260.001 381.001c0 -97.333 19.6689 -172.167 59.002 -224.5s95.333 -78.5 168 -78.5c54.667 0 104.5 14.833 149.5 44.5
s86.167 74.167 123.5 133.5c34.667 56 62 121.667 82 197s30 150.333 30 225c0 92.667 -18.833 162.5 -56.5 209.5s-93.834 70.5 -168.501 70.5c-106.667 0 -197.834 -55.167 -273.501 -165.5s-113.5 -247.5 -113.5 -411.5z" />
    <glyph glyph-name="ntilde" unicode="&#xf1;" horiz-adv-x="1360" 
d="M268 0l-205.001 0.000976562l154 502c38 124 64.167 214.833 78.5 272.5s21.5 99.167 21.5 124.5c0 20 -3.83301 36 -11.5 48s-18.167 18 -31.5 18c-34 0 -67.5 -14.833 -100.5 -44.5s-70.5 -79.167 -112.5 -148.5h-112c57.333 112.667 120.5 200.5 189.5 263.5
s135.5 94.5 199.5 94.5c50.667 0 89.334 -16.167 116.001 -48.5s40 -79.5 40 -141.5c0 -13.333 -1 -28.666 -3 -45.999s-4.66699 -36 -8 -56c69.333 102 135.833 176.667 199.5 224s129.834 71 198.501 71c65.333 0 118.166 -20.333 158.499 -61s60.5 -94.334 60.5 -161.001
c0 -71.333 -32 -194.333 -96 -369l-11 -30c-36 -99.333 -60.667 -171.666 -74 -216.999s-20 -78 -20 -98c0 -22 5.16699 -39.167 15.5 -51.5s24.166 -18.5 41.499 -18.5c28 0 60.667 20.167 98 60.5s75 96.5 113 168.5h113c-62.667 -133.333 -126.667 -231.833 -192 -295.5
s-135 -95.5 -209 -95.5c-54.667 0 -97.334 16.667 -128.001 50s-46 79.666 -46 138.999c0 39.333 7.33301 88.666 22 147.999s37.334 131 68.001 215l32 85c56 148.667 84 249 84 301c0 32 -8.66699 56.333 -26 73s-42.666 25 -75.999 25
c-101.333 0 -199.5 -87.333 -294.5 -262s-177.167 -421 -246.5 -739zM1133 1540c-13.333 -66 -36.168 -116.333 -68.501 -151s-72.833 -52 -121.5 -52c-11.333 0 -23.166 1 -35.499 3s-26.5 5.33301 -42.5 10l-131 32c-16 4 -28.667 6.83301 -38 8.5
s-16.666 2.5 -21.999 2.5c-22 0 -39.5 -6.5 -52.5 -19.5s-22.167 -32.5 -27.5 -58.5h-61c9.33301 66 29.166 116 59.499 150s70.5 51 120.5 51c10 -0.666992 20.333 -1.66699 31 -3s24.334 -4 41.001 -8l128 -34c14.667 -4 26.667 -6.83301 36 -8.5s16.666 -2.5 21.999 -2.5
c28 0 49.833 6.16699 65.5 18.5s27.5 32.833 35.5 61.5h61z" />
    <glyph glyph-name="ograve" unicode="&#xf2;" horiz-adv-x="1241" 
d="M1092 680c0 -90.667 -14.666 -179.003 -43.999 -265.003s-70 -161.667 -122 -227c-58.667 -71.333 -127.334 -126.333 -206.001 -165s-161.667 -58 -249 -58c-130 0 -235.167 43.833 -315.5 131.5s-120.5 202.834 -120.5 345.501c0 108.667 18.833 209.834 56.5 303.501
s92.5 174.834 164.5 243.501c56 54.667 118.167 95.667 186.5 123s141.5 41 219.5 41c130 0 234.167 -43 312.5 -129s117.5 -200.667 117.5 -344zM492.001 75.9971c52 0 100.502 16.334 145.502 49.001s85.833 81.667 122.5 147c35.333 63.333 62.833 135.666 82.5 216.999
s29.5 163.333 29.5 246c0 102.667 -18.833 179.5 -56.5 230.5s-93.834 76.5 -168.501 76.5c-106.667 0 -197.834 -60.333 -273.501 -181s-113.5 -271 -113.5 -451c0 -107.333 20.167 -189.833 60.5 -247.5s97.5 -86.5 171.5 -86.5zM891.003 1264h-79.999l-266 196
c-19.333 14.667 -34 29.167 -44 43.5s-15 28.5 -15 42.5c0 22 7.16699 40.167 21.5 54.5s32.5 21.5 54.5 21.5c14 0 28.167 -4.33301 42.5 -13s28.166 -20.667 41.499 -36z" />
    <glyph glyph-name="oacute" unicode="&#xf3;" horiz-adv-x="1241" 
d="M1092 680c0 -90.667 -14.666 -179.003 -43.999 -265.003s-70 -161.667 -122 -227c-58.667 -71.333 -127.334 -126.333 -206.001 -165s-161.667 -58 -249 -58c-130 0 -235.167 43.833 -315.5 131.5s-120.5 202.834 -120.5 345.501c0 108.667 18.833 209.834 56.5 303.501
s92.5 174.834 164.5 243.501c56 54.667 118.167 95.667 186.5 123s141.5 41 219.5 41c130 0 234.167 -43 312.5 -129s117.5 -200.667 117.5 -344zM492.001 75.9971c52 0 100.502 16.334 145.502 49.001s85.833 81.667 122.5 147c35.333 63.333 62.833 135.666 82.5 216.999
s29.5 163.333 29.5 246c0 102.667 -18.833 179.5 -56.5 230.5s-93.834 76.5 -168.501 76.5c-106.667 0 -197.834 -60.333 -273.501 -181s-113.5 -271 -113.5 -451c0 -107.333 20.167 -189.833 60.5 -247.5s97.5 -86.5 171.5 -86.5zM631.003 1264l-88 -0.000976562l293 295
c20.667 20.667 40.667 36.334 60 47.001s37 16 53 16c23.333 0 42.5 -7.66699 57.5 -23s22.5 -35 22.5 -59c0 -15.333 -5.5 -29.5 -16.5 -42.5s-30.833 -28.167 -59.5 -45.5z" />
    <glyph glyph-name="ocircumflex" unicode="&#xf4;" horiz-adv-x="1241" 
d="M1092 680c0 -90.667 -14.666 -179.003 -43.999 -265.003s-70 -161.667 -122 -227c-58.667 -71.333 -127.334 -126.333 -206.001 -165s-161.667 -58 -249 -58c-130 0 -235.167 43.833 -315.5 131.5s-120.5 202.834 -120.5 345.501c0 108.667 18.833 209.834 56.5 303.501
s92.5 174.834 164.5 243.501c56 54.667 118.167 95.667 186.5 123s141.5 41 219.5 41c130 0 234.167 -43 312.5 -129s117.5 -200.667 117.5 -344zM492.001 75.9971c52 0 100.502 16.334 145.502 49.001s85.833 81.667 122.5 147c35.333 63.333 62.833 135.666 82.5 216.999
s29.5 163.333 29.5 246c0 102.667 -18.833 179.5 -56.5 230.5s-93.834 76.5 -168.501 76.5c-106.667 0 -197.834 -60.333 -273.501 -181s-113.5 -271 -113.5 -451c0 -107.333 20.167 -189.833 60.5 -247.5s97.5 -86.5 171.5 -86.5zM996.003 1264h-74l-166 194l-252 -194h-96
l309 348h113z" />
    <glyph glyph-name="otilde" unicode="&#xf5;" horiz-adv-x="1241" 
d="M1092 680c0 -90.667 -14.666 -179.003 -43.999 -265.003s-70 -161.667 -122 -227c-58.667 -71.333 -127.334 -126.333 -206.001 -165s-161.667 -58 -249 -58c-130 0 -235.167 43.833 -315.5 131.5s-120.5 202.834 -120.5 345.501c0 108.667 18.833 209.834 56.5 303.501
s92.5 174.834 164.5 243.501c56 54.667 118.167 95.667 186.5 123s141.5 41 219.5 41c130 0 234.167 -43 312.5 -129s117.5 -200.667 117.5 -344zM492.001 75.9971c52 0 100.502 16.334 145.502 49.001s85.833 81.667 122.5 147c35.333 63.333 62.833 135.666 82.5 216.999
s29.5 163.333 29.5 246c0 102.667 -18.833 179.5 -56.5 230.5s-93.834 76.5 -168.501 76.5c-106.667 0 -197.834 -60.333 -273.501 -181s-113.5 -271 -113.5 -451c0 -107.333 20.167 -189.833 60.5 -247.5s97.5 -86.5 171.5 -86.5zM1047 1540
c-13.333 -66 -36.168 -116.333 -68.501 -151s-72.833 -52 -121.5 -52c-11.333 0 -23.166 1 -35.499 3s-26.5 5.33301 -42.5 10l-131 32c-16 4 -28.667 6.83301 -38 8.5s-16.666 2.5 -21.999 2.5c-22 0 -39.5 -6.5 -52.5 -19.5s-22.167 -32.5 -27.5 -58.5h-61
c9.33301 66 29.166 116 59.499 150s70.5 51 120.5 51c10 -0.666992 20.333 -1.66699 31 -3s24.334 -4 41.001 -8l128 -34c14.667 -4 26.667 -6.83301 36 -8.5s16.666 -2.5 21.999 -2.5c28 0 49.833 6.16699 65.5 18.5s27.5 32.833 35.5 61.5h61z" />
    <glyph glyph-name="odieresis" unicode="&#xf6;" horiz-adv-x="1241" 
d="M1092 680c0 -90.667 -14.666 -179.003 -43.999 -265.003s-70 -161.667 -122 -227c-58.667 -71.333 -127.334 -126.333 -206.001 -165s-161.667 -58 -249 -58c-130 0 -235.167 43.833 -315.5 131.5s-120.5 202.834 -120.5 345.501c0 108.667 18.833 209.834 56.5 303.501
s92.5 174.834 164.5 243.501c56 54.667 118.167 95.667 186.5 123s141.5 41 219.5 41c130 0 234.167 -43 312.5 -129s117.5 -200.667 117.5 -344zM492.001 75.9971c52 0 100.502 16.334 145.502 49.001s85.833 81.667 122.5 147c35.333 63.333 62.833 135.666 82.5 216.999
s29.5 163.333 29.5 246c0 102.667 -18.833 179.5 -56.5 230.5s-93.834 76.5 -168.501 76.5c-106.667 0 -197.834 -60.333 -273.501 -181s-113.5 -271 -113.5 -451c0 -107.333 20.167 -189.833 60.5 -247.5s97.5 -86.5 171.5 -86.5zM816.003 1425
c0 28 10.833 52.8311 32.5 74.498s46.167 32.5 73.5 32.5c29.333 0 54.833 -10.5 76.5 -31.5s32.5 -46.167 32.5 -75.5c0 -31.333 -10.333 -57.166 -31 -77.499s-46.667 -30.5 -78 -30.5c-30 0 -55.167 10.333 -75.5 31s-30.5 46.334 -30.5 77.001zM463.003 1425
c0 28 10.833 52.8311 32.5 74.498s46.5 32.5 74.5 32.5c29.333 0 54.666 -10.5 75.999 -31.5s32 -46.167 32 -75.5c0 -31.333 -10.167 -57.166 -30.5 -77.499s-46.166 -30.5 -77.499 -30.5c-30.667 0 -56.167 10.333 -76.5 31s-30.5 46.334 -30.5 77.001z" />
    <glyph glyph-name="divide" unicode="&#xf7;" 
d="M854 367c34 0 63.333 -12.333 88 -37s37 -54 37 -88c0 -34.667 -12.167 -64.167 -36.5 -88.5s-53.833 -36.5 -88.5 -36.5c-35.333 0 -65 12 -89 36s-36 53.667 -36 89c0 34 12.333 63.333 37 88s54 37 88 37zM254 680h1198v-139h-1198v139zM854 1106
c34 0 63.333 -12.5 88 -37.5s37 -54.833 37 -89.5c0 -34 -12.167 -63.333 -36.5 -88s-53.833 -37 -88.5 -37s-64.167 12.167 -88.5 36.5s-36.5 53.833 -36.5 88.5s12.333 64.5 37 89.5s54 37.5 88 37.5z" />
    <glyph glyph-name="oslash" unicode="&#xf8;" horiz-adv-x="1241" 
d="M240 27c-68.667 44.667 -119.666 101.499 -152.999 170.499s-50 151.167 -50 246.5c0 109.333 18.667 210.5 56 303.5s91.666 173.5 162.999 241.5c55.333 53.333 117 94 185 122s138.667 42 212 42c21.333 0 44 -1.66699 68 -5s50.667 -8.33301 80 -15l121 241h110
l-143 -280c65.333 -42 115.5 -98.5 150.5 -169.5s52.5 -152.5 52.5 -244.5c0 -91.333 -14.667 -180.166 -44 -266.499s-70 -161.5 -122 -225.5c-58.667 -72 -127 -127.5 -205 -166.5s-160.667 -58.5 -248 -58.5c-23.333 0 -46.833 2 -70.5 6s-48.5 10.333 -74.5 19
l-152 -299h-108zM385.001 101.999c18.667 -8.66699 37 -15.1689 55 -19.502s37.333 -6.5 58 -6.5c48.667 0 95.5 16.833 140.5 50.5s85.5 82.167 121.5 145.5c34.667 62 62 133.833 82 215.5s30 162.834 30 243.501c0 54.667 -4.16699 99.334 -12.5 134.001
s-21.833 68 -40.5 100zM313.001 173.997l432 850.001c-17.333 6 -33.833 10.5 -49.5 13.5s-31.167 4.5 -46.5 4.5c-107.333 0 -199 -59.833 -275 -179.5s-114 -268.5 -114 -446.5c0 -58.667 4.33301 -107.334 13 -146.001s22 -70.667 40 -96z" />
    <glyph glyph-name="ugrave" unicode="&#xf9;" horiz-adv-x="1360" 
d="M-37 772c58.667 122 119.833 212.666 183.5 271.999s131.5 89 203.5 89c54.667 0 97.334 -16.667 128.001 -50s46 -79.666 46 -138.999c0 -40.667 -7.66699 -91.834 -23 -153.501s-38.333 -133.5 -69 -215.5l-31 -84c-58.667 -156.667 -88 -256 -88 -298
c0 -30.667 9.33301 -54.5 28 -71.5s45 -25.5 79 -25.5c102.667 0 201.834 89.167 297.501 267.5s178.834 429.833 249.501 754.5h207l-162 -522c-38.667 -124.667 -65.167 -215.667 -79.5 -273s-21.5 -98.666 -21.5 -123.999c0 -20.667 4.33301 -36.834 13 -48.501
s21 -17.5 37 -17.5c36 0 72.667 19.5 110 58.5s71.666 93.833 102.999 164.5h114c-48.667 -116.667 -109.834 -210.667 -183.501 -282s-144.834 -107 -213.501 -107c-50.667 0 -89.334 16.333 -116.001 49s-40 80 -40 142c0 13.333 0.833008 28.333 2.5 45
s4.16699 35.667 7.5 57c-68 -102 -133.833 -176.667 -197.5 -224s-130.167 -71 -199.5 -71c-65.333 0 -118.166 20.333 -158.499 61s-60.5 94 -60.5 160c0 72 32 195.333 96 370l11 30c36.667 102.667 61.5 175.834 74.5 219.501s19.5 75.5 19.5 95.5
c0 22 -5.5 39.167 -16.5 51.5s-26.167 18.5 -45.5 18.5c-27.333 0 -57 -16.667 -89 -50s-65.667 -83 -101 -149h-115zM949.999 1264h-79.999l-266 196c-19.333 14.667 -34 29.167 -44 43.5s-15 28.5 -15 42.5c0 22 7.16699 40.167 21.5 54.5s32.5 21.5 54.5 21.5
c14 0 28.167 -4.33301 42.5 -13s28.166 -20.667 41.499 -36z" />
    <glyph glyph-name="uacute" unicode="&#xfa;" horiz-adv-x="1360" 
d="M-37 772c58.667 122 119.833 212.666 183.5 271.999s131.5 89 203.5 89c54.667 0 97.334 -16.667 128.001 -50s46 -79.666 46 -138.999c0 -40.667 -7.66699 -91.834 -23 -153.501s-38.333 -133.5 -69 -215.5l-31 -84c-58.667 -156.667 -88 -256 -88 -298
c0 -30.667 9.33301 -54.5 28 -71.5s45 -25.5 79 -25.5c102.667 0 201.834 89.167 297.501 267.5s178.834 429.833 249.501 754.5h207l-162 -522c-38.667 -124.667 -65.167 -215.667 -79.5 -273s-21.5 -98.666 -21.5 -123.999c0 -20.667 4.33301 -36.834 13 -48.501
s21 -17.5 37 -17.5c36 0 72.667 19.5 110 58.5s71.666 93.833 102.999 164.5h114c-48.667 -116.667 -109.834 -210.667 -183.501 -282s-144.834 -107 -213.501 -107c-50.667 0 -89.334 16.333 -116.001 49s-40 80 -40 142c0 13.333 0.833008 28.333 2.5 45
s4.16699 35.667 7.5 57c-68 -102 -133.833 -176.667 -197.5 -224s-130.167 -71 -199.5 -71c-65.333 0 -118.166 20.333 -158.499 61s-60.5 94 -60.5 160c0 72 32 195.333 96 370l11 30c36.667 102.667 61.5 175.834 74.5 219.501s19.5 75.5 19.5 95.5
c0 22 -5.5 39.167 -16.5 51.5s-26.167 18.5 -45.5 18.5c-27.333 0 -57 -16.667 -89 -50s-65.667 -83 -101 -149h-115zM689.999 1264l-88 -0.000976562l293 295c20.667 20.667 40.667 36.334 60 47.001s37 16 53 16c23.333 0 42.5 -7.66699 57.5 -23s22.5 -35 22.5 -59
c0 -15.333 -5.5 -29.5 -16.5 -42.5s-30.833 -28.167 -59.5 -45.5z" />
    <glyph glyph-name="ucircumflex" unicode="&#xfb;" horiz-adv-x="1360" 
d="M-37 772c58.667 122 119.833 212.666 183.5 271.999s131.5 89 203.5 89c54.667 0 97.334 -16.667 128.001 -50s46 -79.666 46 -138.999c0 -40.667 -7.66699 -91.834 -23 -153.501s-38.333 -133.5 -69 -215.5l-31 -84c-58.667 -156.667 -88 -256 -88 -298
c0 -30.667 9.33301 -54.5 28 -71.5s45 -25.5 79 -25.5c102.667 0 201.834 89.167 297.501 267.5s178.834 429.833 249.501 754.5h207l-162 -522c-38.667 -124.667 -65.167 -215.667 -79.5 -273s-21.5 -98.666 -21.5 -123.999c0 -20.667 4.33301 -36.834 13 -48.501
s21 -17.5 37 -17.5c36 0 72.667 19.5 110 58.5s71.666 93.833 102.999 164.5h114c-48.667 -116.667 -109.834 -210.667 -183.501 -282s-144.834 -107 -213.501 -107c-50.667 0 -89.334 16.333 -116.001 49s-40 80 -40 142c0 13.333 0.833008 28.333 2.5 45
s4.16699 35.667 7.5 57c-68 -102 -133.833 -176.667 -197.5 -224s-130.167 -71 -199.5 -71c-65.333 0 -118.166 20.333 -158.499 61s-60.5 94 -60.5 160c0 72 32 195.333 96 370l11 30c36.667 102.667 61.5 175.834 74.5 219.501s19.5 75.5 19.5 95.5
c0 22 -5.5 39.167 -16.5 51.5s-26.167 18.5 -45.5 18.5c-27.333 0 -57 -16.667 -89 -50s-65.667 -83 -101 -149h-115zM1055 1264h-74l-166 194l-252 -194h-96l309 348h113z" />
    <glyph glyph-name="udieresis" unicode="&#xfc;" horiz-adv-x="1360" 
d="M-37 772c58.667 122 119.833 212.666 183.5 271.999s131.5 89 203.5 89c54.667 0 97.334 -16.667 128.001 -50s46 -79.666 46 -138.999c0 -40.667 -7.66699 -91.834 -23 -153.501s-38.333 -133.5 -69 -215.5l-31 -84c-58.667 -156.667 -88 -256 -88 -298
c0 -30.667 9.33301 -54.5 28 -71.5s45 -25.5 79 -25.5c102.667 0 201.834 89.167 297.501 267.5s178.834 429.833 249.501 754.5h207l-162 -522c-38.667 -124.667 -65.167 -215.667 -79.5 -273s-21.5 -98.666 -21.5 -123.999c0 -20.667 4.33301 -36.834 13 -48.501
s21 -17.5 37 -17.5c36 0 72.667 19.5 110 58.5s71.666 93.833 102.999 164.5h114c-48.667 -116.667 -109.834 -210.667 -183.501 -282s-144.834 -107 -213.501 -107c-50.667 0 -89.334 16.333 -116.001 49s-40 80 -40 142c0 13.333 0.833008 28.333 2.5 45
s4.16699 35.667 7.5 57c-68 -102 -133.833 -176.667 -197.5 -224s-130.167 -71 -199.5 -71c-65.333 0 -118.166 20.333 -158.499 61s-60.5 94 -60.5 160c0 72 32 195.333 96 370l11 30c36.667 102.667 61.5 175.834 74.5 219.501s19.5 75.5 19.5 95.5
c0 22 -5.5 39.167 -16.5 51.5s-26.167 18.5 -45.5 18.5c-27.333 0 -57 -16.667 -89 -50s-65.667 -83 -101 -149h-115zM874.999 1425c0 28 10.833 52.8311 32.5 74.498s46.167 32.5 73.5 32.5c29.333 0 54.833 -10.5 76.5 -31.5s32.5 -46.167 32.5 -75.5
c0 -31.333 -10.333 -57.166 -31 -77.499s-46.667 -30.5 -78 -30.5c-30 0 -55.167 10.333 -75.5 31s-30.5 46.334 -30.5 77.001zM521.999 1425c0 28 10.833 52.8311 32.5 74.498s46.5 32.5 74.5 32.5c29.333 0 54.666 -10.5 75.999 -31.5s32 -46.167 32 -75.5
c0 -31.333 -10.167 -57.166 -30.5 -77.499s-46.166 -30.5 -77.499 -30.5c-30.667 0 -56.167 10.333 -76.5 31s-30.5 46.334 -30.5 77.001z" />
    <glyph glyph-name="yacute" unicode="&#xfd;" horiz-adv-x="1290" 
d="M987 1118h180.002l-243 -946c-50 -194 -122.667 -336.333 -218 -427s-220.666 -136 -375.999 -136c-96.667 0 -173.834 18.167 -231.501 54.5s-86.5 83.5 -86.5 141.5c0 37.333 12 68.666 36 93.999s53 38 87 38c37.333 0 66.833 -9.5 88.5 -28.5s32.5 -44.5 32.5 -76.5
c0 -15.333 -3 -30.833 -9 -46.5s-9 -24.167 -9 -25.5c0 -10 10.833 -20 32.5 -30s46.834 -15 75.501 -15c97.333 0 179.333 41.333 246 124s115.667 203.334 147 362.001c-50.667 -66 -109 -117.667 -175 -155s-130.333 -56 -193 -56c-66 0 -119 19.5 -159 58.5
s-60 91.167 -60 156.5c0 68.667 31 187 93 355c5.33301 15.333 9.66602 27.333 12.999 36c36 98.667 60.667 170.167 74 214.5s20 75.833 20 94.5c0 22 -5.83301 39.5 -17.5 52.5s-26.834 19.5 -45.501 19.5c-25.333 0 -52.333 -15 -81 -45s-64.667 -81.333 -108 -154h-114
c59.333 120.667 120.5 210 183.5 268s130.167 87 201.5 87c55.333 0 98.5 -16.333 129.5 -49s46.5 -78 46.5 -136c0 -37.333 -7.5 -85.5 -22.5 -144.5s-37.5 -128.833 -67.5 -209.5l-33 -87c-56 -145.333 -84 -243.333 -84 -294c0 -32 8.66699 -56 26 -72
s42.666 -24 75.999 -24c113.333 0 215 82.833 305 248.5s170 416.5 240 752.5zM655.002 1264l-88 -0.000976562l293 295c20.667 20.667 40.667 36.334 60 47.001s37 16 53 16c23.333 0 42.5 -7.66699 57.5 -23s22.5 -35 22.5 -59c0 -15.333 -5.5 -29.5 -16.5 -42.5
s-30.833 -28.167 -59.5 -45.5z" />
    <glyph glyph-name="thorn" unicode="&#xfe;" horiz-adv-x="1305" 
d="M340 408c0 -98.667 18.1699 -173.166 54.5029 -223.499s89.833 -75.5 160.5 -75.5c53.333 0 101.666 15.333 144.999 46s83 77.334 119 140.001c35.333 61.333 62.666 128.166 81.999 200.499s29 144.833 29 217.5c0 92.667 -17.167 163.167 -51.5 211.5
s-84.166 72.5 -149.499 72.5c-42.667 0 -84.834 -12.833 -126.501 -38.5s-80.834 -63.167 -117.501 -112.5c-44.667 -60 -80 -129.333 -106 -208s-39 -155.334 -39 -230.001zM340.003 1178c12.667 49.333 20.9971 83.501 24.9971 102.501s6 33.167 6 42.5
c0 25.333 -12.333 44.333 -37 57s-61.667 19 -111 19h-76l31 112c81.333 1.33301 159.333 4.33301 234 9s146.334 11.334 215.001 20.001l-152 -573c44.667 58 94.334 101.833 149.001 131.5s113 44.5 175 44.5c106 0 190.167 -40.833 252.5 -122.5
s93.5 -193.834 93.5 -336.501c0 -88 -14.333 -174.5 -43 -259.5s-69.667 -162.167 -123 -231.5c-58 -75.333 -120 -131.166 -186 -167.499s-139.333 -54.5 -220 -54.5c-78.667 0 -143.334 21.667 -194.001 65s-84 105.666 -100 186.999l-80 -300
c-5.33301 -19.333 -9.16602 -36.833 -11.499 -52.5s-3.5 -29.834 -3.5 -42.501c0 -36 13.5 -61.333 40.5 -76s74.5 -22 142.5 -22l-27 -109h-557l31 113c60 2 102.333 11 127 27s42.334 44.333 53.001 85z" />
    <glyph glyph-name="ydieresis" unicode="&#xff;" horiz-adv-x="1290" 
d="M987 1118h180.002l-243 -946c-50 -194 -122.667 -336.333 -218 -427s-220.666 -136 -375.999 -136c-96.667 0 -173.834 18.167 -231.501 54.5s-86.5 83.5 -86.5 141.5c0 37.333 12 68.666 36 93.999s53 38 87 38c37.333 0 66.833 -9.5 88.5 -28.5s32.5 -44.5 32.5 -76.5
c0 -15.333 -3 -30.833 -9 -46.5s-9 -24.167 -9 -25.5c0 -10 10.833 -20 32.5 -30s46.834 -15 75.501 -15c97.333 0 179.333 41.333 246 124s115.667 203.334 147 362.001c-50.667 -66 -109 -117.667 -175 -155s-130.333 -56 -193 -56c-66 0 -119 19.5 -159 58.5
s-60 91.167 -60 156.5c0 68.667 31 187 93 355c5.33301 15.333 9.66602 27.333 12.999 36c36 98.667 60.667 170.167 74 214.5s20 75.833 20 94.5c0 22 -5.83301 39.5 -17.5 52.5s-26.834 19.5 -45.501 19.5c-25.333 0 -52.333 -15 -81 -45s-64.667 -81.333 -108 -154h-114
c59.333 120.667 120.5 210 183.5 268s130.167 87 201.5 87c55.333 0 98.5 -16.333 129.5 -49s46.5 -78 46.5 -136c0 -37.333 -7.5 -85.5 -22.5 -144.5s-37.5 -128.833 -67.5 -209.5l-33 -87c-56 -145.333 -84 -243.333 -84 -294c0 -32 8.66699 -56 26 -72
s42.666 -24 75.999 -24c113.333 0 215 82.833 305 248.5s170 416.5 240 752.5zM840.002 1425c0 28 10.833 52.8311 32.5 74.498s46.167 32.5 73.5 32.5c29.333 0 54.833 -10.5 76.5 -31.5s32.5 -46.167 32.5 -75.5c0 -31.333 -10.333 -57.166 -31 -77.499
s-46.667 -30.5 -78 -30.5c-30 0 -55.167 10.333 -75.5 31s-30.5 46.334 -30.5 77.001zM487.002 1425c0 28 10.833 52.8311 32.5 74.498s46.5 32.5 74.5 32.5c29.333 0 54.666 -10.5 75.999 -31.5s32 -46.167 32 -75.5c0 -31.333 -10.167 -57.166 -30.5 -77.499
s-46.166 -30.5 -77.499 -30.5c-30.667 0 -56.167 10.333 -76.5 31s-30.5 46.334 -30.5 77.001z" />
    <glyph glyph-name="Cacute" unicode="&#x106;" horiz-adv-x="1554" 
d="M1319 854v14c0 164 -34.667 289.333 -104 376s-169.333 130 -300 130c-66 0 -130 -16.667 -192 -50s-116.667 -80.666 -164 -141.999c-56.667 -74.667 -101.834 -169.834 -135.501 -285.501s-50.5 -235.5 -50.5 -359.5c0 -137.333 34.167 -245.166 102.5 -323.499
s161.833 -117.5 280.5 -117.5c86.667 0 167 26.333 241 79s143 133 207 241l131 -41c-62 -134 -144.5 -236.5 -247.5 -307.5s-220.5 -106.5 -352.5 -106.5c-190 0 -341.5 57.667 -454.5 173s-169.5 269.333 -169.5 462c0 112 20 222.667 60 332s97.667 211 173 305
c72.667 88.667 157.834 157.5 255.501 206.5s198.834 73.5 303.501 73.5c39.333 0 78.166 -3.83301 116.499 -11.5s87.5 -22.834 147.5 -45.501c22 -8 49.833 -21.167 83.5 -39.5s56.5 -27.5 68.5 -27.5c19.333 0 35.833 9.66699 49.5 29s24.5 49 32.5 89h129l-82 -653h-129
zM909 1620l-88 -0.000976562l293 295c20.667 20.667 40.667 36.334 60 47.001s37 16 53 16c23.333 0 42.5 -7.66699 57.5 -23s22.5 -35 22.5 -59c0 -15.333 -5.5 -29.5 -16.5 -42.5s-30.833 -28.167 -59.5 -45.5z" />
    <glyph glyph-name="cacute" unicode="&#x107;" horiz-adv-x="1155" 
d="M967 319c-55.333 -115.333 -125.334 -203.502 -210.001 -264.502s-180 -91.5 -286 -91.5c-129.333 0 -234.333 44.167 -315 132.5s-121 203.833 -121 346.5c0 108.667 18.833 209.834 56.5 303.501s92.5 174.834 164.5 243.501c54.667 54 116 94.833 184 122.5
s140.333 41.5 217 41.5c106.667 0 193.834 -28.167 261.501 -84.5s101.5 -127.833 101.5 -214.5c0 -54.667 -14.167 -98.667 -42.5 -132s-65.5 -50 -111.5 -50c-39.333 0 -72 11.5 -98 34.5s-39 51.833 -39 86.5c0 18.667 5 37.167 15 55.5s24 34.5 42 48.5
c8.66699 6.66699 22.5 14.5 41.5 23.5s28.5 17.5 28.5 25.5c0 24 -18 46.833 -54 68.5s-78 32.5 -126 32.5c-124.667 0 -225.5 -60.667 -302.5 -182s-115.5 -281.333 -115.5 -480c0 -98.667 21.5 -174.834 64.5 -228.501s104.167 -80.5 183.5 -80.5
c61.333 0 120.5 20.333 177.5 61s111.833 101.334 164.5 182.001h119zM609.999 1264l-88 -0.000976562l293 295c20.667 20.667 40.667 36.334 60 47.001s37 16 53 16c23.333 0 42.5 -7.66699 57.5 -23s22.5 -35 22.5 -59c0 -15.333 -5.5 -29.5 -16.5 -42.5
s-30.833 -28.167 -59.5 -45.5z" />
    <glyph glyph-name="Ccaron" unicode="&#x10c;" horiz-adv-x="1554" 
d="M1319 854v14c0 164 -34.667 289.333 -104 376s-169.333 130 -300 130c-66 0 -130 -16.667 -192 -50s-116.667 -80.666 -164 -141.999c-56.667 -74.667 -101.834 -169.834 -135.501 -285.501s-50.5 -235.5 -50.5 -359.5c0 -137.333 34.167 -245.166 102.5 -323.499
s161.833 -117.5 280.5 -117.5c86.667 0 167 26.333 241 79s143 133 207 241l131 -41c-62 -134 -144.5 -236.5 -247.5 -307.5s-220.5 -106.5 -352.5 -106.5c-190 0 -341.5 57.667 -454.5 173s-169.5 269.333 -169.5 462c0 112 20 222.667 60 332s97.667 211 173 305
c72.667 88.667 157.834 157.5 255.501 206.5s198.834 73.5 303.501 73.5c39.333 0 78.166 -3.83301 116.499 -11.5s87.5 -22.834 147.5 -45.501c22 -8 49.833 -21.167 83.5 -39.5s56.5 -27.5 68.5 -27.5c19.333 0 35.833 9.66699 49.5 29s24.5 49 32.5 89h129l-82 -653h-129
zM768 1968h74l166 -195l251 195h99l-309 -348h-115z" />
    <glyph glyph-name="ccaron" unicode="&#x10d;" horiz-adv-x="1155" 
d="M967 319c-55.333 -115.333 -125.334 -203.502 -210.001 -264.502s-180 -91.5 -286 -91.5c-129.333 0 -234.333 44.167 -315 132.5s-121 203.833 -121 346.5c0 108.667 18.833 209.834 56.5 303.501s92.5 174.834 164.5 243.501c54.667 54 116 94.833 184 122.5
s140.333 41.5 217 41.5c106.667 0 193.834 -28.167 261.501 -84.5s101.5 -127.833 101.5 -214.5c0 -54.667 -14.167 -98.667 -42.5 -132s-65.5 -50 -111.5 -50c-39.333 0 -72 11.5 -98 34.5s-39 51.833 -39 86.5c0 18.667 5 37.167 15 55.5s24 34.5 42 48.5
c8.66699 6.66699 22.5 14.5 41.5 23.5s28.5 17.5 28.5 25.5c0 24 -18 46.833 -54 68.5s-78 32.5 -126 32.5c-124.667 0 -225.5 -60.667 -302.5 -182s-115.5 -281.333 -115.5 -480c0 -98.667 21.5 -174.834 64.5 -228.501s104.167 -80.5 183.5 -80.5
c61.333 0 120.5 20.333 177.5 61s111.833 101.334 164.5 182.001h119zM468.999 1612h74l166 -195l251 195h99l-309 -348h-115z" />
    <glyph glyph-name="dcroat" unicode="&#x111;" horiz-adv-x="1364" 
d="M723 154c-58.667 -65.333 -118.33 -114.169 -178.997 -146.502s-122.667 -48.5 -186 -48.5c-94.667 0 -171.834 39 -231.501 117s-89.5 180.333 -89.5 307c0 88.667 15 176.334 45 263.001s73 166.334 129 239.001c57.333 74 122 131.333 194 172s145.333 61 220 61
c70 0 128.833 -18.667 176.5 -56s87.167 -95.666 118.5 -174.999l86 303h-347l27 96h346c1.33301 6 2.33301 11.667 3 17s1 12 1 20c0 25.333 -12.167 44.333 -36.5 57s-61.166 19 -110.499 19h-76l31 112c73.333 1.33301 147.333 4.33301 222 9s150.667 11.334 228 20.001
l-75 -254h202l-24 -96h-207l-252 -901c-0.666992 -2.66699 -1.33398 -5.66699 -2.00098 -9c-10.667 -40.667 -16 -68.334 -16 -83.001c0 -23.333 5.5 -41.5 16.5 -54.5s25.833 -19.5 44.5 -19.5c29.333 0 60.666 17.167 93.999 51.5s67.666 84.833 102.999 151.5h114
c-54 -120 -113.167 -210.167 -177.5 -270.5s-132.833 -90.5 -205.5 -90.5c-52.667 0 -94 15.167 -124 45.5s-50.667 78.166 -62 143.499zM657.004 980.997c-56.667 0 -112.167 -20.499 -166.5 -61.499s-102.5 -99.167 -144.5 -174.5c-33.333 -60 -59.333 -126 -78 -198
s-28 -140.333 -28 -205c0 -76 17.333 -136 52 -180s82 -66 142 -66c52 0 102.167 16.667 150.5 50s93.166 82.333 134.499 147c40.667 63.333 73.334 135.166 98.001 215.499s37 154.5 37 222.5c0 76 -18 136.667 -54 182s-83.667 68 -143 68z" />
    <glyph glyph-name="Gbreve" unicode="&#x11e;" horiz-adv-x="1753" 
d="M1354 940c-16 138 -60.333 244.166 -133 318.499s-167.667 111.5 -285 111.5c-74 0 -142.5 -16.333 -205.5 -49s-119.5 -81 -169.5 -145c-58.667 -75.333 -104.334 -165.833 -137.001 -271.5s-49 -217.5 -49 -335.5c0 -150 33.667 -264.167 101 -342.5
s165.333 -117.5 294 -117.5c124 0 229.833 37.333 317.5 112s131.5 163.334 131.5 266.001c0 40 -12.833 67.667 -38.5 83s-79.834 25.333 -162.501 30l33 131h645l-36 -131c-69.333 -1.33301 -122.166 -20.333 -158.499 -57s-67.166 -105.667 -92.499 -207l-92 -375h-121v2
c-5.33301 62.667 -19 94 -41 94c-2 0 -50.667 -16 -146 -48s-192.666 -48 -291.999 -48c-182.667 0 -329 59.667 -439 179s-165 277.333 -165 474c0 110 18.667 216.667 56 320s91.666 198.333 162.999 285c78.667 96 166.334 168.667 263.001 218s199.334 74 308.001 74
c45.333 0 90 -4 134 -12s87.333 -20.333 130 -37c24 -8 57 -22.167 99 -42.5s72 -30.5 90 -30.5c21.333 0 39.666 9.83301 54.999 29.5s27.666 49.167 36.999 88.5h115l-68 -567h-141zM1450 1937c-59.333 -100 -119.832 -172.833 -181.499 -218.5s-129.5 -68.5 -203.5 -68.5
c-74.667 0 -130.667 23.833 -168 71.5s-56.333 119.5 -57 215.5h61c8 -50 26.167 -86.667 54.5 -110s68.166 -35 119.499 -35c62 0 117.333 11.5 166 34.5s95 59.833 139 110.5h70z" />
    <glyph glyph-name="gbreve" unicode="&#x11f;" horiz-adv-x="1214" 
d="M700 154c-59.333 -52.667 -118.33 -92.1699 -176.997 -118.503s-117 -39.5 -175 -39.5c-92 0 -166.833 37.833 -224.5 113.5s-86.5 175.167 -86.5 298.5c0 91.333 15.667 181.833 47 271.5s75.666 171.167 132.999 244.5c58 73.333 121.333 129.5 190 168.5
s139 58.5 211 58.5c71.333 0 131.166 -19 179.499 -57s86.833 -96 115.5 -174l54 213h178l-246 -961c-48.667 -190.667 -119.334 -331.834 -212.001 -423.501s-211 -137.5 -355 -137.5c-100.667 0 -182.5 19.333 -245.5 58s-94.5 88.334 -94.5 149.001
c0 34 11.167 62.333 33.5 85s50.833 34 85.5 34c37.333 0 67.5 -9.66699 90.5 -29s34.5 -44.666 34.5 -75.999c0 -15.333 -4.83301 -31.166 -14.5 -47.499s-14.5 -25.166 -14.5 -26.499c0 -10 12.5 -20 37.5 -30s54.167 -15 87.5 -15c91.333 0 168 37 230 111
s108 184 138 330zM664.003 1012c-50.667 0 -99.668 -15.833 -147.001 -47.5s-91.333 -78.167 -132 -139.5c-42.667 -64.667 -76.5 -138 -101.5 -220s-37.5 -160 -37.5 -234c0 -74.667 16.667 -133 50 -175s79.333 -63 138 -63c45.333 0 89.333 13 132 39
s83.334 64.333 122.001 115c48.667 64.667 88.5 142.5 119.5 233.5s46.5 175.5 46.5 253.5c0 72.667 -17.333 130.5 -52 173.5s-80.667 64.5 -138 64.5zM1073 1581c-59.333 -100 -119.832 -172.833 -181.499 -218.5s-129.5 -68.5 -203.5 -68.5
c-74.667 0 -130.667 23.833 -168 71.5s-56.333 119.5 -57 215.5h61c8 -50 26.167 -86.667 54.5 -110s68.166 -35 119.499 -35c62 0 117.333 11.5 166 34.5s95 59.833 139 110.5h70z" />
    <glyph glyph-name="Idotaccent" unicode="&#x130;" horiz-adv-x="891" 
d="M455 319c-6.66699 -23.333 -11.5 -42.665 -14.5 -57.998s-4.5 -28 -4.5 -38c0 -32.667 11.5 -55.834 34.5 -69.501s62.833 -20.5 119.5 -20.5h31l-33 -133h-588l33 133h18c46 0 80.333 8.83301 103 26.5s39.667 49.167 51 94.5l235 901c4 16 7.16699 32.5 9.5 49.5
s3.5 33.833 3.5 50.5c0 31.333 -12.333 53.5 -37 66.5s-67 19.5 -127 19.5h-19l33 134h592l-35 -134h-10c-48.667 0 -85.167 -8.83301 -109.5 -26.5s-42.5 -48.834 -54.5 -93.501zM565 1781c0 30 11.667 56.6689 35 80.002s50 35 80 35c31.333 0 58.333 -11.333 81 -34
s34 -49.667 34 -81c0 -32.667 -11 -59.834 -33 -81.501s-49.333 -32.5 -82 -32.5c-31.333 0 -58.333 11.167 -81 33.5s-34 49.166 -34 80.499z" />
    <glyph glyph-name="dotlessi" unicode="&#x131;" horiz-adv-x="811" 
d="M692 326c-54.667 -120.667 -113.831 -210.998 -177.498 -270.998s-132.167 -90 -205.5 -90c-54.667 0 -97.334 16.667 -128.001 50s-46 79.666 -46 138.999c0 38 6.66699 85.5 20 142.5s32.666 119.167 57.999 186.5l52 139c58 155.333 87 248.333 87 279
c0 22.667 -3.66699 39 -11 49s-19.333 15 -36 15c-30.667 0 -62 -15 -94 -45s-69 -79.333 -111 -148h-114c58 114 121.333 202.167 190 264.5s135.667 93.5 201 93.5c52 0 92.667 -16.833 122 -50.5s44 -80.834 44 -141.501c0 -34 -7.16699 -78.167 -21.5 -132.5
s-46.833 -152.166 -97.5 -293.499c-37.333 -102.667 -62.333 -175.834 -75 -219.501s-19 -75.5 -19 -95.5c0 -22.667 5.16699 -40 15.5 -52s24.833 -18 43.5 -18c28.667 0 58.5 16.333 89.5 49s64.833 82.667 101.5 150h112z" />
    <glyph glyph-name="Lslash" unicode="&#x141;" horiz-adv-x="1391" 
d="M305 602l-365.999 -203.002l43 164l366 203l101 390c4.66699 18.667 8.16699 36.334 10.5 53.001s3.5 32 3.5 46c0 31.333 -12.333 53.5 -37 66.5s-67.667 19.5 -129 19.5h-18l34 134h652l-35 -134c-6.66699 0 -15.5 0.333008 -26.5 1s-18.5 1 -22.5 1
c-59.333 0 -102 -8.83301 -128 -26.5s-45 -49.5 -57 -95.5l-86 -330l383 211l-43 -164l-381 -211l-106 -408c-5.33301 -19.333 -9.5 -37.166 -12.5 -53.499s-4.5 -30.5 -4.5 -42.5c0 -34 11.5 -57.5 34.5 -70.5s73.167 -19.5 150.5 -19.5h98
c125.333 0 222.5 31.667 291.5 95s124.167 172.333 165.5 327h157l-153 -555h-1182l35 133h18c46.667 0 81.167 8.83301 103.5 26.5s39.166 49.167 50.499 94.5z" />
    <glyph glyph-name="lslash" unicode="&#x142;" horiz-adv-x="721" 
d="M631 338c-68.667 -131.333 -134.331 -226.332 -196.998 -284.999s-129.667 -88 -201 -88c-54 0 -96.5 16.667 -127.5 50s-46.5 79.666 -46.5 138.999c0 28 4.5 63.5 13.5 106.5s27.833 116.5 56.5 220.5l47 164l-272 -151l37 131l272 151l113 402
c10 36 17.5 66.333 22.5 91s7.5 42.667 7.5 54c0 25.333 -12.167 44.333 -36.5 57s-61.166 19 -110.499 19h-76l31 112c79.333 1.33301 157.166 4.33301 233.499 9s151.5 11.334 225.5 20.001l-187 -653l275 151l-37 -131l-273 -151l-75 -269
c-25.333 -90.667 -43.333 -158.667 -54 -204s-16 -76.333 -16 -93c0 -20 5.16699 -35.833 15.5 -47.5s24.166 -17.5 41.499 -17.5c28 0 58.167 17.167 90.5 51.5s69.166 88.166 110.499 161.499h117z" />
    <glyph glyph-name="OE" unicode="&#x152;" horiz-adv-x="2294" 
d="M1466 133c138 0 239.669 25.667 305.002 77s119.333 145.333 162 282h152l-168 -492h-1114c-127.333 0 -227.166 10.5 -299.499 31.5s-137.166 56.167 -194.499 105.5c-64.667 56.667 -113.834 124.5 -147.501 203.5s-50.5 166.167 -50.5 261.5
c0 136.667 31.833 266.167 95.5 388.5s154.5 228.5 272.5 318.5c75.333 56.667 159 98.5 251 125.5s199.667 40.5 323 40.5h145h993l-71 -478h-133c0 15.333 0.666992 36 2 62c1.33301 38.667 2 63.334 2 74.001c0 78 -14.833 132.167 -44.5 162.5
s-81.834 45.5 -156.501 45.5h-141c-83.333 0 -138 -8.33301 -164 -25s-45.333 -48.334 -58 -95.001l-96 -375h92c86 0 145.667 14.5 179 43.5s57.666 84.167 72.999 165.5h140l-162 -631h-140c8 36.667 13.833 69.5 17.5 98.5s5.5 54.167 5.5 75.5
c0 42.667 -10.333 72.5 -31 89.5s-59.334 25.5 -116.001 25.5h-93l-100 -394c-6 -22.667 -10.5 -41.667 -13.5 -57s-4.5 -28.333 -4.5 -39c0 -34 11.333 -57.5 34 -70.5s72.667 -19.5 150 -19.5h104zM967.002 326l215 825v2c12 45.333 18 75.333 18 90
c0 33.333 -14.667 58 -44 74s-74 24 -134 24c-73.333 0 -139.333 -9 -198 -27s-110 -45 -154 -81c-88 -70 -159.5 -168.833 -214.5 -296.5s-82.5 -259.5 -82.5 -395.5c0 -129.333 33.833 -231 101.5 -305s160.167 -111 277.5 -111c64.667 0 111.167 12 139.5 36
s53.5 79 75.5 165z" />
    <glyph glyph-name="oe" unicode="&#x153;" horiz-adv-x="1956" 
d="M1071 893c68.667 86.667 140.667 151.999 216 195.999s153 66 233 66c88 0 159.167 -22.667 213.5 -68s81.5 -105.333 81.5 -180c0 -114.667 -63.167 -207.834 -189.5 -279.501s-304.833 -114.834 -535.5 -129.501c-8 -32 -13.833 -60.5 -17.5 -85.5
s-5.5 -47.833 -5.5 -68.5c0 -74 22.333 -134.5 67 -181.5s101.667 -70.5 171 -70.5s135.666 22 198.999 66s122.333 109.333 177 196l119 -4c-68 -129.333 -145.667 -225.833 -233 -289.5s-185.666 -95.5 -294.999 -95.5c-72.667 0 -138.667 16 -198 48
s-113.666 81 -162.999 147c-72 -66 -143.833 -115 -215.5 -147s-145.834 -48 -222.501 -48c-130.667 0 -236.334 43.833 -317.001 131.5s-121 202.834 -121 345.501c0 108.667 18.833 209.834 56.5 303.501s92.5 174.834 164.5 243.501
c56.667 54.667 119.334 96 188.001 124s142 42 220 42c88 0 164.5 -20.833 229.5 -62.5s124.167 -108.167 177.5 -199.5zM1108 597.999c156.667 10 279.498 41.334 368.498 94.001s133.5 119.667 133.5 201c0 45.333 -12.5 81.166 -37.5 107.499s-59.167 39.5 -102.5 39.5
c-73.333 0 -141.666 -38.5 -204.999 -115.5s-115.666 -185.833 -156.999 -326.5zM503.998 76c54.667 0 105.331 16.167 151.998 48.5s89.334 81.5 128.001 147.5c37.333 62 66.5 134.167 87.5 216.5s31.5 164.5 31.5 246.5c0 102 -19.667 178.333 -59 229
s-98.666 76 -177.999 76c-113.333 0 -209.333 -60.167 -288 -180.5s-118 -270.833 -118 -451.5c0 -106.667 21.167 -188.667 63.5 -246s102.5 -86 180.5 -86z" />
    <glyph glyph-name="Scedilla" unicode="&#x15e;" horiz-adv-x="1421" 
d="M188 -39l-119.998 0.000976562l118 600h127v-4c0 -136.667 36.167 -247.667 108.5 -333s165.166 -128 278.499 -128c72 0 131.333 22.667 178 68s70 102.666 70 171.999c0 50 -15 97 -45 141s-83.333 94 -160 150c-24 18 -59.333 43 -106 75
c-103.333 71.333 -173 127.333 -209 168c-36 42 -62.667 83.833 -80 125.5s-26 85.167 -26 130.5c0 110 38.667 201.333 116 274s175.666 109 294.999 109c67.333 0 142.166 -16 224.499 -48s131.833 -48 148.5 -48c14.667 0 28.5 7.5 41.5 22.5s25.833 38.833 38.5 71.5
h123l-105 -534h-121c0 4 0.333008 10.5 1 19.5s1 15.5 1 19.5c0 113.333 -28.333 202.666 -85 267.999s-134 98 -232 98c-66.667 0 -122.167 -18.333 -166.5 -55s-66.5 -82.334 -66.5 -137.001c0 -93.333 81.333 -193.333 244 -300l12 -7
c142 -93.333 240.5 -177.333 295.5 -252s82.5 -156.667 82.5 -246c0 -121.333 -43.167 -221.666 -129.5 -300.999s-197.166 -119 -332.499 -119c-45.333 0 -89.333 5.33301 -132 16s-93 30 -151 58c-8.66699 4 -21 10 -37 18c-41.333 20.667 -71.333 31 -90 31
c-23.333 0 -43.333 -9.16699 -60 -27.5s-33 -50.166 -49 -95.499zM267.002 -378.999l36.001 89.999c40 -25.333 80 -44.666 120 -57.999s77.333 -20 112 -20c37.333 0 65.5 7.66699 84.5 23s28.5 38 28.5 68c0 27.333 -9 48.5 -27 63.5s-44 22.5 -78 22.5
c-9.33301 0 -21.333 -0.833008 -36 -2.5s-35.334 -4.5 -62.001 -8.5l65 201h66l-37 -115c7.33301 1.33301 15.333 2.33301 24 3s21 1 37 1c60 0 106.5 -14.5 139.5 -43.5s49.5 -69.5 49.5 -121.5c0 -56.667 -19.667 -100.667 -59 -132s-94.666 -47 -165.999 -47
c-38 0 -81.333 6.33301 -130 19s-104.334 31.667 -167.001 57z" />
    <glyph glyph-name="scedilla" unicode="&#x15f;" horiz-adv-x="979" 
d="M350 -35c-106.667 0 -195.001 27.8311 -265.001 83.498s-105 124.834 -105 207.501c0 48.667 11.667 87.5 35 116.5s54.666 43.5 93.999 43.5c34 0 61.5 -9.66699 82.5 -29s31.5 -44.666 31.5 -75.999c0 -30.667 -12.167 -59 -36.5 -85s-36.5 -42 -36.5 -48
c0 -22.667 20 -44.334 60 -65.001s86.667 -31 140 -31c70.667 0 127 16.333 169 49s63 76.334 63 131.001c0 60 -56.333 132.667 -169 218c-15.333 11.333 -26.666 20 -33.999 26c-93.333 71.333 -156.666 131.166 -189.999 179.499s-50 100.5 -50 156.5
c0 88.667 34.167 162.334 102.5 221.001s155.166 88 260.499 88c98 0 180.167 -25.333 246.5 -76s99.5 -112 99.5 -184c0 -44 -12.833 -80 -38.5 -108s-58.5 -42 -98.5 -42c-33.333 0 -60.166 9 -80.499 27s-30.5 41.333 -30.5 70c0 31.333 14 59.666 42 84.999
s42 43.333 42 54c0 15.333 -17.667 31.833 -53 49.5s-74.333 26.5 -117 26.5c-55.333 0 -102 -15.167 -140 -45.5s-57 -67.166 -57 -110.499c0 -30 10.333 -59.333 31 -88s57.667 -62.667 111 -102l22 -17c191.333 -144 287 -270.333 287 -379
c0 -96.667 -40 -178.5 -120 -245.5s-179.333 -100.5 -298 -100.5zM44.999 -379.002l36.001 89.999c40 -25.333 80 -44.666 120 -57.999s77.333 -20 112 -20c37.333 0 65.5 7.66699 84.5 23s28.5 38 28.5 68c0 27.333 -9 48.5 -27 63.5s-44 22.5 -78 22.5
c-9.33301 0 -21.333 -0.833008 -36 -2.5s-35.334 -4.5 -62.001 -8.5l65 201h66l-37 -115c7.33301 1.33301 15.333 2.33301 24 3s21 1 37 1c60 0 106.5 -14.5 139.5 -43.5s49.5 -69.5 49.5 -121.5c0 -56.667 -19.667 -100.667 -59 -132s-94.666 -47 -165.999 -47
c-38 0 -81.333 6.33301 -130 19s-104.334 31.667 -167.001 57z" />
    <glyph glyph-name="Scaron" unicode="&#x160;" horiz-adv-x="1421" 
d="M188 -39l-119.998 0.000976562l118 600h127v-4c0 -136.667 36.167 -247.667 108.5 -333s165.166 -128 278.499 -128c72 0 131.333 22.667 178 68s70 102.666 70 171.999c0 50 -15 97 -45 141s-83.333 94 -160 150c-24 18 -59.333 43 -106 75
c-103.333 71.333 -173 127.333 -209 168c-36 42 -62.667 83.833 -80 125.5s-26 85.167 -26 130.5c0 110 38.667 201.333 116 274s175.666 109 294.999 109c67.333 0 142.166 -16 224.499 -48s131.833 -48 148.5 -48c14.667 0 28.5 7.5 41.5 22.5s25.833 38.833 38.5 71.5
h123l-105 -534h-121c0 4 0.333008 10.5 1 19.5s1 15.5 1 19.5c0 113.333 -28.333 202.666 -85 267.999s-134 98 -232 98c-66.667 0 -122.167 -18.333 -166.5 -55s-66.5 -82.334 -66.5 -137.001c0 -93.333 81.333 -193.333 244 -300l12 -7
c142 -93.333 240.5 -177.333 295.5 -252s82.5 -156.667 82.5 -246c0 -121.333 -43.167 -221.666 -129.5 -300.999s-197.166 -119 -332.499 -119c-45.333 0 -89.333 5.33301 -132 16s-93 30 -151 58c-8.66699 4 -21 10 -37 18c-41.333 20.667 -71.333 31 -90 31
c-23.333 0 -43.333 -9.16699 -60 -27.5s-33 -50.166 -49 -95.499zM688.002 1968h74l166 -195l251 195h99l-309 -348h-115z" />
    <glyph glyph-name="scaron" unicode="&#x161;" horiz-adv-x="979" 
d="M350 -35c-106.667 0 -195.001 27.8311 -265.001 83.498s-105 124.834 -105 207.501c0 48.667 11.667 87.5 35 116.5s54.666 43.5 93.999 43.5c34 0 61.5 -9.66699 82.5 -29s31.5 -44.666 31.5 -75.999c0 -30.667 -12.167 -59 -36.5 -85s-36.5 -42 -36.5 -48
c0 -22.667 20 -44.334 60 -65.001s86.667 -31 140 -31c70.667 0 127 16.333 169 49s63 76.334 63 131.001c0 60 -56.333 132.667 -169 218c-15.333 11.333 -26.666 20 -33.999 26c-93.333 71.333 -156.666 131.166 -189.999 179.499s-50 100.5 -50 156.5
c0 88.667 34.167 162.334 102.5 221.001s155.166 88 260.499 88c98 0 180.167 -25.333 246.5 -76s99.5 -112 99.5 -184c0 -44 -12.833 -80 -38.5 -108s-58.5 -42 -98.5 -42c-33.333 0 -60.166 9 -80.499 27s-30.5 41.333 -30.5 70c0 31.333 14 59.666 42 84.999
s42 43.333 42 54c0 15.333 -17.667 31.833 -53 49.5s-74.333 26.5 -117 26.5c-55.333 0 -102 -15.167 -140 -45.5s-57 -67.166 -57 -110.499c0 -30 10.333 -59.333 31 -88s57.667 -62.667 111 -102l22 -17c191.333 -144 287 -270.333 287 -379
c0 -96.667 -40 -178.5 -120 -245.5s-179.333 -100.5 -298 -100.5zM357.999 1612h74l166 -195l251 195h99l-309 -348h-115z" />
    <glyph glyph-name="Ydieresis" unicode="&#x178;" horiz-adv-x="1440" 
d="M201 0l30.0029 133.003h39c58.667 0 101.667 8.83301 129 26.5s47.333 49.167 60 94.5l86 330l-209 575c-28 72.667 -57 121.167 -87 145.5s-72.667 36.5 -128 36.5h-23l35 134h594l-35 -134h-20c-45.333 0 -78.5 -6.16699 -99.5 -18.5s-31.5 -31.833 -31.5 -58.5
c0 -13.333 1.16699 -26.833 3.5 -40.5s5.83301 -26.834 10.5 -39.501l168 -463l315 383c23.333 28 41.166 54.5 53.499 79.5s18.5 46.833 18.5 65.5c0 32.667 -13.5 56.167 -40.5 70.5s-70.167 21.5 -129.5 21.5l33 134h581l-32 -134h-6c-38.667 0 -74 -8.83301 -106 -26.5
s-64.333 -46.834 -97 -87.501l-541 -662l-65 -246c-6.66699 -24 -11.5 -43.833 -14.5 -59.5s-4.5 -27.834 -4.5 -36.501c0 -34 11.667 -57.833 35 -71.5s65 -20.5 125 -20.5c5.33301 0 13.666 0.333008 24.999 1s20.666 1 27.999 1l-35 -133h-665zM1022 1781
c0 28 10.833 52.8311 32.5 74.498s46.167 32.5 73.5 32.5c29.333 0 54.833 -10.5 76.5 -31.5s32.5 -46.167 32.5 -75.5c0 -31.333 -10.333 -57.166 -31 -77.499s-46.667 -30.5 -78 -30.5c-30 0 -55.167 10.333 -75.5 31s-30.5 46.334 -30.5 77.001zM669.003 1781
c0 28 10.833 52.8311 32.5 74.498s46.5 32.5 74.5 32.5c29.333 0 54.666 -10.5 75.999 -31.5s32 -46.167 32 -75.5c0 -31.333 -10.167 -57.166 -30.5 -77.499s-46.166 -30.5 -77.499 -30.5c-30.667 0 -56.167 10.333 -76.5 31s-30.5 46.334 -30.5 77.001z" />
    <glyph glyph-name="Zcaron" unicode="&#x17d;" horiz-adv-x="1489" 
d="M16 0l-0.00195312 150.001l1108 1191h-376c-131.333 0 -228.666 -23.5 -291.999 -70.5s-122.333 -137.5 -177 -271.5h-123l135 476h1118v-148l-1108 -1194h381c80.667 0 145.667 4.83301 195 14.5s89.333 25.5 120 47.5c30.667 21.333 61.334 56.666 92.001 105.999
s69 126.333 115 231h127l-153 -532h-1162zM720.998 1968h74l166 -195l251 195h99l-309 -348h-115z" />
    <glyph glyph-name="zcaron" unicode="&#x17e;" horiz-adv-x="1028" 
d="M97 267c20.667 8.66699 40.4971 15.165 59.4971 19.498s37.167 6.5 54.5 6.5c42 0 106 -21.5 192 -64.5s150.333 -64.5 193 -64.5c47.333 0 88.166 15.333 122.499 46s63.833 78.667 88.5 144h106c-24 -128 -65.333 -224.167 -124 -288.5s-134 -96.5 -226 -96.5
c-48 0 -91.833 8 -131.5 24s-79.167 41.667 -118.5 77c-14.667 13.333 -34.667 32.666 -60 57.999c-46.667 48.667 -82.667 73 -108 73c-14.667 0 -26.167 -4 -34.5 -12s-12.5 -19 -12.5 -33c0 -13.333 9 -33.333 27 -60s27 -47.667 27 -63
c0 -22 -6.16699 -38.833 -18.5 -50.5s-29.5 -17.5 -51.5 -17.5c-31.333 0 -54.5 15.333 -69.5 46s-22.5 78.334 -22.5 143.001c0 104.667 30.333 197.334 91 278.001s148.334 145 263.001 193c40 16.667 94.167 34.667 162.5 54s115.166 34 140.499 44
c35.333 14.667 65.333 32.334 90 53.001s45 45 61 73c-13.333 -2.66699 -26.666 -4.83398 -39.999 -6.50098s-27.666 -2.5 -42.999 -2.5c-42 0 -103.5 17.667 -184.5 53s-143.167 53 -186.5 53s-80.5 -11.833 -111.5 -35.5s-55.167 -58.834 -72.5 -105.501h-103
c21.333 110 58.666 194.5 111.999 253.5s119.333 88.5 198 88.5c34 0 65.833 -6.16699 95.5 -18.5s59.834 -31.5 90.501 -57.5l52 -46c81.333 -71.333 137 -107 167 -107c12.667 0 22 2.5 28 7.5s9 12.5 9 22.5c0 16 -10.667 39.5 -32 70.5s-32 53.833 -32 68.5
c0 16.667 6.33301 30.5 19 41.5s28.334 16.5 47.001 16.5c33.333 0 58.333 -15.833 75 -47.5s25 -79.5 25 -143.5c0 -87.333 -30.833 -167.666 -92.5 -240.999s-151.5 -135.666 -269.5 -186.999c-31.333 -13.333 -82.166 -31.166 -152.499 -53.499
s-122.5 -41.833 -156.5 -58.5c-40.667 -20.667 -72.5 -42.834 -95.5 -66.501s-38.833 -50.5 -47.5 -80.5zM382.997 1612h74l166 -195l251 195h99l-309 -348h-115z" />
    <glyph glyph-name="florin" unicode="&#x192;" horiz-adv-x="1114" 
d="M494 991c20 186 63.668 326.334 131.001 421.001s156.666 142 267.999 142c59.333 0 108.666 -16.333 147.999 -49s59 -73.667 59 -123c0 -39.333 -10.667 -69.5 -32 -90.5s-51.666 -31.5 -90.999 -31.5c-33.333 0 -59.833 8.16699 -79.5 24.5s-29.5 38.833 -29.5 67.5
c0 14.667 3.16699 31 9.5 49s9.5 29 9.5 33c0 5.33301 -2.66699 9.33301 -8 12s-13 4 -23 4c-54 0 -96.667 -40 -128 -120s-48 -192.667 -50 -338l227 -1l-12 -110h-221c-22.667 -472 -68.834 -798 -138.501 -978s-178.5 -270 -326.5 -270c-64 0 -115.167 15.667 -153.5 47
s-57.5 72.333 -57.5 123c0 39.333 11.333 71.5 34 96.5s51.667 37.5 87 37.5c34 0 61.833 -9.83301 83.5 -29.5s32.5 -44.834 32.5 -75.501c0 -16 -3.33301 -32.833 -10 -50.5s-10 -27.5 -10 -29.5c0 -5.33301 3.66699 -10 11 -14s16.666 -6 27.999 -6
c34.667 0 64.334 19.333 89.001 58s44 97 58 175c10 56 21.333 186 34 390s27.334 379.333 44.001 526h-231l14 110h234z" />
    <glyph glyph-name="circumflex" unicode="&#x2c6;" horiz-adv-x="1024" 
d="M887 1264h-74l-166 194l-252 -194h-96l309 348h113z" />
    <glyph glyph-name="caron" unicode="&#x2c7;" horiz-adv-x="1024" 
d="M381 1612h74l166 -195l251 195h99l-309 -348h-115z" />
    <glyph glyph-name="breve" unicode="&#x2d8;" horiz-adv-x="1024" 
d="M977 1581c-59.333 -100 -119.832 -172.833 -181.499 -218.5s-129.5 -68.5 -203.5 -68.5c-74.667 0 -130.667 23.833 -168 71.5s-56.333 119.5 -57 215.5h61c8 -50 26.167 -86.667 54.5 -110s68.166 -35 119.499 -35c62 0 117.333 11.5 166 34.5s95 59.833 139 110.5h70z
" />
    <glyph glyph-name="dotaccent" unicode="&#x2d9;" horiz-adv-x="1024" 
d="M524 1425c0 30 11.667 56.6689 35 80.002s50 35 80 35c31.333 0 58.333 -11.333 81 -34s34 -49.667 34 -81c0 -32.667 -11 -59.834 -33 -81.501s-49.333 -32.5 -82 -32.5c-31.333 0 -58.333 11.167 -81 33.5s-34 49.166 -34 80.499z" />
    <glyph glyph-name="ring" unicode="&#x2da;" horiz-adv-x="1024" 
d="M502 1491c0 -42 14.667 -77.5 44 -106.5s65 -43.5 107 -43.5c41.333 0 76.333 14.5 105 43.5s43 64.5 43 106.5s-14.333 77.333 -43 106s-63.667 43 -105 43c-42 0 -77.667 -14.333 -107 -43s-44 -64 -44 -106zM403 1491c0 69.333 24 128 72 176s106.667 72 176 72
c70 0 128.833 -24 176.5 -72s71.5 -106.667 71.5 -176c0 -70 -23.833 -128.833 -71.5 -176.5s-106.5 -71.5 -176.5 -71.5c-69.333 0 -128 23.833 -176 71.5s-72 106.5 -72 176.5z" />
    <glyph glyph-name="ogonek" unicode="&#x2db;" horiz-adv-x="1024" 
d="M455 35c-56 -43.333 -99.001 -87.166 -129.001 -131.499s-45 -85.833 -45 -124.5c0 -40 7.83301 -70.833 23.5 -92.5s37.834 -32.5 66.501 -32.5c24 0 45.667 5.66699 65 17s38.666 29.666 57.999 54.999l30 -17c-24 -50 -55 -88.333 -93 -115s-80 -40 -126 -40
c-48 0 -86.333 13.667 -115 41s-43 64 -43 110c0 56 21.333 111 64 165s108.334 109 197.001 165h47z" />
    <glyph glyph-name="tilde" unicode="&#x2dc;" horiz-adv-x="1024" 
d="M938 1540c-13.333 -66 -36.168 -116.333 -68.501 -151s-72.833 -52 -121.5 -52c-11.333 0 -23.166 1 -35.499 3s-26.5 5.33301 -42.5 10l-131 32c-16 4 -28.667 6.83301 -38 8.5s-16.666 2.5 -21.999 2.5c-22 0 -39.5 -6.5 -52.5 -19.5s-22.167 -32.5 -27.5 -58.5h-61
c9.33301 66 29.166 116 59.499 150s70.5 51 120.5 51c10 -0.666992 20.333 -1.66699 31 -3s24.334 -4 41.001 -8l128 -34c14.667 -4 26.667 -6.83301 36 -8.5s16.666 -2.5 21.999 -2.5c28 0 49.833 6.16699 65.5 18.5s27.5 32.833 35.5 61.5h61z" />
    <glyph glyph-name="hungarumlaut" unicode="&#x2dd;" horiz-adv-x="1024" 
d="M866 1540c22.667 32 42 53.6689 58 65.002s33 17 51 17c20.667 0 38.5 -7.5 53.5 -22.5s22.5 -32.833 22.5 -53.5c0 -12.667 -4.83301 -25.834 -14.5 -39.501s-25.5 -29.834 -47.5 -48.501l-239 -194h-78zM557 1530c18.667 34 36.167 57.834 52.5 71.501
s34.5 20.5 54.5 20.5s37.167 -7.16699 51.5 -21.5s21.5 -31.833 21.5 -52.5c0 -12.667 -3.83301 -25.834 -11.5 -39.501s-20.167 -29.167 -37.5 -46.5l-203 -198h-71z" />
    <glyph glyph-name="Omega" unicode="&#x3a9;" horiz-adv-x="1569" 
d="M1112 231v-26h311l60 184h61l-117 -389h-505c80 144 140.5 289 181.5 435s61.5 288.333 61.5 427c0 184.667 -31.833 324 -95.5 418s-158.167 141 -283.5 141c-126 0 -220.833 -46.667 -284.5 -140s-95.5 -233 -95.5 -419c0 -139.333 20.333 -281.333 61 -426
s101.334 -290 182.001 -436h-506l-116 389h61l59 -184h312v26c-110 122 -189 233.667 -237 335s-72 205 -72 311c0 178 61 325.833 183 443.5s273 176.5 453 176.5s330.833 -59 452.5 -177s182.5 -265.667 182.5 -443c0 -105.333 -23.833 -208.333 -71.5 -309
s-126.834 -213 -237.501 -337z" />
    <glyph glyph-name="pi" unicode="&#x3c0;" horiz-adv-x="1389" 
d="M1370 885l-42.998 -199.001h-340c-22 -91.333 -34.333 -225 -37 -401c-0.666992 -38.667 -1.33398 -67.667 -2.00098 -87c-2 -83.333 -12.833 -144.333 -32.5 -183s-49.834 -58 -90.501 -58c-28 0 -49.333 9.33301 -64 28s-22 46.334 -22 83.001
c0 38.667 25.667 125 77 259s89.333 253.667 114 359h-387c-23.333 -94.667 -36.666 -232.667 -39.999 -414c-0.666992 -32.667 -1 -57 -1 -73c-2.66699 -84.667 -13.667 -146.167 -33 -184.5s-49.333 -57.5 -90 -57.5c-28 0 -49 9.33301 -63 28s-21 46.334 -21 83.001
c0 39.333 25.333 126 76 260s88 253.333 112 358h-188c-60.667 0 -105.834 -13.833 -135.501 -41.5s-52.167 -78.5 -67.5 -152.5h-57c26.667 145.333 68 247.166 124 305.499s139.667 87.5 251 87.5h960z" />
    <glyph glyph-name="endash" unicode="&#x2013;" horiz-adv-x="1024" 
d="M969 633l-54 -133h-970l55 133h969z" />
    <glyph glyph-name="emdash" unicode="&#x2014;" horiz-adv-x="2048" 
d="M-90 500l55 133h2048l-55 -133h-2048z" />
    <glyph glyph-name="quoteleft" unicode="&#x2018;" horiz-adv-x="557" 
d="M301 1172c10 2 19.167 3.5 27.5 4.5s16.166 1.5 23.499 1.5c38 0 67.333 -11 88 -33s31 -53.333 31 -94c0 -43.333 -13.5 -78.5 -40.5 -105.5s-61.833 -40.5 -104.5 -40.5c-46.667 0 -83.667 16.5 -111 49.5s-41 77.167 -41 132.5c0 90 34.333 172.167 103 246.5
s164 132.166 286 173.499v-82c-73.333 -34.667 -131.166 -72.667 -173.499 -114s-71.833 -87.666 -88.5 -138.999z" />
    <glyph glyph-name="quoteright" unicode="&#x2019;" horiz-adv-x="557" 
d="M434 1241c-8.66699 -2 -17.168 -3.49902 -25.501 -4.49902s-16.166 -1.5 -23.499 -1.5c-38 0 -67.333 11.167 -88 33.5s-31 54.166 -31 95.499c0 42.667 13.5 77.167 40.5 103.5s62.167 39.5 105.5 39.5c46 0 82.667 -16.333 110 -49s41 -77 41 -133
c0 -89.333 -34.5 -171.166 -103.5 -245.499s-164.833 -132.5 -287.5 -174.5v84c74.667 36 133 74.167 175 114.5s71 86.166 87 137.499z" />
    </font>
</defs>
</svg>
